<svg width="1216" height="231" viewBox="0 0 1216 231" fill="none" xmlns="http://www.w3.org/2000/svg">
<rect x="0.5" y="0.5" width="1215" height="815.708" rx="12.5" stroke="#E3E8EF"/>
<g filter="url(#filter0_b_1_1605)">
<rect x="1" y="1" width="1214" height="708" rx="20" fill="white" fill-opacity="0.12"/>
</g>
<rect x="17.4401" y="17.4401" width="298.415" height="249.12" rx="7.55986" fill="white"/>
<rect x="17.4401" y="17.4401" width="298.415" height="249.12" rx="7.55986" fill="url(#paint0_linear_1_1605)"/>
<rect x="17.4401" y="17.4401" width="298.415" height="249.12" rx="7.55986" stroke="#D0D1D3" stroke-width="0.880282"/>
<g clip-path="url(#clip0_1_1605)">
<path d="M75.2174 89.183H45.0477C43.1331 89.183 41.5666 87.6166 41.5666 85.7019V41.6078C41.5666 39.6932 43.1331 38.1267 45.0477 38.1267H65.9344L78.6985 50.8908V85.7019C78.6985 87.6166 77.132 89.183 75.2174 89.183Z" fill="#0086F9"/>
<path d="M65.9338 38.1267L78.6979 50.8908H65.9338V38.1267Z" fill="#0067D9"/>
<path d="M49.4963 55.1453H70.383V58.0462H49.4963V55.1453ZM49.4963 62.1075H70.383V65.0084H49.4963V62.1075ZM49.4963 69.0698H64.5811V71.9707H49.4963V69.0698Z" fill="#FBFFFF"/>
</g>
<g clip-path="url(#clip1_1_1605)">
<rect x="34.6057" y="103.268" width="264.085" height="146.127" rx="28.169" fill="url(#paint1_linear_1_1605)"/>
<g opacity="0.2">
<path d="M45.1678 163.198L75.0215 139.089C75.5506 138.662 76.304 138.655 76.8411 139.072L111.463 165.961C111.985 166.367 112.713 166.373 113.242 165.976L179.454 116.253C179.976 115.861 180.694 115.862 181.216 116.255L214.321 141.194C214.812 141.564 215.482 141.588 215.999 141.254L237.77 127.175C238.277 126.847 238.934 126.864 239.423 127.218L286.365 161.128" stroke="#212F40" stroke-width="1.95384" stroke-linecap="round"/>
<path d="M44.5669 213.901C44.5669 211.329 46.652 209.244 49.2242 209.244C51.7964 209.244 53.8816 211.329 53.8816 213.901V248.321C53.8816 249.4 53.0068 250.275 51.9277 250.275H46.5207C45.4416 250.275 44.5669 249.4 44.5669 248.321V213.901Z" fill="#212F40"/>
<path d="M58.2777 223.671C58.2777 221.098 60.3629 219.013 62.9351 219.013C65.5072 219.013 67.5924 221.098 67.5924 223.671V248.321C67.5924 249.4 66.7176 250.275 65.6386 250.275H60.2316C59.1525 250.275 58.2777 249.4 58.2777 248.321V223.671Z" fill="#212F40"/>
<path d="M71.9885 213.901C71.9885 211.329 74.0737 209.244 76.6459 209.244C79.2181 209.244 81.3032 211.329 81.3032 213.901V248.321C81.3032 249.4 80.4285 250.275 79.3494 250.275H73.9424C72.8633 250.275 71.9885 249.4 71.9885 248.321V213.901Z" fill="#212F40"/>
<path d="M99.4102 220.251C99.4102 217.679 101.495 215.594 104.068 215.594C106.64 215.594 108.725 217.679 108.725 220.251V248.321C108.725 249.4 107.85 250.275 106.771 250.275H101.364C100.285 250.275 99.4102 249.4 99.4102 248.321V220.251Z" fill="#212F40"/>
<path d="M113.121 227.09C113.121 224.518 115.206 222.432 117.778 222.432C120.351 222.432 122.436 224.518 122.436 227.09V248.321C122.436 249.4 121.561 250.275 120.482 250.275H115.075C113.996 250.275 113.121 249.4 113.121 248.321V227.09Z" fill="#212F40"/>
<path d="M126.832 203.155C126.832 200.583 128.917 198.498 131.489 198.498C134.061 198.498 136.147 200.583 136.147 203.155V248.321C136.147 249.4 135.272 250.275 134.193 250.275H128.786C127.707 250.275 126.832 249.4 126.832 248.321V203.155Z" fill="#212F40"/>
<path d="M140.543 223.671C140.543 221.098 142.628 219.013 145.2 219.013C147.772 219.013 149.857 221.098 149.857 223.671V248.321C149.857 249.4 148.983 250.275 147.904 250.275H142.497C141.418 250.275 140.543 249.4 140.543 248.321V223.671Z" fill="#212F40"/>
<path d="M154.254 213.901C154.254 211.329 156.339 209.244 158.911 209.244C161.483 209.244 163.568 211.329 163.568 213.901V248.321C163.568 249.4 162.694 250.275 161.614 250.275H156.207C155.128 250.275 154.254 249.4 154.254 248.321V213.901Z" fill="#212F40"/>
<path d="M181.675 220.251C181.675 217.679 183.76 215.594 186.333 215.594C188.905 215.594 190.99 217.679 190.99 220.251V248.321C190.99 249.4 190.115 250.275 189.036 250.275H183.629C182.55 250.275 181.675 249.4 181.675 248.321V220.251Z" fill="#212F40"/>
<path d="M195.386 227.09C195.386 224.518 197.471 222.432 200.043 222.432C202.616 222.432 204.701 224.518 204.701 227.09V248.321C204.701 249.4 203.826 250.275 202.747 250.275H197.34C196.261 250.275 195.386 249.4 195.386 248.321V227.09Z" fill="#212F40"/>
<path d="M209.097 203.155C209.097 200.583 211.182 198.498 213.754 198.498C216.326 198.498 218.412 200.583 218.412 203.155V248.321C218.412 249.4 217.537 250.275 216.458 250.275H211.051C209.972 250.275 209.097 249.4 209.097 248.321V203.155Z" fill="#212F40"/>
<path d="M222.808 223.671C222.808 221.098 224.893 219.013 227.465 219.013C230.037 219.013 232.122 221.098 232.122 223.671V248.321C232.122 249.4 231.248 250.275 230.169 250.275H224.762C223.683 250.275 222.808 249.4 222.808 248.321V223.671Z" fill="#212F40"/>
<path d="M236.519 213.901C236.519 211.329 238.604 209.244 241.176 209.244C243.748 209.244 245.833 211.329 245.833 213.901V248.321C245.833 249.4 244.959 250.275 243.88 250.275H238.472C237.393 250.275 236.519 249.4 236.519 248.321V213.901Z" fill="#212F40"/>
<path d="M263.94 220.251C263.94 217.679 266.026 215.594 268.598 215.594C271.17 215.594 273.255 217.679 273.255 220.251V248.321C273.255 249.4 272.38 250.275 271.301 250.275H265.894C264.815 250.275 263.94 249.4 263.94 248.321V220.251Z" fill="#212F40"/>
<path d="M277.651 227.09C277.651 224.518 279.736 222.432 282.309 222.432C284.881 222.432 286.966 224.518 286.966 227.09V248.321C286.966 249.4 286.091 250.275 285.012 250.275H279.605C278.526 250.275 277.651 249.4 277.651 248.321V227.09Z" fill="#212F40"/>
</g>
</g>
<rect x="35.0458" y="103.708" width="263.204" height="145.246" rx="27.7289" stroke="#D0D1D3" stroke-width="0.880282"/>
<rect opacity="0.1" x="96.2266" y="48.6904" width="72.1831" height="31.6901" rx="10.5634" fill="url(#paint2_linear_1_1605)"/>
<g filter="url(#filter1_d_1_1605)">
<rect x="193.297" y="17" width="299.296" height="250" rx="8" fill="white"/>
<rect x="193.297" y="17" width="299.296" height="250" rx="8" fill="url(#paint3_linear_1_1605)"/>
<rect x="193.737" y="17.4401" width="298.415" height="249.12" rx="7.55986" stroke="#D0D1D3" stroke-width="0.880282"/>
<g clip-path="url(#clip2_1_1605)">
<path d="M251.516 89.183H221.347C219.432 89.183 217.865 87.6166 217.865 85.7019V41.6078C217.865 39.6932 219.432 38.1267 221.347 38.1267H242.233L254.997 50.8908V85.7019C254.997 87.6166 253.431 89.183 251.516 89.183Z" fill="#FFBF00"/>
<path d="M242.235 38.1267L254.999 50.8908H242.235V38.1267Z" fill="#FF9300"/>
<path d="M224.828 58.1443V74.3895H248.036V58.1443H224.828ZM245.135 71.4884H227.729V61.0451H245.135V71.4884H245.135Z" fill="#FBFFFF"/>
</g>
<g clip-path="url(#clip3_1_1605)">
<rect x="210.903" y="103.268" width="264.085" height="146.127" rx="28.169" fill="url(#paint4_linear_1_1605)"/>
<g opacity="0.2">
<path d="M221.465 163.198L251.318 139.089C251.847 138.662 252.601 138.655 253.138 139.072L287.76 165.961C288.282 166.367 289.01 166.373 289.539 165.976L355.751 116.253C356.273 115.861 356.991 115.862 357.513 116.255L390.618 141.194C391.109 141.564 391.779 141.588 392.296 141.254L414.067 127.175C414.574 126.847 415.231 126.864 415.72 127.218L462.662 161.128" stroke="#212F40" stroke-width="1.95384" stroke-linecap="round"/>
<path d="M220.864 213.901C220.864 211.329 222.949 209.244 225.521 209.244C228.093 209.244 230.178 211.329 230.178 213.901V248.321C230.178 249.4 229.304 250.275 228.225 250.275H222.818C221.739 250.275 220.864 249.4 220.864 248.321V213.901Z" fill="#212F40"/>
<path d="M234.575 223.671C234.575 221.098 236.66 219.013 239.232 219.013C241.804 219.013 243.889 221.098 243.889 223.671V248.321C243.889 249.4 243.015 250.275 241.936 250.275H236.528C235.449 250.275 234.575 249.4 234.575 248.321V223.671Z" fill="#212F40"/>
<path d="M248.285 213.901C248.285 211.329 250.371 209.244 252.943 209.244C255.515 209.244 257.6 211.329 257.6 213.901V248.321C257.6 249.4 256.725 250.275 255.646 250.275H250.239C249.16 250.275 248.285 249.4 248.285 248.321V213.901Z" fill="#212F40"/>
<path d="M275.707 220.251C275.707 217.679 277.792 215.594 280.365 215.594C282.937 215.594 285.022 217.679 285.022 220.251V248.321C285.022 249.4 284.147 250.275 283.068 250.275H277.661C276.582 250.275 275.707 249.4 275.707 248.321V220.251Z" fill="#212F40"/>
<path d="M289.418 227.09C289.418 224.518 291.503 222.432 294.075 222.432C296.648 222.432 298.733 224.518 298.733 227.09V248.321C298.733 249.4 297.858 250.275 296.779 250.275H291.372C290.293 250.275 289.418 249.4 289.418 248.321V227.09Z" fill="#212F40"/>
<path d="M303.129 203.155C303.129 200.583 305.214 198.498 307.786 198.498C310.358 198.498 312.444 200.583 312.444 203.155V248.321C312.444 249.4 311.569 250.275 310.49 250.275H305.083C304.004 250.275 303.129 249.4 303.129 248.321V203.155Z" fill="#212F40"/>
<path d="M316.84 223.671C316.84 221.098 318.925 219.013 321.497 219.013C324.069 219.013 326.154 221.098 326.154 223.671V248.321C326.154 249.4 325.28 250.275 324.201 250.275H318.794C317.714 250.275 316.84 249.4 316.84 248.321V223.671Z" fill="#212F40"/>
<path d="M330.551 213.901C330.551 211.329 332.636 209.244 335.208 209.244C337.78 209.244 339.865 211.329 339.865 213.901V248.321C339.865 249.4 338.99 250.275 337.911 250.275H332.504C331.425 250.275 330.551 249.4 330.551 248.321V213.901Z" fill="#212F40"/>
<path d="M357.972 220.251C357.972 217.679 360.057 215.594 362.63 215.594C365.202 215.594 367.287 217.679 367.287 220.251V248.321C367.287 249.4 366.412 250.275 365.333 250.275H359.926C358.847 250.275 357.972 249.4 357.972 248.321V220.251Z" fill="#212F40"/>
<path d="M371.683 227.09C371.683 224.518 373.768 222.432 376.34 222.432C378.913 222.432 380.998 224.518 380.998 227.09V248.321C380.998 249.4 380.123 250.275 379.044 250.275H373.637C372.558 250.275 371.683 249.4 371.683 248.321V227.09Z" fill="#212F40"/>
<path d="M385.394 203.155C385.394 200.583 387.479 198.498 390.051 198.498C392.623 198.498 394.709 200.583 394.709 203.155V248.321C394.709 249.4 393.834 250.275 392.755 250.275H387.348C386.269 250.275 385.394 249.4 385.394 248.321V203.155Z" fill="#212F40"/>
<path d="M399.105 223.671C399.105 221.098 401.19 219.013 403.762 219.013C406.334 219.013 408.419 221.098 408.419 223.671V248.321C408.419 249.4 407.545 250.275 406.466 250.275H401.059C399.98 250.275 399.105 249.4 399.105 248.321V223.671Z" fill="#212F40"/>
<path d="M412.816 213.901C412.816 211.329 414.901 209.244 417.473 209.244C420.045 209.244 422.13 211.329 422.13 213.901V248.321C422.13 249.4 421.255 250.275 420.176 250.275H414.769C413.69 250.275 412.816 249.4 412.816 248.321V213.901Z" fill="#212F40"/>
<path d="M440.237 220.251C440.237 217.679 442.322 215.594 444.895 215.594C447.467 215.594 449.552 217.679 449.552 220.251V248.321C449.552 249.4 448.677 250.275 447.598 250.275H442.191C441.112 250.275 440.237 249.4 440.237 248.321V220.251Z" fill="#212F40"/>
<path d="M453.948 227.09C453.948 224.518 456.033 222.432 458.605 222.432C461.178 222.432 463.263 224.518 463.263 227.09V248.321C463.263 249.4 462.388 250.275 461.309 250.275H455.902C454.823 250.275 453.948 249.4 453.948 248.321V227.09Z" fill="#212F40"/>
</g>
</g>
<rect x="211.343" y="103.708" width="263.204" height="145.246" rx="27.7289" stroke="#D0D1D3" stroke-width="0.880282"/>
<rect opacity="0.1" x="272.523" y="48.6904" width="72.1831" height="31.6901" rx="10.5634" fill="url(#paint5_linear_1_1605)"/>
</g>
<g filter="url(#filter2_d_1_1605)">
<rect x="369.592" y="17" width="299.296" height="250" rx="8" fill="white"/>
<rect x="369.592" y="17" width="299.296" height="250" rx="8" fill="url(#paint6_linear_1_1605)"/>
<rect x="370.032" y="17.4401" width="298.415" height="249.12" rx="7.55986" stroke="#D0D1D3" stroke-width="0.880282"/>
<g clip-path="url(#clip4_1_1605)">
<path d="M427.811 89.183H397.641C395.727 89.183 394.16 87.6166 394.16 85.7019V41.6078C394.16 39.6932 395.727 38.1267 397.641 38.1267H418.528L431.292 50.8908V85.7019C431.292 87.6166 429.726 89.183 427.811 89.183Z" fill="#00AD3C"/>
<path d="M418.528 38.1267L431.292 50.8908H418.528V38.1267Z" fill="#00831E"/>
<path d="M401.123 58.1423V74.3875H424.331V58.1423H401.123ZM411.277 71.4865H404.024V67.7154H411.277V71.4865ZM411.277 64.8145H404.024V61.0433H411.277V64.8145ZM421.43 71.4865H414.178V67.7154H421.43V71.4865ZM421.43 64.8145H414.178V61.0433H421.43V64.8145Z" fill="#FBFFFF"/>
</g>
<g clip-path="url(#clip5_1_1605)">
<rect x="387.197" y="103.268" width="264.085" height="146.127" rx="28.169" fill="url(#paint7_linear_1_1605)"/>
<g opacity="0.2">
<g opacity="0.5">
<path d="M397.161 139.958C397.161 137.385 399.246 135.3 401.818 135.3C404.39 135.3 406.475 137.385 406.475 139.958V174.377C406.475 175.456 405.601 176.331 404.522 176.331H399.115C398.036 176.331 397.161 175.456 397.161 174.377V139.958Z" fill="#212F40"/>
<path d="M410.872 149.727C410.872 147.155 412.957 145.07 415.529 145.07C418.101 145.07 420.186 147.155 420.186 149.727V174.377C420.186 175.456 419.312 176.331 418.232 176.331H412.825C411.746 176.331 410.872 175.456 410.872 174.377V149.727Z" fill="#212F40"/>
<path d="M424.582 139.958C424.582 137.385 426.668 135.3 429.24 135.3C431.812 135.3 433.897 137.385 433.897 139.958V174.377C433.897 175.456 433.022 176.331 431.943 176.331H426.536C425.457 176.331 424.582 175.456 424.582 174.377V139.958Z" fill="#212F40"/>
<path d="M438.293 168.288C438.293 165.716 440.378 163.631 442.951 163.631C445.523 163.631 447.608 165.716 447.608 168.288V175.39C447.608 175.91 447.187 176.331 446.667 176.331H439.234C438.714 176.331 438.293 175.91 438.293 175.39V168.288Z" fill="#212F40"/>
<path d="M452.004 146.308C452.004 143.735 454.089 141.65 456.661 141.65C459.234 141.65 461.319 143.735 461.319 146.308V174.377C461.319 175.456 460.444 176.331 459.365 176.331H453.958C452.879 176.331 452.004 175.456 452.004 174.377V146.308Z" fill="#212F40"/>
<path d="M465.715 153.146C465.715 150.574 467.8 148.489 470.372 148.489C472.944 148.489 475.03 150.574 475.03 153.146V174.377C475.03 175.456 474.155 176.331 473.076 176.331H467.669C466.59 176.331 465.715 175.456 465.715 174.377V153.146Z" fill="#212F40"/>
<path d="M479.426 129.212C479.426 126.639 481.511 124.554 484.083 124.554C486.655 124.554 488.74 126.639 488.74 129.212V174.377C488.74 175.456 487.866 176.331 486.787 176.331H481.38C480.301 176.331 479.426 175.456 479.426 174.377V129.212Z" fill="#212F40"/>
<path d="M493.137 149.727C493.137 147.155 495.222 145.07 497.794 145.07C500.366 145.07 502.451 147.155 502.451 149.727V174.377C502.451 175.456 501.577 176.331 500.498 176.331H495.09C494.011 176.331 493.137 175.456 493.137 174.377V149.727Z" fill="#212F40"/>
<path d="M506.847 139.958C506.847 137.385 508.933 135.3 511.505 135.3C514.077 135.3 516.162 137.385 516.162 139.958V174.377C516.162 175.456 515.287 176.331 514.208 176.331H508.801C507.722 176.331 506.847 175.456 506.847 174.377V139.958Z" fill="#212F40"/>
<path d="M520.558 168.288C520.558 165.716 522.644 163.631 525.216 163.631C527.788 163.631 529.873 165.716 529.873 168.288V175.39C529.873 175.91 529.452 176.331 528.932 176.331H521.499C520.98 176.331 520.558 175.91 520.558 175.39V168.288Z" fill="#212F40"/>
<path d="M534.269 146.308C534.269 143.735 536.354 141.65 538.927 141.65C541.499 141.65 543.584 143.735 543.584 146.308V174.377C543.584 175.456 542.709 176.331 541.63 176.331H536.223C535.144 176.331 534.269 175.456 534.269 174.377V146.308Z" fill="#212F40"/>
<path d="M547.98 153.146C547.98 150.574 550.065 148.489 552.637 148.489C555.21 148.489 557.295 150.574 557.295 153.146V174.377C557.295 175.456 556.42 176.331 555.341 176.331H549.934C548.855 176.331 547.98 175.456 547.98 174.377V153.146Z" fill="#212F40"/>
<path d="M561.691 129.212C561.691 126.639 563.776 124.554 566.348 124.554C568.92 124.554 571.006 126.639 571.006 129.212V174.377C571.006 175.456 570.131 176.331 569.052 176.331H563.645C562.566 176.331 561.691 175.456 561.691 174.377V129.212Z" fill="#212F40"/>
<path d="M575.402 149.727C575.402 147.155 577.487 145.07 580.059 145.07C582.631 145.07 584.716 147.155 584.716 149.727V174.377C584.716 175.456 583.842 176.331 582.763 176.331H577.356C576.276 176.331 575.402 175.456 575.402 174.377V149.727Z" fill="#212F40"/>
<path d="M589.113 139.958C589.113 137.385 591.198 135.3 593.77 135.3C596.342 135.3 598.427 137.385 598.427 139.958V174.377C598.427 175.456 597.552 176.331 596.473 176.331H591.066C589.987 176.331 589.113 175.456 589.113 174.377V139.958Z" fill="#212F40"/>
<path d="M602.823 168.288C602.823 165.716 604.909 163.631 607.481 163.631C610.053 163.631 612.138 165.716 612.138 168.288V175.39C612.138 175.91 611.717 176.331 611.197 176.331H603.764C603.245 176.331 602.823 175.91 602.823 175.39V168.288Z" fill="#212F40"/>
<path d="M616.534 146.308C616.534 143.735 618.619 141.65 621.192 141.65C623.764 141.65 625.849 143.735 625.849 146.308V174.377C625.849 175.456 624.974 176.331 623.895 176.331H618.488C617.409 176.331 616.534 175.456 616.534 174.377V146.308Z" fill="#212F40"/>
<path d="M630.245 153.146C630.245 150.574 632.33 148.489 634.902 148.489C637.475 148.489 639.56 150.574 639.56 153.146V174.377C639.56 175.456 638.685 176.331 637.606 176.331H632.199C631.12 176.331 630.245 175.456 630.245 174.377V153.146Z" fill="#212F40"/>
</g>
<path d="M397.762 233.621L427.615 209.512C428.144 209.084 428.898 209.077 429.435 209.494L464.057 236.384C464.579 236.789 465.307 236.795 465.836 236.398L532.048 186.676C532.57 186.284 533.288 186.285 533.809 186.677L566.915 211.616C567.406 211.986 568.076 212.01 568.592 211.676L590.363 197.598C590.871 197.269 591.528 197.286 592.017 197.64L638.959 231.551" stroke="#212F40" stroke-width="1.95384" stroke-linecap="round"/>
</g>
</g>
<rect x="387.638" y="103.708" width="263.204" height="145.246" rx="27.7289" stroke="#D0D1D3" stroke-width="0.880282"/>
<rect opacity="0.1" x="448.816" y="48.6904" width="156.69" height="31.6901" rx="10.5634" fill="url(#paint8_linear_1_1605)"/>
</g>
<g filter="url(#filter3_d_1_1605)">
<rect x="545.887" y="17" width="299.296" height="250" rx="8" fill="white"/>
<rect x="545.887" y="17" width="299.296" height="250" rx="8" fill="url(#paint9_linear_1_1605)"/>
<rect x="546.327" y="17.4401" width="298.415" height="249.12" rx="7.55986" stroke="#D0D1D3" stroke-width="0.880282"/>
<g clip-path="url(#clip6_1_1605)">
<path d="M566.974 82.5278H575.096V63.2826L563.493 54.7921V79.1316C563.493 81.0108 565.053 82.5278 566.974 82.5278Z" fill="#4285F4"/>
<path d="M602.945 82.5278H611.068C612.994 82.5278 614.549 81.0052 614.549 79.1316V54.7921L602.945 63.2826" fill="#34A853"/>
<path d="M602.946 48.5651V63.282L614.549 54.7915V50.2632C614.549 46.0633 609.635 43.6689 606.195 46.1878" fill="#FBBC04"/>
<path d="M575.096 63.2834V48.5665L589.02 58.7552L602.945 48.5665V63.2834L589.02 73.4721" fill="#EA4335"/>
<path d="M563.492 50.2632V54.7915L575.096 63.282V48.5651L571.847 46.1878C568.401 43.6689 563.492 46.0633 563.492 50.2632Z" fill="#C5221F"/>
</g>
<g clip-path="url(#clip7_1_1605)">
<rect x="563.492" y="103.268" width="264.085" height="146.127" rx="28.169" fill="url(#paint10_linear_1_1605)"/>
<g opacity="0.2">
<path d="M574.055 163.198L603.908 139.089C604.437 138.662 605.191 138.655 605.728 139.072L640.35 165.961C640.872 166.367 641.6 166.373 642.129 165.976L708.341 116.253C708.863 115.861 709.581 115.862 710.102 116.255L743.208 141.194C743.699 141.564 744.369 141.588 744.885 141.254L766.656 127.175C767.164 126.847 767.821 126.864 768.31 127.218L815.252 161.128" stroke="#212F40" stroke-width="1.95384" stroke-linecap="round"/>
<path d="M573.454 213.901C573.454 211.329 575.539 209.244 578.111 209.244C580.683 209.244 582.768 211.329 582.768 213.901V248.321C582.768 249.4 581.894 250.275 580.815 250.275H575.408C574.328 250.275 573.454 249.4 573.454 248.321V213.901Z" fill="#212F40"/>
<path d="M587.164 223.671C587.164 221.098 589.25 219.013 591.822 219.013C594.394 219.013 596.479 221.098 596.479 223.671V248.321C596.479 249.4 595.604 250.275 594.525 250.275H589.118C588.039 250.275 587.164 249.4 587.164 248.321V223.671Z" fill="#212F40"/>
<path d="M600.875 213.901C600.875 211.329 602.961 209.244 605.533 209.244C608.105 209.244 610.19 211.329 610.19 213.901V248.321C610.19 249.4 609.315 250.275 608.236 250.275H602.829C601.75 250.275 600.875 249.4 600.875 248.321V213.901Z" fill="#212F40"/>
<path d="M628.297 220.251C628.297 217.679 630.382 215.594 632.954 215.594C635.527 215.594 637.612 217.679 637.612 220.251V248.321C637.612 249.4 636.737 250.275 635.658 250.275H630.251C629.172 250.275 628.297 249.4 628.297 248.321V220.251Z" fill="#212F40"/>
<path d="M642.008 227.09C642.008 224.518 644.093 222.432 646.665 222.432C649.237 222.432 651.323 224.518 651.323 227.09V248.321C651.323 249.4 650.448 250.275 649.369 250.275H643.962C642.883 250.275 642.008 249.4 642.008 248.321V227.09Z" fill="#212F40"/>
<path d="M655.719 203.155C655.719 200.583 657.804 198.498 660.376 198.498C662.948 198.498 665.033 200.583 665.033 203.155V248.321C665.033 249.4 664.159 250.275 663.08 250.275H657.673C656.593 250.275 655.719 249.4 655.719 248.321V203.155Z" fill="#212F40"/>
<path d="M669.43 223.671C669.43 221.098 671.515 219.013 674.087 219.013C676.659 219.013 678.744 221.098 678.744 223.671V248.321C678.744 249.4 677.869 250.275 676.79 250.275H671.383C670.304 250.275 669.43 249.4 669.43 248.321V223.671Z" fill="#212F40"/>
<path d="M683.14 213.901C683.14 211.329 685.226 209.244 687.798 209.244C690.37 209.244 692.455 211.329 692.455 213.901V248.321C692.455 249.4 691.58 250.275 690.501 250.275H685.094C684.015 250.275 683.14 249.4 683.14 248.321V213.901Z" fill="#212F40"/>
<path d="M710.562 220.251C710.562 217.679 712.647 215.594 715.219 215.594C717.792 215.594 719.877 217.679 719.877 220.251V248.321C719.877 249.4 719.002 250.275 717.923 250.275H712.516C711.437 250.275 710.562 249.4 710.562 248.321V220.251Z" fill="#212F40"/>
<path d="M724.273 227.09C724.273 224.518 726.358 222.432 728.93 222.432C731.502 222.432 733.588 224.518 733.588 227.09V248.321C733.588 249.4 732.713 250.275 731.634 250.275H726.227C725.148 250.275 724.273 249.4 724.273 248.321V227.09Z" fill="#212F40"/>
<path d="M737.984 203.155C737.984 200.583 740.069 198.498 742.641 198.498C745.213 198.498 747.298 200.583 747.298 203.155V248.321C747.298 249.4 746.424 250.275 745.345 250.275H739.938C738.859 250.275 737.984 249.4 737.984 248.321V203.155Z" fill="#212F40"/>
<path d="M751.695 223.671C751.695 221.098 753.78 219.013 756.352 219.013C758.924 219.013 761.009 221.098 761.009 223.671V248.321C761.009 249.4 760.135 250.275 759.055 250.275H753.648C752.569 250.275 751.695 249.4 751.695 248.321V223.671Z" fill="#212F40"/>
<path d="M765.405 213.901C765.405 211.329 767.491 209.244 770.063 209.244C772.635 209.244 774.72 211.329 774.72 213.901V248.321C774.72 249.4 773.845 250.275 772.766 250.275H767.359C766.28 250.275 765.405 249.4 765.405 248.321V213.901Z" fill="#212F40"/>
<path d="M792.827 220.251C792.827 217.679 794.912 215.594 797.484 215.594C800.057 215.594 802.142 217.679 802.142 220.251V248.321C802.142 249.4 801.267 250.275 800.188 250.275H794.781C793.702 250.275 792.827 249.4 792.827 248.321V220.251Z" fill="#212F40"/>
<path d="M806.538 227.09C806.538 224.518 808.623 222.432 811.195 222.432C813.767 222.432 815.853 224.518 815.853 227.09V248.321C815.853 249.4 814.978 250.275 813.899 250.275H808.492C807.413 250.275 806.538 249.4 806.538 248.321V227.09Z" fill="#212F40"/>
</g>
</g>
<rect x="563.933" y="103.708" width="263.204" height="145.246" rx="27.7289" stroke="#D0D1D3" stroke-width="0.880282"/>
<rect opacity="0.1" x="625.113" y="48.6904" width="121.479" height="31.6901" rx="10.5634" fill="url(#paint11_linear_1_1605)"/>
</g>
<g filter="url(#filter4_d_1_1605)">
<rect x="722.184" y="17" width="299.296" height="250" rx="8" fill="white"/>
<rect x="722.184" y="17" width="299.296" height="250" rx="8" fill="url(#paint12_linear_1_1605)"/>
<rect x="722.624" y="17.4401" width="298.415" height="249.12" rx="7.55986" stroke="#D0D1D3" stroke-width="0.880282"/>
<g clip-path="url(#clip8_1_1605)">
<path d="M778.752 50.2174L766.66 48.8739L751.881 50.2174L750.537 63.6534L751.88 77.0894L765.316 78.7689L778.752 77.0894L780.096 63.3177L778.752 50.2174Z" fill="white"/>
<path d="M757.392 71.0651C756.387 70.3865 755.692 69.3958 755.312 68.0857L757.643 67.1251C757.855 67.9312 758.225 68.5559 758.752 68.9993C759.276 69.4428 759.914 69.661 760.66 69.661C761.422 69.661 762.077 69.4292 762.625 68.9657C763.172 68.5021 763.448 67.9108 763.448 67.1955C763.448 66.4634 763.159 65.8653 762.581 65.4019C762.003 64.9386 761.278 64.7065 760.411 64.7065H759.064V62.399H760.273C761.019 62.399 761.647 62.1976 762.158 61.7945C762.668 61.3914 762.924 60.8405 762.924 60.1385C762.924 59.5138 762.695 59.0166 762.239 58.6438C761.782 58.2711 761.204 58.083 760.502 58.083C759.817 58.083 759.272 58.2645 758.869 58.6306C758.466 58.9966 758.174 59.4467 757.989 59.9774L755.682 59.0168C755.987 58.1501 756.549 57.3843 757.371 56.7226C758.194 56.0609 759.246 55.7283 760.522 55.7283C761.466 55.7283 762.316 55.9098 763.068 56.2759C763.821 56.6419 764.412 57.1492 764.838 57.794C765.265 58.4422 765.477 59.1679 765.477 59.9739C765.477 60.7969 765.278 61.492 764.882 62.0631C764.486 62.6342 763.998 63.0707 763.421 63.3765V63.5141C764.183 63.8332 764.805 64.3203 765.295 64.9753C765.782 65.6304 766.027 66.4131 766.027 67.3267C766.027 68.2404 765.795 69.0565 765.332 69.7721C764.868 70.4876 764.227 71.0518 763.414 71.4615C762.598 71.8713 761.681 72.0796 760.663 72.0796C759.484 72.0829 758.396 71.7436 757.392 71.0651Z" fill="#1A73E8"/>
<path d="M771.699 59.4962L769.153 61.3469L767.873 59.4055L772.465 56.0935H774.225V71.716H771.699V59.4962Z" fill="#1A73E8"/>
<path d="M778.753 89.1814L790.845 77.0892L784.799 74.4021L778.753 77.0892L776.066 83.1353L778.753 89.1814Z" fill="#EA4335"/>
<path d="M749.195 83.1367L751.882 89.1828H778.754V77.0906H751.882L749.195 83.1367Z" fill="#34A853"/>
<path d="M743.819 38.1267C741.593 38.1267 739.789 39.9305 739.789 42.1574V77.0906L745.835 79.7777L751.881 77.0906V50.2189H778.753L781.44 44.1728L778.753 38.1267H743.819Z" fill="#4285F4"/>
<path d="M739.789 77.0906V85.1521C739.789 87.3792 741.593 89.1828 743.819 89.1828H751.881V77.0906H739.789Z" fill="#188038"/>
<path d="M778.754 50.2181V77.0898H790.846V50.2181L784.8 47.531L778.754 50.2181Z" fill="#FBBC04"/>
<path d="M790.846 50.2189V42.1574C790.846 39.9303 789.042 38.1267 786.815 38.1267H778.754V50.2189H790.846Z" fill="#1967D2"/>
</g>
<g clip-path="url(#clip9_1_1605)">
<rect x="739.789" y="103.268" width="264.085" height="146.127" rx="28.169" fill="url(#paint13_linear_1_1605)"/>
<g opacity="0.2">
<g opacity="0.5">
<path d="M749.75 139.958C749.75 137.385 751.836 135.3 754.408 135.3C756.98 135.3 759.065 137.385 759.065 139.958V174.377C759.065 175.456 758.19 176.331 757.111 176.331H751.704C750.625 176.331 749.75 175.456 749.75 174.377V139.958Z" fill="#212F40"/>
<path d="M763.461 149.727C763.461 147.155 765.546 145.07 768.119 145.07C770.691 145.07 772.776 147.155 772.776 149.727V174.377C772.776 175.456 771.901 176.331 770.822 176.331H765.415C764.336 176.331 763.461 175.456 763.461 174.377V149.727Z" fill="#212F40"/>
<path d="M777.172 139.958C777.172 137.385 779.257 135.3 781.829 135.3C784.402 135.3 786.487 137.385 786.487 139.958V174.377C786.487 175.456 785.612 176.331 784.533 176.331H779.126C778.047 176.331 777.172 175.456 777.172 174.377V139.958Z" fill="#212F40"/>
<path d="M790.883 168.288C790.883 165.716 792.968 163.631 795.54 163.631C798.112 163.631 800.198 165.716 800.198 168.288V175.39C800.198 175.91 799.776 176.331 799.257 176.331H791.824C791.304 176.331 790.883 175.91 790.883 175.39V168.288Z" fill="#212F40"/>
<path d="M804.594 146.308C804.594 143.735 806.679 141.65 809.251 141.65C811.823 141.65 813.908 143.735 813.908 146.308V174.377C813.908 175.456 813.034 176.331 811.955 176.331H806.548C805.469 176.331 804.594 175.456 804.594 174.377V146.308Z" fill="#212F40"/>
<path d="M818.305 153.146C818.305 150.574 820.39 148.489 822.962 148.489C825.534 148.489 827.619 150.574 827.619 153.146V174.377C827.619 175.456 826.744 176.331 825.665 176.331H820.258C819.179 176.331 818.305 175.456 818.305 174.377V153.146Z" fill="#212F40"/>
<path d="M832.015 129.212C832.015 126.639 834.101 124.554 836.673 124.554C839.245 124.554 841.33 126.639 841.33 129.212V174.377C841.33 175.456 840.455 176.331 839.376 176.331H833.969C832.89 176.331 832.015 175.456 832.015 174.377V129.212Z" fill="#212F40"/>
<path d="M845.726 149.727C845.726 147.155 847.811 145.07 850.384 145.07C852.956 145.07 855.041 147.155 855.041 149.727V174.377C855.041 175.456 854.166 176.331 853.087 176.331H847.68C846.601 176.331 845.726 175.456 845.726 174.377V149.727Z" fill="#212F40"/>
<path d="M859.437 139.958C859.437 137.385 861.522 135.3 864.094 135.3C866.667 135.3 868.752 137.385 868.752 139.958V174.377C868.752 175.456 867.877 176.331 866.798 176.331H861.391C860.312 176.331 859.437 175.456 859.437 174.377V139.958Z" fill="#212F40"/>
<path d="M873.148 168.288C873.148 165.716 875.233 163.631 877.805 163.631C880.377 163.631 882.463 165.716 882.463 168.288V175.39C882.463 175.91 882.041 176.331 881.522 176.331H874.089C873.569 176.331 873.148 175.91 873.148 175.39V168.288Z" fill="#212F40"/>
<path d="M886.859 146.308C886.859 143.735 888.944 141.65 891.516 141.65C894.088 141.65 896.173 143.735 896.173 146.308V174.377C896.173 175.456 895.299 176.331 894.22 176.331H888.813C887.734 176.331 886.859 175.456 886.859 174.377V146.308Z" fill="#212F40"/>
<path d="M900.57 153.146C900.57 150.574 902.655 148.489 905.227 148.489C907.799 148.489 909.884 150.574 909.884 153.146V174.377C909.884 175.456 909.01 176.331 907.93 176.331H902.523C901.444 176.331 900.57 175.456 900.57 174.377V153.146Z" fill="#212F40"/>
<path d="M914.281 129.212C914.281 126.639 916.366 124.554 918.938 124.554C921.51 124.554 923.595 126.639 923.595 129.212V174.377C923.595 175.456 922.72 176.331 921.641 176.331H916.234C915.155 176.331 914.281 175.456 914.281 174.377V129.212Z" fill="#212F40"/>
<path d="M927.991 149.727C927.991 147.155 930.076 145.07 932.649 145.07C935.221 145.07 937.306 147.155 937.306 149.727V174.377C937.306 175.456 936.431 176.331 935.352 176.331H929.945C928.866 176.331 927.991 175.456 927.991 174.377V149.727Z" fill="#212F40"/>
<path d="M941.702 139.958C941.702 137.385 943.787 135.3 946.359 135.3C948.932 135.3 951.017 137.385 951.017 139.958V174.377C951.017 175.456 950.142 176.331 949.063 176.331H943.656C942.577 176.331 941.702 175.456 941.702 174.377V139.958Z" fill="#212F40"/>
<path d="M955.413 168.288C955.413 165.716 957.498 163.631 960.07 163.631C962.642 163.631 964.728 165.716 964.728 168.288V175.39C964.728 175.91 964.306 176.331 963.787 176.331H956.354C955.834 176.331 955.413 175.91 955.413 175.39V168.288Z" fill="#212F40"/>
<path d="M969.124 146.308C969.124 143.735 971.209 141.65 973.781 141.65C976.353 141.65 978.438 143.735 978.438 146.308V174.377C978.438 175.456 977.564 176.331 976.485 176.331H971.078C969.999 176.331 969.124 175.456 969.124 174.377V146.308Z" fill="#212F40"/>
<path d="M982.835 153.146C982.835 150.574 984.92 148.489 987.492 148.489C990.064 148.489 992.149 150.574 992.149 153.146V174.377C992.149 175.456 991.275 176.331 990.196 176.331H984.789C983.709 176.331 982.835 175.456 982.835 174.377V153.146Z" fill="#212F40"/>
</g>
<path d="M750.351 233.621L780.205 209.512C780.734 209.084 781.487 209.077 782.024 209.494L816.646 236.384C817.168 236.789 817.897 236.795 818.425 236.398L884.637 186.676C885.159 186.284 885.878 186.284 886.399 186.677L919.505 211.616C919.996 211.986 920.666 212.01 921.182 211.676L942.953 197.597C943.46 197.269 944.117 197.286 944.607 197.64L991.548 231.551" stroke="#212F40" stroke-width="1.95384" stroke-linecap="round"/>
</g>
</g>
<rect x="740.229" y="103.708" width="263.204" height="145.246" rx="27.7289" stroke="#D0D1D3" stroke-width="0.880282"/>
<rect opacity="0.1" x="801.41" y="48.6904" width="72.1831" height="31.6901" rx="10.5634" fill="url(#paint14_linear_1_1605)"/>
</g>
<g filter="url(#filter5_d_1_1605)">
<rect x="898.48" y="17" width="299.296" height="250" rx="8" fill="white"/>
<rect x="898.48" y="17" width="299.296" height="250" rx="8" fill="url(#paint15_linear_1_1605)"/>
<rect x="898.921" y="17.4401" width="298.415" height="249.12" rx="7.55986" stroke="#D0D1D3" stroke-width="0.880282"/>
<g clip-path="url(#clip10_1_1605)">
<path d="M919.946 80.7455L922.197 84.6347C922.665 85.4535 923.338 86.0968 924.127 86.5646L932.169 72.6455H916.086C916.086 73.552 916.32 74.4585 916.788 75.2773L919.946 80.7455Z" fill="#0066DA"/>
<path d="M941.614 56.2687L933.573 42.3496C932.783 42.8175 932.11 43.4608 931.643 44.2796L916.788 70.0124C916.328 70.8135 916.087 71.7208 916.086 72.6442H932.169L941.614 56.2687Z" fill="#00AC47"/>
<path d="M959.101 86.5646C959.891 86.0968 960.563 85.4535 961.031 84.6347L961.967 83.0264L966.441 75.2773C966.909 74.4585 967.143 73.552 967.143 72.6455H951.059L954.481 79.3711L959.101 86.5646Z" fill="#EA4335"/>
<path d="M941.614 56.2684L949.655 42.3493C948.866 41.8814 947.959 41.6475 947.024 41.6475H936.204C935.268 41.6475 934.362 41.9106 933.572 42.3493L941.614 56.2684Z" fill="#00832D"/>
<path d="M951.059 72.6455H932.168L924.127 86.5646C924.916 87.0325 925.823 87.2665 926.759 87.2665H956.468C957.404 87.2665 958.311 87.0033 959.1 86.5646L951.059 72.6455Z" fill="#2684FC"/>
<path d="M959.012 57.146L951.585 44.2796C951.117 43.4608 950.444 42.8175 949.655 42.3496L941.613 56.2687L951.058 72.6442H967.112C967.112 71.7377 966.878 70.8312 966.41 70.0124L959.012 57.146Z" fill="#FFBA00"/>
</g>
<g clip-path="url(#clip11_1_1605)">
<rect x="916.086" y="103.268" width="264.085" height="146.127" rx="28.169" fill="url(#paint16_linear_1_1605)"/>
<g opacity="0.2">
<g opacity="0.5">
<path d="M926.047 139.286C926.047 136.714 928.132 134.629 930.705 134.629C933.277 134.629 935.362 136.714 935.362 139.286V202.675C935.362 203.754 934.487 204.629 933.408 204.629H928.001C926.922 204.629 926.047 203.754 926.047 202.675V139.286Z" fill="#212F40"/>
<path d="M939.758 155.286C939.758 152.714 941.843 150.629 944.415 150.629C946.988 150.629 949.073 152.714 949.073 155.286V202.675C949.073 203.754 948.198 204.629 947.119 204.629H941.712C940.633 204.629 939.758 203.754 939.758 202.675V155.286Z" fill="#212F40"/>
<path d="M953.469 139.286C953.469 136.714 955.554 134.629 958.126 134.629C960.698 134.629 962.784 136.714 962.784 139.286V202.675C962.784 203.754 961.909 204.629 960.83 204.629H955.423C954.344 204.629 953.469 203.754 953.469 202.675V139.286Z" fill="#212F40"/>
<path d="M967.18 186.286C967.18 183.714 969.265 181.629 971.837 181.629C974.409 181.629 976.495 183.714 976.495 186.286V202.925C976.495 203.866 975.732 204.629 974.791 204.629H968.884C967.943 204.629 967.18 203.866 967.18 202.925V186.286Z" fill="#212F40"/>
<path d="M980.891 149.286C980.891 146.714 982.976 144.629 985.548 144.629C988.12 144.629 990.205 146.714 990.205 149.286V202.675C990.205 203.754 989.331 204.629 988.251 204.629H982.844C981.765 204.629 980.891 203.754 980.891 202.675V149.286Z" fill="#212F40"/>
<path d="M994.601 161.286C994.601 158.714 996.687 156.629 999.259 156.629C1001.83 156.629 1003.92 158.714 1003.92 161.286V202.675C1003.92 203.754 1003.04 204.629 1001.96 204.629H996.555C995.476 204.629 994.601 203.754 994.601 202.675V161.286Z" fill="#212F40"/>
<path d="M1008.31 120.287C1008.31 117.714 1010.4 115.629 1012.97 115.629C1015.54 115.629 1017.63 117.714 1017.63 120.286V202.675C1017.63 203.754 1016.75 204.629 1015.67 204.629H1010.27C1009.19 204.629 1008.31 203.754 1008.31 202.675V120.287Z" fill="#212F40"/>
<path d="M1022.02 155.286C1022.02 152.714 1024.11 150.629 1026.68 150.629C1029.25 150.629 1031.34 152.714 1031.34 155.286V202.675C1031.34 203.754 1030.46 204.629 1029.38 204.629H1023.98C1022.9 204.629 1022.02 203.754 1022.02 202.675V155.286Z" fill="#212F40"/>
<path d="M1035.73 139.286C1035.73 136.714 1037.82 134.629 1040.39 134.629C1042.96 134.629 1045.05 136.714 1045.05 139.286V202.675C1045.05 203.754 1044.17 204.629 1043.09 204.629H1037.69C1036.61 204.629 1035.73 203.754 1035.73 202.675V139.286Z" fill="#212F40"/>
<path d="M1049.44 186.286C1049.44 183.714 1051.53 181.629 1054.1 181.629C1056.67 181.629 1058.76 183.714 1058.76 186.286V202.925C1058.76 203.866 1058 204.629 1057.06 204.629H1051.15C1050.21 204.629 1049.44 203.866 1049.44 202.925V186.286Z" fill="#212F40"/>
<path d="M1063.16 149.286C1063.16 146.714 1065.24 144.629 1067.81 144.629C1070.39 144.629 1072.47 146.714 1072.47 149.286V202.675C1072.47 203.754 1071.6 204.629 1070.52 204.629H1065.11C1064.03 204.629 1063.16 203.754 1063.16 202.675V149.286Z" fill="#212F40"/>
<path d="M1076.87 161.286C1076.87 158.714 1078.95 156.629 1081.52 156.629C1084.1 156.629 1086.18 158.714 1086.18 161.287V202.675C1086.18 203.754 1085.31 204.629 1084.23 204.629H1078.82C1077.74 204.629 1076.87 203.754 1076.87 202.675V161.286Z" fill="#212F40"/>
<path d="M1090.58 120.287C1090.58 117.714 1092.66 115.629 1095.23 115.629C1097.81 115.629 1099.89 117.714 1099.89 120.287V202.675C1099.89 203.754 1099.02 204.629 1097.94 204.629H1092.53C1091.45 204.629 1090.58 203.754 1090.58 202.675V120.287Z" fill="#212F40"/>
<path d="M1104.29 155.286C1104.29 152.714 1106.37 150.629 1108.95 150.629C1111.52 150.629 1113.6 152.714 1113.6 155.287V202.675C1113.6 203.754 1112.73 204.629 1111.65 204.629H1106.24C1105.16 204.629 1104.29 203.754 1104.29 202.675V155.286Z" fill="#212F40"/>
<path d="M1118 139.286C1118 136.714 1120.08 134.629 1122.66 134.629C1125.23 134.629 1127.31 136.714 1127.31 139.287V202.675C1127.31 203.754 1126.44 204.629 1125.36 204.629H1119.95C1118.87 204.629 1118 203.754 1118 202.675V139.286Z" fill="#212F40"/>
<path d="M1131.71 186.287C1131.71 183.714 1133.8 181.629 1136.37 181.629C1138.94 181.629 1141.02 183.714 1141.02 186.287V202.925C1141.02 203.866 1140.26 204.629 1139.32 204.629H1133.41C1132.47 204.629 1131.71 203.866 1131.71 202.925V186.287Z" fill="#212F40"/>
<path d="M1145.42 149.286C1145.42 146.714 1147.51 144.629 1150.08 144.629C1152.65 144.629 1154.74 146.714 1154.74 149.287V202.675C1154.74 203.754 1153.86 204.629 1152.78 204.629H1147.37C1146.3 204.629 1145.42 203.754 1145.42 202.675V149.286Z" fill="#212F40"/>
<path d="M1159.13 161.286C1159.13 158.714 1161.22 156.629 1163.79 156.629C1166.36 156.629 1168.45 158.714 1168.45 161.287V202.675C1168.45 203.754 1167.57 204.629 1166.49 204.629H1161.09C1160.01 204.629 1159.13 203.754 1159.13 202.675V161.286Z" fill="#212F40"/>
</g>
<path d="M926.648 252.438L956.502 228.328C957.031 227.901 957.784 227.894 958.321 228.311L992.943 255.201C993.465 255.606 994.194 255.612 994.722 255.215L1060.93 205.493C1061.46 205.101 1062.17 205.101 1062.7 205.494L1095.8 230.433C1096.29 230.803 1096.96 230.827 1097.48 230.493L1119.25 216.414C1119.76 216.086 1120.41 216.103 1120.9 216.457L1167.85 250.368" stroke="#212F40" stroke-width="1.95384" stroke-linecap="round"/>
</g>
</g>
<rect x="916.526" y="103.708" width="263.204" height="145.246" rx="27.7289" stroke="#D0D1D3" stroke-width="0.880282"/>
<rect opacity="0.1" x="977.707" y="48.6904" width="167.254" height="31.6901" rx="10.5634" fill="url(#paint17_linear_1_1605)"/>
</g>
<defs>
<filter id="filter0_b_1_1605" x="-39" y="-39" width="1294" height="788" filterUnits="userSpaceOnUse" color-interpolation-filters="sRGB">
<feFlood flood-opacity="0" result="BackgroundImageFix"/>
<feGaussianBlur in="BackgroundImageFix" stdDeviation="20"/>
<feComposite in2="SourceAlpha" operator="in" result="effect1_backgroundBlur_1_1605"/>
<feBlend mode="normal" in="SourceGraphic" in2="effect1_backgroundBlur_1_1605" result="shape"/>
</filter>
<filter id="filter1_d_1_1605" x="160.297" y="12" width="347.296" height="298" filterUnits="userSpaceOnUse" color-interpolation-filters="sRGB">
<feFlood flood-opacity="0" result="BackgroundImageFix"/>
<feColorMatrix in="SourceAlpha" type="matrix" values="0 0 0 0 0 0 0 0 0 0 0 0 0 0 0 0 0 0 127 0" result="hardAlpha"/>
<feOffset dx="-9" dy="19"/>
<feGaussianBlur stdDeviation="12"/>
<feComposite in2="hardAlpha" operator="out"/>
<feColorMatrix type="matrix" values="0 0 0 0 0 0 0 0 0 0 0 0 0 0 0 0 0 0 0.1 0"/>
<feBlend mode="normal" in2="BackgroundImageFix" result="effect1_dropShadow_1_1605"/>
<feBlend mode="normal" in="SourceGraphic" in2="effect1_dropShadow_1_1605" result="shape"/>
</filter>
<filter id="filter2_d_1_1605" x="336.592" y="12" width="347.296" height="298" filterUnits="userSpaceOnUse" color-interpolation-filters="sRGB">
<feFlood flood-opacity="0" result="BackgroundImageFix"/>
<feColorMatrix in="SourceAlpha" type="matrix" values="0 0 0 0 0 0 0 0 0 0 0 0 0 0 0 0 0 0 127 0" result="hardAlpha"/>
<feOffset dx="-9" dy="19"/>
<feGaussianBlur stdDeviation="12"/>
<feComposite in2="hardAlpha" operator="out"/>
<feColorMatrix type="matrix" values="0 0 0 0 0 0 0 0 0 0 0 0 0 0 0 0 0 0 0.1 0"/>
<feBlend mode="normal" in2="BackgroundImageFix" result="effect1_dropShadow_1_1605"/>
<feBlend mode="normal" in="SourceGraphic" in2="effect1_dropShadow_1_1605" result="shape"/>
</filter>
<filter id="filter3_d_1_1605" x="512.887" y="12" width="347.296" height="298" filterUnits="userSpaceOnUse" color-interpolation-filters="sRGB">
<feFlood flood-opacity="0" result="BackgroundImageFix"/>
<feColorMatrix in="SourceAlpha" type="matrix" values="0 0 0 0 0 0 0 0 0 0 0 0 0 0 0 0 0 0 127 0" result="hardAlpha"/>
<feOffset dx="-9" dy="19"/>
<feGaussianBlur stdDeviation="12"/>
<feComposite in2="hardAlpha" operator="out"/>
<feColorMatrix type="matrix" values="0 0 0 0 0 0 0 0 0 0 0 0 0 0 0 0 0 0 0.1 0"/>
<feBlend mode="normal" in2="BackgroundImageFix" result="effect1_dropShadow_1_1605"/>
<feBlend mode="normal" in="SourceGraphic" in2="effect1_dropShadow_1_1605" result="shape"/>
</filter>
<filter id="filter4_d_1_1605" x="689.184" y="12" width="347.296" height="298" filterUnits="userSpaceOnUse" color-interpolation-filters="sRGB">
<feFlood flood-opacity="0" result="BackgroundImageFix"/>
<feColorMatrix in="SourceAlpha" type="matrix" values="0 0 0 0 0 0 0 0 0 0 0 0 0 0 0 0 0 0 127 0" result="hardAlpha"/>
<feOffset dx="-9" dy="19"/>
<feGaussianBlur stdDeviation="12"/>
<feComposite in2="hardAlpha" operator="out"/>
<feColorMatrix type="matrix" values="0 0 0 0 0 0 0 0 0 0 0 0 0 0 0 0 0 0 0.1 0"/>
<feBlend mode="normal" in2="BackgroundImageFix" result="effect1_dropShadow_1_1605"/>
<feBlend mode="normal" in="SourceGraphic" in2="effect1_dropShadow_1_1605" result="shape"/>
</filter>
<filter id="filter5_d_1_1605" x="865.48" y="12" width="347.296" height="298" filterUnits="userSpaceOnUse" color-interpolation-filters="sRGB">
<feFlood flood-opacity="0" result="BackgroundImageFix"/>
<feColorMatrix in="SourceAlpha" type="matrix" values="0 0 0 0 0 0 0 0 0 0 0 0 0 0 0 0 0 0 127 0" result="hardAlpha"/>
<feOffset dx="-9" dy="19"/>
<feGaussianBlur stdDeviation="12"/>
<feComposite in2="hardAlpha" operator="out"/>
<feColorMatrix type="matrix" values="0 0 0 0 0 0 0 0 0 0 0 0 0 0 0 0 0 0 0.1 0"/>
<feBlend mode="normal" in2="BackgroundImageFix" result="effect1_dropShadow_1_1605"/>
<feBlend mode="normal" in="SourceGraphic" in2="effect1_dropShadow_1_1605" result="shape"/>
</filter>
<linearGradient id="paint0_linear_1_1605" x1="166.648" y1="17" x2="166.648" y2="267" gradientUnits="userSpaceOnUse">
<stop stop-color="#F5F7FA"/>
<stop offset="1" stop-color="white" stop-opacity="0"/>
</linearGradient>
<linearGradient id="paint1_linear_1_1605" x1="166.648" y1="68.9366" x2="166.648" y2="249.394" gradientUnits="userSpaceOnUse">
<stop stop-color="white"/>
<stop offset="0.414818" stop-color="white" stop-opacity="0"/>
</linearGradient>
<linearGradient id="paint2_linear_1_1605" x1="96.2266" y1="64.5355" x2="168.41" y2="64.5355" gradientUnits="userSpaceOnUse">
<stop stop-color="#212F40" stop-opacity="0.7"/>
<stop offset="1" stop-color="#212F40" stop-opacity="0.1"/>
</linearGradient>
<linearGradient id="paint3_linear_1_1605" x1="342.945" y1="17" x2="342.945" y2="267" gradientUnits="userSpaceOnUse">
<stop stop-color="#F5F7FA"/>
<stop offset="1" stop-color="white" stop-opacity="0"/>
</linearGradient>
<linearGradient id="paint4_linear_1_1605" x1="342.945" y1="68.9366" x2="342.945" y2="249.394" gradientUnits="userSpaceOnUse">
<stop stop-color="white"/>
<stop offset="0.414818" stop-color="white" stop-opacity="0"/>
</linearGradient>
<linearGradient id="paint5_linear_1_1605" x1="272.523" y1="64.5355" x2="344.707" y2="64.5355" gradientUnits="userSpaceOnUse">
<stop stop-color="#212F40" stop-opacity="0.7"/>
<stop offset="1" stop-color="#212F40" stop-opacity="0.1"/>
</linearGradient>
<linearGradient id="paint6_linear_1_1605" x1="519.24" y1="17" x2="519.24" y2="267" gradientUnits="userSpaceOnUse">
<stop stop-color="#F5F7FA"/>
<stop offset="1" stop-color="white" stop-opacity="0"/>
</linearGradient>
<linearGradient id="paint7_linear_1_1605" x1="519.24" y1="68.9366" x2="519.24" y2="249.394" gradientUnits="userSpaceOnUse">
<stop stop-color="white"/>
<stop offset="0.414818" stop-color="white" stop-opacity="0"/>
</linearGradient>
<linearGradient id="paint8_linear_1_1605" x1="448.816" y1="64.5355" x2="605.507" y2="64.5355" gradientUnits="userSpaceOnUse">
<stop stop-color="#212F40" stop-opacity="0.7"/>
<stop offset="1" stop-color="#212F40" stop-opacity="0.1"/>
</linearGradient>
<linearGradient id="paint9_linear_1_1605" x1="695.535" y1="17" x2="695.535" y2="267" gradientUnits="userSpaceOnUse">
<stop stop-color="#F5F7FA"/>
<stop offset="1" stop-color="white" stop-opacity="0"/>
</linearGradient>
<linearGradient id="paint10_linear_1_1605" x1="695.535" y1="68.9366" x2="695.535" y2="249.394" gradientUnits="userSpaceOnUse">
<stop stop-color="white"/>
<stop offset="0.414818" stop-color="white" stop-opacity="0"/>
</linearGradient>
<linearGradient id="paint11_linear_1_1605" x1="625.113" y1="64.5355" x2="746.592" y2="64.5355" gradientUnits="userSpaceOnUse">
<stop stop-color="#212F40" stop-opacity="0.7"/>
<stop offset="1" stop-color="#212F40" stop-opacity="0.1"/>
</linearGradient>
<linearGradient id="paint12_linear_1_1605" x1="871.831" y1="17" x2="871.831" y2="267" gradientUnits="userSpaceOnUse">
<stop stop-color="#F5F7FA"/>
<stop offset="1" stop-color="white" stop-opacity="0"/>
</linearGradient>
<linearGradient id="paint13_linear_1_1605" x1="871.831" y1="68.9366" x2="871.831" y2="249.394" gradientUnits="userSpaceOnUse">
<stop stop-color="white"/>
<stop offset="0.414818" stop-color="white" stop-opacity="0"/>
</linearGradient>
<linearGradient id="paint14_linear_1_1605" x1="801.41" y1="64.5355" x2="873.593" y2="64.5355" gradientUnits="userSpaceOnUse">
<stop stop-color="#212F40" stop-opacity="0.7"/>
<stop offset="1" stop-color="#212F40" stop-opacity="0.1"/>
</linearGradient>
<linearGradient id="paint15_linear_1_1605" x1="1048.13" y1="17" x2="1048.13" y2="267" gradientUnits="userSpaceOnUse">
<stop stop-color="#F5F7FA"/>
<stop offset="1" stop-color="white" stop-opacity="0"/>
</linearGradient>
<linearGradient id="paint16_linear_1_1605" x1="1048.13" y1="68.9366" x2="1048.13" y2="249.394" gradientUnits="userSpaceOnUse">
<stop stop-color="white"/>
<stop offset="0.414818" stop-color="white" stop-opacity="0"/>
</linearGradient>
<linearGradient id="paint17_linear_1_1605" x1="977.707" y1="64.5355" x2="1144.96" y2="64.5355" gradientUnits="userSpaceOnUse">
<stop stop-color="#212F40" stop-opacity="0.7"/>
<stop offset="1" stop-color="#212F40" stop-opacity="0.1"/>
</linearGradient>
<clipPath id="clip0_1_1605">
<rect width="51.0563" height="51.0563" fill="white" transform="translate(34.6057 38.1267)"/>
</clipPath>
<clipPath id="clip1_1_1605">
<rect x="34.6057" y="103.268" width="264.085" height="146.127" rx="28.169" fill="white"/>
</clipPath>
<clipPath id="clip2_1_1605">
<rect width="51.0563" height="51.0563" fill="white" transform="translate(210.903 38.1267)"/>
</clipPath>
<clipPath id="clip3_1_1605">
<rect x="210.903" y="103.268" width="264.085" height="146.127" rx="28.169" fill="white"/>
</clipPath>
<clipPath id="clip4_1_1605">
<rect width="51.0563" height="51.0563" fill="white" transform="translate(387.197 38.1267)"/>
</clipPath>
<clipPath id="clip5_1_1605">
<rect x="387.197" y="103.268" width="264.085" height="146.127" rx="28.169" fill="white"/>
</clipPath>
<clipPath id="clip6_1_1605">
<rect width="51.0563" height="37.3583" fill="white" transform="translate(563.492 45.1691)"/>
</clipPath>
<clipPath id="clip7_1_1605">
<rect x="563.492" y="103.268" width="264.085" height="146.127" rx="28.169" fill="white"/>
</clipPath>
<clipPath id="clip8_1_1605">
<rect width="51.0563" height="51.0563" fill="white" transform="translate(739.789 38.127)"/>
</clipPath>
<clipPath id="clip9_1_1605">
<rect x="739.789" y="103.268" width="264.085" height="146.127" rx="28.169" fill="white"/>
</clipPath>
<clipPath id="clip10_1_1605">
<rect width="51.0563" height="45.6173" fill="white" transform="translate(916.086 41.6475)"/>
</clipPath>
<clipPath id="clip11_1_1605">
<rect x="916.086" y="103.268" width="264.085" height="146.127" rx="28.169" fill="white"/>
</clipPath>
</defs>
</svg>
