<svg   width="534" height="342"  class=' w-[100px] sm:w-[534px] sm:h-[342px] ' viewBox="0 0 534 342" fill="none" xmlns="http://www.w3.org/2000/svg">
<g clip-path="url(#clip0_1_3230)">
<rect width="534" height="342" rx="12" fill="white"/>
<rect width="534" height="342" rx="12" fill="url(#paint0_linear_1_3230)"/>
<path d="M33.2438 42L35.9574 34.474H37.6428L40.3564 42H38.9148L38.2894 40.2192H35.3108L34.6854 42H33.2438ZM35.7136 39.0426H37.8866L36.8054 35.8626L35.7136 39.0426ZM43.2409 42.1272C41.7887 42.1272 40.8877 40.9824 40.8877 39.1698C40.8877 37.3572 41.8099 36.2124 43.2409 36.2124C44.0253 36.2124 44.6507 36.5622 44.9581 37.1452V34.474H46.3149V42H45.0323L45.0005 41.1626C44.6825 41.7668 44.0253 42.1272 43.2409 42.1272ZM43.6437 41.0248C44.4811 41.0248 44.9581 40.3676 44.9581 39.1698C44.9581 37.9614 44.4917 37.3148 43.6437 37.3148C42.8169 37.3148 42.2975 38.0144 42.2975 39.1698C42.2975 40.304 42.8275 41.0248 43.6437 41.0248ZM49.8142 42.1272C48.362 42.1272 47.461 40.9824 47.461 39.1698C47.461 37.3572 48.3832 36.2124 49.8142 36.2124C50.5986 36.2124 51.224 36.5622 51.5314 37.1452V34.474H52.8882V42H51.6056L51.5738 41.1626C51.2558 41.7668 50.5986 42.1272 49.8142 42.1272ZM50.217 41.0248C51.0544 41.0248 51.5314 40.3676 51.5314 39.1698C51.5314 37.9614 51.065 37.3148 50.217 37.3148C49.3902 37.3148 48.8708 38.0144 48.8708 39.1698C48.8708 40.304 49.4008 41.0248 50.217 41.0248ZM56.9837 42V34.474H59.4853C61.8809 34.474 63.2271 35.8308 63.2271 38.2476C63.2271 40.6538 61.9127 42 59.5489 42H56.9837ZM58.3617 40.8022H59.4853C61.0541 40.8022 61.8067 39.9648 61.8067 38.2476C61.8067 36.5092 61.0541 35.6718 59.4853 35.6718H58.3617V40.8022ZM66.0986 42.1272C64.9114 42.1272 64.127 41.5654 64.127 40.5796C64.127 39.6044 64.7312 39.085 65.9714 38.8412L67.8476 38.4702C67.8476 37.6752 67.4766 37.2618 66.7664 37.2618C66.0986 37.2618 65.7382 37.5692 65.611 38.1416L64.2224 38.078C64.445 36.8908 65.3566 36.2124 66.7664 36.2124C68.3776 36.2124 69.2044 37.0604 69.2044 38.5656V40.622C69.2044 40.9294 69.3104 41.0142 69.5224 41.0142H69.7026V42C69.6178 42.0212 69.3952 42.0424 69.215 42.0424C68.6002 42.0424 68.1444 41.8198 68.0278 41.1308C67.7416 41.735 67.0208 42.1272 66.0986 42.1272ZM66.3742 41.1414C67.2752 41.1414 67.8476 40.569 67.8476 39.7104V39.3924L66.3848 39.6892C65.7806 39.8058 65.5368 40.0602 65.5368 40.4524C65.5368 40.8976 65.8336 41.1414 66.3742 41.1414ZM72.5721 42C71.4485 42 70.9291 41.5018 70.9291 40.3782V37.389H70.0387V36.3396H70.9291V35.0146H72.2859V36.3396H73.7805V37.389H72.2859V40.251C72.2859 40.781 72.5085 40.9506 72.9855 40.9506H73.7805V42H72.5721ZM76.5123 42.1272C75.3251 42.1272 74.5407 41.5654 74.5407 40.5796C74.5407 39.6044 75.1449 39.085 76.3851 38.8412L78.2613 38.4702C78.2613 37.6752 77.8903 37.2618 77.1801 37.2618C76.5123 37.2618 76.1519 37.5692 76.0247 38.1416L74.6361 38.078C74.8587 36.8908 75.7703 36.2124 77.1801 36.2124C78.7913 36.2124 79.6181 37.0604 79.6181 38.5656V40.622C79.6181 40.9294 79.7241 41.0142 79.9361 41.0142H80.1163V42C80.0315 42.0212 79.8089 42.0424 79.6287 42.0424C79.0139 42.0424 78.5581 41.8198 78.4415 41.1308C78.1553 41.735 77.4345 42.1272 76.5123 42.1272ZM76.7879 41.1414C77.6889 41.1414 78.2613 40.569 78.2613 39.7104V39.3924L76.7985 39.6892C76.1943 39.8058 75.9505 40.0602 75.9505 40.4524C75.9505 40.8976 76.2473 41.1414 76.7879 41.1414ZM86.6457 42.1696C84.7695 42.1696 83.6353 41.1202 83.5081 39.5514L84.9073 39.4666C85.0451 40.4418 85.6175 40.9824 86.6669 40.9824C87.5467 40.9824 88.0661 40.6538 88.0661 40.0072C88.0661 39.4242 87.7693 39.0744 86.2323 38.714C84.3667 38.29 83.6671 37.76 83.6671 36.5304C83.6671 35.216 84.6847 34.3044 86.3807 34.3044C88.1721 34.3044 89.1685 35.3538 89.3275 36.806L87.9389 36.8696C87.8435 36.0534 87.3029 35.4916 86.3595 35.4916C85.5539 35.4916 85.0663 35.8944 85.0663 36.4774C85.0663 37.0922 85.4267 37.3254 86.7623 37.6328C88.7869 38.0674 89.4653 38.8094 89.4653 39.933C89.4653 41.311 88.3417 42.1696 86.6457 42.1696ZM93.2492 42.1272C91.5638 42.1272 90.4614 40.9612 90.4614 39.1698C90.4614 37.3784 91.5638 36.2124 93.2492 36.2124C94.924 36.2124 96.0264 37.3784 96.0264 39.1698C96.0264 40.9612 94.924 42.1272 93.2492 42.1272ZM93.2492 41.0248C94.1184 41.0248 94.6272 40.3464 94.6272 39.1698C94.6272 38.0038 94.1184 37.3148 93.2492 37.3148C92.3694 37.3148 91.8712 38.0038 91.8712 39.1698C91.8712 40.3464 92.3694 41.0248 93.2492 41.0248ZM98.9488 42.1272C97.7934 42.1272 97.0832 41.3322 97.0832 39.986V36.3396H98.44V39.6468C98.44 40.6008 98.7474 41.0248 99.4046 41.0248C100.136 41.0248 100.56 40.5266 100.56 39.5938V36.3396H101.917V42H100.677L100.655 41.0778C100.359 41.7668 99.7756 42.1272 98.9488 42.1272ZM103.408 42V36.3396H104.68L104.712 37.442C104.934 36.6788 105.369 36.3396 106.069 36.3396H106.588V37.5056H106.058C105.189 37.5056 104.765 37.866 104.765 38.7352V42H103.408ZM109.894 42.1272C108.209 42.1272 107.107 40.9612 107.107 39.1698C107.107 37.389 108.209 36.2124 109.894 36.2124C111.336 36.2124 112.364 36.9968 112.534 38.343L111.135 38.4172C111.029 37.6964 110.552 37.3148 109.894 37.3148C109.015 37.3148 108.516 38.0038 108.516 39.1698C108.516 40.3464 109.015 41.0248 109.894 41.0248C110.552 41.0248 111.029 40.6432 111.135 39.8482L112.534 39.9118C112.375 41.2686 111.357 42.1272 109.894 42.1272ZM116.012 42.1272C114.316 42.1272 113.235 40.9612 113.235 39.1698C113.235 37.389 114.316 36.2124 115.98 36.2124C117.602 36.2124 118.673 37.336 118.673 39.244V39.5514H114.645C114.698 40.5478 115.217 41.046 116.023 41.046C116.627 41.046 117.04 40.7598 117.199 40.2616L118.588 40.3464C118.28 41.4488 117.316 42.1272 116.012 42.1272ZM114.645 38.6398H117.263C117.199 37.7176 116.701 37.283 115.98 37.283C115.249 37.283 114.751 37.76 114.645 38.6398ZM122.106 42.1272C120.431 42.1272 119.551 41.3322 119.466 40.2192L120.855 40.1556C120.95 40.7492 121.321 41.0884 122.106 41.0884C122.742 41.0884 123.123 40.8976 123.123 40.4524C123.123 40.0708 122.933 39.9012 121.883 39.721C120.145 39.4242 119.604 38.9578 119.604 37.9932C119.604 36.9438 120.431 36.2124 122 36.2124C123.526 36.2124 124.311 37.0286 124.47 38.1204L123.092 38.184C122.996 37.6116 122.615 37.2512 121.989 37.2512C121.343 37.2512 121.014 37.5374 121.014 37.9508C121.014 38.4066 121.311 38.5868 122.169 38.7246C123.95 39.0002 124.533 39.4878 124.533 40.4312C124.533 41.523 123.547 42.1272 122.106 42.1272Z" fill="#121B26"/>
<g filter="url(#filter0_d_1_3230)">
<path d="M33 61.9001C33 58.973 35.3729 56.6001 38.3 56.6001H171.792C174.719 56.6001 177.092 58.973 177.092 61.9001V146.7C177.092 149.627 174.719 152 171.792 152H38.3C35.3729 152 33 149.627 33 146.7V61.9001Z" fill="white" shape-rendering="crispEdges"/>
<path d="M38.3 56.2688C35.1899 56.2688 32.6687 58.7901 32.6687 61.9001V146.7C32.6687 149.81 35.1899 152.331 38.3 152.331H171.792C174.902 152.331 177.423 149.81 177.423 146.7V61.9001C177.423 58.79 174.902 56.2688 171.792 56.2688H38.3Z" stroke="#E3E8EF" stroke-width="0.6625" shape-rendering="crispEdges"/>
<path d="M33 61.9001C33 58.973 35.3729 56.6001 38.3 56.6001H161.525C164.452 56.6001 166.825 58.973 166.825 61.9001V109.6H33V61.9001Z" fill="white"/>
<rect x="120.448" y="64.882" width="47.2375" height="16.6375" rx="4.96875" fill="white"/>
<rect x="120.448" y="64.882" width="47.2375" height="16.6375" rx="4.96875" stroke="#E3E8EF" stroke-width="0.6625"/>
<path d="M131.009 76.3279C129.482 76.3279 128.433 75.2228 128.433 73.3864C128.433 71.5658 129.466 70.429 131.017 70.429C132.416 70.429 133.163 71.1763 133.41 72.4085L132.503 72.4562C132.352 71.6851 131.875 71.216 131.017 71.216C129.991 71.216 129.323 72.0428 129.323 73.3864C129.323 74.7379 129.999 75.5408 131.009 75.5408C131.923 75.5408 132.408 75.0241 132.543 74.1814L133.449 74.2291C133.235 75.509 132.4 76.3279 131.009 76.3279ZM136.135 76.2961C134.918 76.2961 134.123 75.4295 134.123 74.086C134.123 72.7424 134.918 71.8759 136.135 71.8759C137.343 71.8759 138.138 72.7424 138.138 74.086C138.138 75.4295 137.343 76.2961 136.135 76.2961ZM136.135 75.5647C136.85 75.5647 137.263 75.0161 137.263 74.086C137.263 73.1558 136.85 72.6073 136.135 72.6073C135.419 72.6073 134.998 73.1558 134.998 74.086C134.998 75.0161 135.419 75.5647 136.135 75.5647ZM139.036 76.2007V71.9713H139.807L139.831 72.7027C140.053 72.1303 140.538 71.8759 141.111 71.8759C142.057 71.8759 142.542 72.5596 142.542 73.4818V76.2007H141.699V73.7362C141.699 72.9889 141.468 72.5834 140.88 72.5834C140.284 72.5834 139.878 72.9889 139.878 73.7362V76.2007H139.036ZM143.585 76.2007V71.9713H144.356L144.38 72.7027C144.603 72.1303 145.088 71.8759 145.66 71.8759C146.606 71.8759 147.091 72.5596 147.091 73.4818V76.2007H146.248V73.7362C146.248 72.9889 146.018 72.5834 145.43 72.5834C144.833 72.5834 144.428 72.9889 144.428 73.7362V76.2007H143.585ZM149.93 76.2961C148.706 76.2961 147.927 75.4216 147.927 74.086C147.927 72.7504 148.706 71.8759 149.907 71.8759C151.059 71.8759 151.846 72.6947 151.846 74.1178V74.3324H148.809C148.849 75.1592 149.271 75.5726 149.938 75.5726C150.439 75.5726 150.773 75.3262 150.908 74.9287L151.783 74.9843C151.56 75.7714 150.869 76.2961 149.93 76.2961ZM150.948 73.6964C150.9 72.9491 150.487 72.5914 149.907 72.5914C149.31 72.5914 148.905 72.9809 148.809 73.6964H150.948ZM154.511 76.2961C153.287 76.2961 152.5 75.4216 152.5 74.086C152.5 72.7504 153.287 71.8759 154.511 71.8759C155.537 71.8759 156.26 72.4324 156.395 73.4102L155.521 73.4579C155.433 72.9094 155.044 72.6073 154.511 72.6073C153.796 72.6073 153.374 73.1558 153.374 74.086C153.374 75.0161 153.796 75.5647 154.511 75.5647C155.044 75.5647 155.433 75.2626 155.521 74.6504L156.395 74.6981C156.26 75.668 155.545 76.2961 154.511 76.2961ZM158.654 76.2007C157.851 76.2007 157.477 75.8509 157.477 75.0559V72.6629H156.833V71.9713H157.477V70.9775H158.32V71.9713H159.441V72.6629H158.32V74.9923C158.32 75.3898 158.487 75.509 158.836 75.509H159.441V76.2007H158.654Z" fill="#121B26"/>
<circle cx="59.5016" cy="83.0988" r="13.9125" fill="url(#paint1_linear_1_3230)"/>
<path d="M64.6827 87.3535L65.3007 83.4267H61.4346V80.8796C61.4346 79.8051 61.9737 78.7571 63.7053 78.7571H65.4641V75.414C65.4641 75.414 63.8686 75.1487 62.344 75.1487C59.1586 75.1487 57.0785 77.0298 57.0785 80.4339V83.4267H53.5391V87.3535H57.0785V96.8467C57.789 96.9555 58.516 97.0112 59.2565 97.0112C59.9971 97.0112 60.724 96.9555 61.4346 96.8467V87.3535H64.6827Z" fill="white"/>
<path d="M44.448 121.6V114.074H49.483V115.272H45.826V117.328H49.2922V118.515H45.826V121.6H44.448ZM52.362 121.727C51.1748 121.727 50.3904 121.165 50.3904 120.18C50.3904 119.204 50.9946 118.685 52.2348 118.441L54.111 118.07C54.111 117.275 53.74 116.862 53.0298 116.862C52.362 116.862 52.0016 117.169 51.8744 117.742L50.4858 117.678C50.7084 116.491 51.62 115.812 53.0298 115.812C54.641 115.812 55.4678 116.66 55.4678 118.166V120.222C55.4678 120.529 55.5738 120.614 55.7858 120.614H55.966V121.6C55.8812 121.621 55.6586 121.642 55.4784 121.642C54.8636 121.642 54.4078 121.42 54.2912 120.731C54.005 121.335 53.2842 121.727 52.362 121.727ZM52.6376 120.741C53.5386 120.741 54.111 120.169 54.111 119.31V118.992L52.6482 119.289C52.044 119.406 51.8002 119.66 51.8002 120.052C51.8002 120.498 52.097 120.741 52.6376 120.741ZM59.4306 121.727C57.7452 121.727 56.6428 120.561 56.6428 118.77C56.6428 116.989 57.7452 115.812 59.4306 115.812C60.8722 115.812 61.9004 116.597 62.07 117.943L60.6708 118.017C60.5648 117.296 60.0878 116.915 59.4306 116.915C58.5508 116.915 58.0526 117.604 58.0526 118.77C58.0526 119.946 58.5508 120.625 59.4306 120.625C60.0878 120.625 60.5648 120.243 60.6708 119.448L62.07 119.512C61.911 120.869 60.8934 121.727 59.4306 121.727ZM65.5481 121.727C63.8521 121.727 62.7709 120.561 62.7709 118.77C62.7709 116.989 63.8521 115.812 65.5163 115.812C67.1381 115.812 68.2087 116.936 68.2087 118.844V119.151H64.1807C64.2337 120.148 64.7531 120.646 65.5587 120.646C66.1629 120.646 66.5763 120.36 66.7353 119.862L68.1239 119.946C67.8165 121.049 66.8519 121.727 65.5481 121.727ZM64.1807 118.24H66.7989C66.7353 117.318 66.2371 116.883 65.5163 116.883C64.7849 116.883 64.2867 117.36 64.1807 118.24ZM72.259 121.727C71.464 121.727 70.8598 121.367 70.5418 120.763L70.51 121.6H69.2168V114.074H70.5736V116.745C70.8704 116.236 71.4746 115.812 72.259 115.812C73.7218 115.812 74.644 116.968 74.644 118.77C74.644 120.572 73.7218 121.727 72.259 121.727ZM71.9516 120.625C72.7254 120.625 73.2342 119.925 73.2342 118.77C73.2342 117.593 72.736 116.915 71.9622 116.915C71.0824 116.915 70.5736 117.593 70.5736 118.77C70.5736 119.925 71.0824 120.625 71.9516 120.625ZM78.229 121.727C76.5436 121.727 75.4412 120.561 75.4412 118.77C75.4412 116.978 76.5436 115.812 78.229 115.812C79.9038 115.812 81.0062 116.978 81.0062 118.77C81.0062 120.561 79.9038 121.727 78.229 121.727ZM78.229 120.625C79.0982 120.625 79.607 119.946 79.607 118.77C79.607 117.604 79.0982 116.915 78.229 116.915C77.3492 116.915 76.851 117.604 76.851 118.77C76.851 119.946 77.3492 120.625 78.229 120.625ZM84.5952 121.727C82.9098 121.727 81.8074 120.561 81.8074 118.77C81.8074 116.978 82.9098 115.812 84.5952 115.812C86.27 115.812 87.3724 116.978 87.3724 118.77C87.3724 120.561 86.27 121.727 84.5952 121.727ZM84.5952 120.625C85.4644 120.625 85.9732 119.946 85.9732 118.77C85.9732 117.604 85.4644 116.915 84.5952 116.915C83.7154 116.915 83.2172 117.604 83.2172 118.77C83.2172 119.946 83.7154 120.625 84.5952 120.625ZM88.3879 121.6V114.074H89.7447V118.494L92.0661 115.94H93.7409L91.5255 118.293L93.8151 121.6H92.2887L90.6351 119.098L89.7447 120.042V121.6H88.3879Z" fill="#212F40"/>
<path d="M46.7535 138.398C45.2324 138.398 44.2585 137.48 44.1472 136.145L44.982 136.089C45.1118 137.072 45.7147 137.619 46.772 137.619C47.6903 137.619 48.2282 137.258 48.2282 136.581C48.2282 135.968 47.9221 135.597 46.3454 135.208C44.8243 134.828 44.2863 134.373 44.2863 133.39C44.2863 132.286 45.1211 131.516 46.4752 131.516C47.9221 131.516 48.7754 132.407 48.9238 133.613L48.0891 133.668C47.9778 132.87 47.4398 132.295 46.4567 132.295C45.6405 132.295 45.1211 132.722 45.1211 133.353C45.1211 133.974 45.455 134.197 46.8462 134.54C48.4972 134.948 49.063 135.579 49.063 136.525C49.063 137.675 48.0984 138.398 46.7535 138.398ZM52.304 138.361C50.9406 138.361 50.0502 137.36 50.0502 135.792C50.0502 134.225 50.9406 133.223 52.304 133.223C53.6581 133.223 54.5485 134.225 54.5485 135.792C54.5485 137.36 53.6581 138.361 52.304 138.361ZM52.304 137.619C53.2037 137.619 53.7323 136.933 53.7323 135.792C53.7323 134.651 53.2037 133.965 52.304 133.965C51.395 133.965 50.8664 134.651 50.8664 135.792C50.8664 136.933 51.395 137.619 52.304 137.619ZM57.6299 138.361C56.2572 138.361 55.376 137.35 55.376 135.792C55.376 134.234 56.2572 133.223 57.6299 133.223C58.7614 133.223 59.5498 133.835 59.7167 134.93L58.9005 134.985C58.7892 134.336 58.2977 133.965 57.6299 133.965C56.7209 133.965 56.1922 134.651 56.1922 135.792C56.1922 136.933 56.7209 137.619 57.6299 137.619C58.2977 137.619 58.7892 137.248 58.9005 136.506L59.7167 136.562C59.5498 137.656 58.7614 138.361 57.6299 138.361ZM60.6 132.564V131.655H61.4162V132.564H60.6ZM60.6185 138.25V133.334H61.3976V138.25H60.6185ZM64.2371 138.361C63.2168 138.361 62.5768 137.87 62.5768 137.026C62.5768 136.191 63.0499 135.727 64.1258 135.523L65.8695 135.199C65.8695 134.373 65.4799 133.965 64.7008 133.965C64.0145 133.965 63.6342 134.28 63.4858 134.846L62.6603 134.781C62.8458 133.854 63.5878 133.223 64.7008 133.223C65.9622 133.223 66.6486 133.984 66.6486 135.226V137.258C66.6486 137.48 66.7228 137.564 66.9083 137.564H67.103V138.25C67.0474 138.259 66.9268 138.269 66.8062 138.269C66.2126 138.269 65.9437 138.037 65.8787 137.489C65.6376 138 64.9605 138.361 64.2371 138.361ZM64.3113 137.675C65.2944 137.675 65.8695 137.044 65.8695 136.228V135.876L64.2742 136.172C63.6064 136.293 63.393 136.543 63.393 136.952C63.393 137.415 63.7362 137.675 64.3113 137.675ZM69.0466 138.25C68.4715 138.25 68.082 137.972 68.082 137.323V131.665H68.8611V137.258C68.8611 137.462 68.9631 137.564 69.1672 137.564H69.5938V138.25H69.0466ZM73.1387 138.25V131.665H74.2517L76.3572 137.378L78.4533 131.665H79.5663V138.25H78.7687V133.149L76.8858 138.25H75.8192L73.9364 133.149V138.25H73.1387ZM83.1089 138.361C81.7177 138.361 80.8551 137.35 80.8551 135.792C80.8551 134.234 81.7177 133.223 83.0718 133.223C84.3518 133.223 85.2422 134.15 85.2422 135.801V136.033H81.6713C81.727 137.091 82.2556 137.619 83.1089 137.619C83.7489 137.619 84.1663 137.295 84.3332 136.794L85.168 136.859C84.9083 137.74 84.1477 138.361 83.1089 138.361ZM81.6713 135.347H84.3889C84.3147 134.401 83.7953 133.965 83.0718 133.965C82.3113 133.965 81.8012 134.438 81.6713 135.347ZM88.1499 138.361C86.87 138.361 86.0723 137.369 86.0723 135.792C86.0723 134.215 86.87 133.223 88.1499 133.223C88.8084 133.223 89.3928 133.52 89.6617 134.021V131.665H90.4408V138.25H89.7359L89.7081 137.508C89.4299 138.046 88.8363 138.361 88.1499 138.361ZM88.3076 137.619C89.1794 137.619 89.6617 136.914 89.6617 135.792C89.6617 134.651 89.1794 133.965 88.3076 133.965C87.445 133.965 86.8885 134.651 86.8885 135.792C86.8885 136.914 87.445 137.619 88.3076 137.619ZM91.6676 132.564V131.655H92.4838V132.564H91.6676ZM91.6861 138.25V133.334H92.4652V138.25H91.6861ZM95.3047 138.361C94.2844 138.361 93.6445 137.87 93.6445 137.026C93.6445 136.191 94.1175 135.727 95.1934 135.523L96.9371 135.199C96.9371 134.373 96.5475 133.965 95.7684 133.965C95.0821 133.965 94.7018 134.28 94.5534 134.846L93.7279 134.781C93.9134 133.854 94.6554 133.223 95.7684 133.223C97.0298 133.223 97.7162 133.984 97.7162 135.226V137.258C97.7162 137.48 97.7904 137.564 97.9759 137.564H98.1707V138.25C98.115 138.259 97.9944 138.269 97.8739 138.269C97.2803 138.269 97.0113 138.037 96.9464 137.489C96.7052 138 96.0281 138.361 95.3047 138.361ZM95.3789 137.675C96.362 137.675 96.9371 137.044 96.9371 136.228V135.876L95.3418 136.172C94.674 136.293 94.4607 136.543 94.4607 136.952C94.4607 137.415 94.8038 137.675 95.3789 137.675Z" fill="#838E9E"/>
</g>
<g filter="url(#filter1_d_1_3230)">
<path d="M192.992 61.9001C192.992 58.973 195.365 56.6001 198.292 56.6001H331.783C334.711 56.6001 337.083 58.973 337.083 61.9001V146.7C337.083 149.627 334.711 152 331.783 152H198.292C195.365 152 192.992 149.627 192.992 146.7V61.9001Z" fill="white" shape-rendering="crispEdges"/>
<path d="M198.292 56.2688C195.182 56.2688 192.66 58.7901 192.66 61.9001V146.7C192.66 149.81 195.182 152.331 198.292 152.331H331.783C334.893 152.331 337.415 149.81 337.415 146.7V61.9001C337.415 58.79 334.893 56.2688 331.783 56.2688H198.292Z" stroke="#E3E8EF" stroke-width="0.6625" shape-rendering="crispEdges"/>
<rect x="205.645" y="69.3162" width="27.825" height="27.825" rx="6.95625" fill="url(#paint2_radial_1_3230)"/>
<rect x="205.645" y="69.3162" width="27.825" height="27.825" rx="6.95625" fill="url(#paint3_radial_1_3230)"/>
<rect x="205.645" y="69.3162" width="27.825" height="27.825" rx="6.95625" fill="url(#paint4_radial_1_3230)"/>
<path d="M226.514 77.7629C226.514 78.5861 225.847 79.2535 225.023 79.2535C224.2 79.2535 223.533 78.5861 223.533 77.7629C223.533 76.9396 224.2 76.2723 225.023 76.2723C225.847 76.2723 226.514 76.9396 226.514 77.7629Z" fill="white"/>
<path fill-rule="evenodd" clip-rule="evenodd" d="M219.558 88.1973C222.302 88.1973 224.526 85.9727 224.526 83.2285C224.526 80.4844 222.302 78.2598 219.558 78.2598C216.814 78.2598 214.589 80.4844 214.589 83.2285C214.589 85.9727 216.814 88.1973 219.558 88.1973ZM219.558 86.2098C221.204 86.2098 222.539 84.875 222.539 83.2285C222.539 81.582 221.204 80.2473 219.558 80.2473C217.911 80.2473 216.576 81.582 216.576 83.2285C216.576 84.875 217.911 86.2098 219.558 86.2098Z" fill="white"/>
<path fill-rule="evenodd" clip-rule="evenodd" d="M209.62 82.831C209.62 79.4917 209.62 77.822 210.27 76.5466C210.842 75.4247 211.754 74.5125 212.876 73.9409C214.151 73.291 215.821 73.291 219.16 73.291H219.955C223.295 73.291 224.964 73.291 226.24 73.9409C227.362 74.5125 228.274 75.4247 228.845 76.5466C229.495 77.822 229.495 79.4917 229.495 82.831V83.626C229.495 86.9653 229.495 88.635 228.845 89.9104C228.274 91.0323 227.362 91.9445 226.24 92.5161C224.964 93.166 223.295 93.166 219.955 93.166H219.16C215.821 93.166 214.151 93.166 212.876 92.5161C211.754 91.9445 210.842 91.0323 210.27 89.9104C209.62 88.635 209.62 86.9653 209.62 83.626V82.831ZM219.16 75.2785H219.955C221.658 75.2785 222.815 75.2801 223.71 75.3531C224.581 75.4243 225.027 75.5534 225.337 75.7118C226.085 76.0929 226.693 76.701 227.074 77.4489C227.233 77.7597 227.362 78.2054 227.433 79.0767C227.506 79.9713 227.508 81.1286 227.508 82.831V83.626C227.508 85.3285 227.506 86.4858 227.433 87.3803C227.362 88.2517 227.233 88.6973 227.074 89.0081C226.693 89.7561 226.085 90.3642 225.337 90.7453C225.027 90.9037 224.581 91.0327 223.71 91.1039C222.815 91.177 221.658 91.1785 219.955 91.1785H219.16C217.458 91.1785 216.3 91.177 215.406 91.1039C214.535 91.0327 214.089 90.9037 213.778 90.7453C213.03 90.3642 212.422 89.7561 212.041 89.0081C211.883 88.6973 211.754 88.2517 211.682 87.3803C211.609 86.4858 211.608 85.3285 211.608 83.626V82.831C211.608 81.1286 211.609 79.9713 211.682 79.0767C211.754 78.2054 211.883 77.7597 212.041 77.4489C212.422 76.701 213.03 76.0929 213.778 75.7118C214.089 75.5534 214.535 75.4243 215.406 75.3531C216.3 75.2801 217.458 75.2785 219.16 75.2785Z" fill="white"/>
<g filter="url(#filter2_d_1_3230)">
<rect x="281.066" y="64.6807" width="47.9" height="17.3" rx="5.3" fill="white"/>
<rect x="281.397" y="65.0119" width="47.2375" height="16.6375" rx="4.96875" stroke="#E3E8EF" stroke-width="0.6625"/>
<path d="M291.957 76.4578C290.431 76.4578 289.382 75.3527 289.382 73.5163C289.382 71.6957 290.415 70.5589 291.965 70.5589C293.364 70.5589 294.112 71.3062 294.358 72.5384L293.452 72.5861C293.301 71.815 292.824 71.3459 291.965 71.3459C290.94 71.3459 290.272 72.1727 290.272 73.5163C290.272 74.8678 290.948 75.6707 291.957 75.6707C292.872 75.6707 293.357 75.154 293.492 74.3113L294.398 74.359C294.183 75.6389 293.349 76.4578 291.957 76.4578ZM297.083 76.426C295.867 76.426 295.072 75.5594 295.072 74.2159C295.072 72.8723 295.867 72.0058 297.083 72.0058C298.292 72.0058 299.087 72.8723 299.087 74.2159C299.087 75.5594 298.292 76.426 297.083 76.426ZM297.083 75.6946C297.799 75.6946 298.212 75.146 298.212 74.2159C298.212 73.2857 297.799 72.7372 297.083 72.7372C296.368 72.7372 295.946 73.2857 295.946 74.2159C295.946 75.146 296.368 75.6946 297.083 75.6946ZM299.984 76.3306V72.1012H300.755L300.779 72.8326C301.002 72.2602 301.487 72.0058 302.059 72.0058C303.005 72.0058 303.49 72.6895 303.49 73.6117V76.3306H302.648V73.8661C302.648 73.1188 302.417 72.7133 301.829 72.7133C301.232 72.7133 300.827 73.1188 300.827 73.8661V76.3306H299.984ZM304.534 76.3306V72.1012H305.305L305.329 72.8326C305.551 72.2602 306.036 72.0058 306.609 72.0058C307.555 72.0058 308.04 72.6895 308.04 73.6117V76.3306H307.197V73.8661C307.197 73.1188 306.967 72.7133 306.378 72.7133C305.782 72.7133 305.377 73.1188 305.377 73.8661V76.3306H304.534ZM310.879 76.426C309.655 76.426 308.876 75.5515 308.876 74.2159C308.876 72.8803 309.655 72.0058 310.855 72.0058C312.008 72.0058 312.795 72.8246 312.795 74.2477V74.4623H309.758C309.798 75.2891 310.219 75.7025 310.887 75.7025C311.388 75.7025 311.722 75.4561 311.857 75.0586L312.731 75.1142C312.509 75.9013 311.817 76.426 310.879 76.426ZM311.897 73.8263C311.849 73.079 311.436 72.7213 310.855 72.7213C310.259 72.7213 309.854 73.1108 309.758 73.8263H311.897ZM315.46 76.426C314.236 76.426 313.449 75.5515 313.449 74.2159C313.449 72.8803 314.236 72.0058 315.46 72.0058C316.485 72.0058 317.209 72.5623 317.344 73.5401L316.47 73.5878C316.382 73.0393 315.993 72.7372 315.46 72.7372C314.744 72.7372 314.323 73.2857 314.323 74.2159C314.323 75.146 314.744 75.6946 315.46 75.6946C315.993 75.6946 316.382 75.3925 316.47 74.7803L317.344 74.828C317.209 75.7979 316.493 76.426 315.46 76.426ZM319.602 76.3306C318.799 76.3306 318.426 75.9808 318.426 75.1858V72.7928H317.782V72.1012H318.426V71.1074H319.268V72.1012H320.389V72.7928H319.268V75.1222C319.268 75.5197 319.435 75.6389 319.785 75.6389H320.389V76.3306H319.602Z" fill="#121B26"/>
</g>
<path d="M204.504 121.73V114.204H205.882V121.73H204.504ZM207.338 121.73V116.07H208.568L208.599 117.034C208.907 116.26 209.543 115.942 210.295 115.942C211.546 115.942 212.225 116.822 212.225 118.094V121.73H210.868V118.529C210.868 117.575 210.613 117.045 209.882 117.045C209.151 117.045 208.695 117.575 208.695 118.529V121.73H207.338ZM215.902 121.857C214.227 121.857 213.347 121.062 213.262 119.949L214.651 119.886C214.746 120.479 215.117 120.818 215.902 120.818C216.538 120.818 216.919 120.628 216.919 120.182C216.919 119.801 216.728 119.631 215.679 119.451C213.941 119.154 213.4 118.688 213.4 117.723C213.4 116.674 214.227 115.942 215.796 115.942C217.322 115.942 218.106 116.759 218.265 117.85L216.887 117.914C216.792 117.342 216.41 116.981 215.785 116.981C215.138 116.981 214.81 117.267 214.81 117.681C214.81 118.137 215.107 118.317 215.965 118.455C217.746 118.73 218.329 119.218 218.329 120.161C218.329 121.253 217.343 121.857 215.902 121.857ZM221.48 121.73C220.356 121.73 219.837 121.232 219.837 120.108V117.119H218.946V116.07H219.837V114.745H221.193V116.07H222.688V117.119H221.193V119.981C221.193 120.511 221.416 120.681 221.893 120.681H222.688V121.73H221.48ZM225.42 121.857C224.233 121.857 223.448 121.295 223.448 120.31C223.448 119.334 224.052 118.815 225.293 118.571L227.169 118.2C227.169 117.405 226.798 116.992 226.088 116.992C225.42 116.992 225.059 117.299 224.932 117.872L223.544 117.808C223.766 116.621 224.678 115.942 226.088 115.942C227.699 115.942 228.526 116.79 228.526 118.296V120.352C228.526 120.659 228.632 120.744 228.844 120.744H229.024V121.73C228.939 121.751 228.716 121.772 228.536 121.772C227.921 121.772 227.466 121.55 227.349 120.861C227.063 121.465 226.342 121.857 225.42 121.857ZM225.695 120.871C226.596 120.871 227.169 120.299 227.169 119.44V119.122L225.706 119.419C225.102 119.536 224.858 119.79 224.858 120.182C224.858 120.628 225.155 120.871 225.695 120.871ZM232.446 123.447C230.962 123.447 230.124 122.801 229.87 121.836L231.269 121.741C231.407 122.175 231.714 122.419 232.446 122.419C233.283 122.419 233.75 122.059 233.75 121.264V120.543C233.485 121.094 232.838 121.454 232.107 121.454C230.697 121.454 229.7 120.352 229.7 118.709C229.7 117.087 230.686 115.942 232.085 115.942C232.902 115.942 233.516 116.335 233.792 116.949V116.07H235.117V121.232C235.117 122.684 234.057 123.447 232.446 123.447ZM232.425 120.394C233.241 120.394 233.76 119.758 233.76 118.698C233.771 117.649 233.251 117.002 232.425 117.002C231.598 117.002 231.11 117.66 231.11 118.698C231.11 119.737 231.619 120.394 232.425 120.394ZM236.612 121.73V116.07H237.884L237.916 117.172C238.139 116.409 238.573 116.07 239.273 116.07H239.792V117.236H239.262C238.393 117.236 237.969 117.596 237.969 118.465V121.73H236.612ZM242.396 121.857C241.209 121.857 240.425 121.295 240.425 120.31C240.425 119.334 241.029 118.815 242.269 118.571L244.145 118.2C244.145 117.405 243.774 116.992 243.064 116.992C242.396 116.992 242.036 117.299 241.909 117.872L240.52 117.808C240.743 116.621 241.654 115.942 243.064 115.942C244.675 115.942 245.502 116.79 245.502 118.296V120.352C245.502 120.659 245.608 120.744 245.82 120.744H246V121.73C245.916 121.751 245.693 121.772 245.513 121.772C244.898 121.772 244.442 121.55 244.326 120.861C244.039 121.465 243.319 121.857 242.396 121.857ZM242.672 120.871C243.573 120.871 244.145 120.299 244.145 119.44V119.122L242.683 119.419C242.078 119.536 241.835 119.79 241.835 120.182C241.835 120.628 242.131 120.871 242.672 120.871ZM247.026 121.73V116.07H248.255L248.287 117.013C248.573 116.335 249.146 115.942 249.845 115.942C250.672 115.942 251.245 116.377 251.488 117.108C251.743 116.356 252.326 115.942 253.11 115.942C254.276 115.942 254.997 116.695 254.997 118.094V121.73H253.64V118.444C253.64 117.511 253.333 117.045 252.676 117.045C252.029 117.045 251.637 117.575 251.637 118.486V121.73H250.375V118.486C250.375 117.564 250.121 117.045 249.432 117.045C248.785 117.045 248.383 117.585 248.383 118.486V121.73H247.026Z" fill="#212F40"/>
<path d="M206.81 138.528C205.289 138.528 204.315 137.61 204.203 136.274L205.038 136.219C205.168 137.202 205.771 137.749 206.828 137.749C207.746 137.749 208.284 137.387 208.284 136.71C208.284 136.098 207.978 135.727 206.402 135.338C204.88 134.957 204.342 134.503 204.342 133.52C204.342 132.416 205.177 131.646 206.531 131.646C207.978 131.646 208.832 132.537 208.98 133.742L208.145 133.798C208.034 133 207.496 132.425 206.513 132.425C205.697 132.425 205.177 132.852 205.177 133.483C205.177 134.104 205.511 134.327 206.902 134.67C208.553 135.078 209.119 135.709 209.119 136.655C209.119 137.805 208.155 138.528 206.81 138.528ZM212.36 138.491C210.997 138.491 210.106 137.489 210.106 135.922C210.106 134.355 210.997 133.353 212.36 133.353C213.714 133.353 214.605 134.355 214.605 135.922C214.605 137.489 213.714 138.491 212.36 138.491ZM212.36 137.749C213.26 137.749 213.788 137.063 213.788 135.922C213.788 134.781 213.26 134.095 212.36 134.095C211.451 134.095 210.923 134.781 210.923 135.922C210.923 137.063 211.451 137.749 212.36 137.749ZM217.686 138.491C216.313 138.491 215.432 137.48 215.432 135.922C215.432 134.364 216.313 133.353 217.686 133.353C218.818 133.353 219.606 133.965 219.773 135.059L218.957 135.115C218.845 134.466 218.354 134.095 217.686 134.095C216.777 134.095 216.248 134.781 216.248 135.922C216.248 137.063 216.777 137.749 217.686 137.749C218.354 137.749 218.845 137.378 218.957 136.636L219.773 136.692C219.606 137.786 218.818 138.491 217.686 138.491ZM220.656 132.694V131.785H221.472V132.694H220.656ZM220.675 138.38V133.464H221.454V138.38H220.675ZM224.293 138.491C223.273 138.491 222.633 138 222.633 137.156C222.633 136.321 223.106 135.857 224.182 135.653L225.926 135.328C225.926 134.503 225.536 134.095 224.757 134.095C224.071 134.095 223.69 134.41 223.542 134.976L222.716 134.911C222.902 133.984 223.644 133.353 224.757 133.353C226.018 133.353 226.705 134.113 226.705 135.356V137.387C226.705 137.61 226.779 137.694 226.964 137.694H227.159V138.38C227.104 138.389 226.983 138.398 226.862 138.398C226.269 138.398 226 138.167 225.935 137.619C225.694 138.129 225.017 138.491 224.293 138.491ZM224.367 137.805C225.351 137.805 225.926 137.174 225.926 136.358V136.005L224.33 136.302C223.663 136.423 223.449 136.673 223.449 137.081C223.449 137.545 223.792 137.805 224.367 137.805ZM229.103 138.38C228.528 138.38 228.138 138.102 228.138 137.452V131.795H228.917V137.387C228.917 137.592 229.019 137.694 229.223 137.694H229.65V138.38H229.103ZM233.195 138.38V131.795H234.308L236.413 137.508L238.509 131.795H239.622V138.38H238.825V133.279L236.942 138.38H235.875L233.993 133.279V138.38H233.195ZM243.165 138.491C241.774 138.491 240.911 137.48 240.911 135.922C240.911 134.364 241.774 133.353 243.128 133.353C244.408 133.353 245.298 134.28 245.298 135.931V136.163H241.727C241.783 137.221 242.312 137.749 243.165 137.749C243.805 137.749 244.222 137.425 244.389 136.924L245.224 136.989C244.964 137.87 244.204 138.491 243.165 138.491ZM241.727 135.477H244.445C244.371 134.531 243.851 134.095 243.128 134.095C242.367 134.095 241.857 134.568 241.727 135.477ZM248.206 138.491C246.926 138.491 246.128 137.499 246.128 135.922C246.128 134.345 246.926 133.353 248.206 133.353C248.865 133.353 249.449 133.65 249.718 134.15V131.795H250.497V138.38H249.792L249.764 137.638C249.486 138.176 248.892 138.491 248.206 138.491ZM248.364 137.749C249.236 137.749 249.718 137.044 249.718 135.922C249.718 134.781 249.236 134.095 248.364 134.095C247.501 134.095 246.945 134.781 246.945 135.922C246.945 137.044 247.501 137.749 248.364 137.749ZM251.724 132.694V131.785H252.54V132.694H251.724ZM251.742 138.38V133.464H252.521V138.38H251.742ZM255.361 138.491C254.341 138.491 253.701 138 253.701 137.156C253.701 136.321 254.174 135.857 255.25 135.653L256.993 135.328C256.993 134.503 256.604 134.095 255.825 134.095C255.138 134.095 254.758 134.41 254.61 134.976L253.784 134.911C253.97 133.984 254.712 133.353 255.825 133.353C257.086 133.353 257.772 134.113 257.772 135.356V137.387C257.772 137.61 257.847 137.694 258.032 137.694H258.227V138.38C258.171 138.389 258.051 138.398 257.93 138.398C257.336 138.398 257.067 138.167 257.003 137.619C256.761 138.129 256.084 138.491 255.361 138.491ZM255.435 137.805C256.418 137.805 256.993 137.174 256.993 136.358V136.005L255.398 136.302C254.73 136.423 254.517 136.673 254.517 137.081C254.517 137.545 254.86 137.805 255.435 137.805Z" fill="#838E9E"/>
</g>
<g filter="url(#filter3_d_1_3230)">
<path d="M352.983 61.9001C352.983 58.973 355.356 56.6001 358.283 56.6001H491.775C494.702 56.6001 497.075 58.973 497.075 61.9001V146.7C497.075 149.627 494.702 152 491.775 152H358.283C355.356 152 352.983 149.627 352.983 146.7V61.9001Z" fill="white" shape-rendering="crispEdges"/>
<path d="M358.283 56.2688C355.173 56.2688 352.652 58.7901 352.652 61.9001V146.7C352.652 149.81 355.173 152.331 358.283 152.331H491.775C494.885 152.331 497.406 149.81 497.406 146.7V61.9001C497.406 58.79 494.885 56.2688 491.775 56.2688H358.283Z" stroke="#E3E8EF" stroke-width="0.6625" shape-rendering="crispEdges"/>
<g clip-path="url(#clip1_1_3230)">
<path fill-rule="evenodd" clip-rule="evenodd" d="M371.448 75.0362C371.503 75.1146 372.775 76.9652 374.274 79.1487C375.773 81.3322 377.159 83.3515 377.355 83.636C377.55 83.9205 377.71 84.159 377.71 84.166C377.71 84.173 377.637 84.2628 377.548 84.3655C377.46 84.4683 377.209 84.7591 376.991 85.0118C376.774 85.2646 376.408 85.6905 376.177 85.9584C375.947 86.2263 375.541 86.6977 375.276 87.006C375.011 87.3144 374.534 87.8687 374.217 88.2379C373.234 89.3797 373.093 89.5446 372.345 90.4155C371.946 90.8805 371.563 91.3251 371.494 91.4035C371.425 91.4819 371.369 91.5543 371.369 91.5643C371.369 91.5761 371.62 91.5826 372.076 91.5826H372.782L373.559 90.6774C373.986 90.1795 374.408 89.6895 374.496 89.5884C374.686 89.3698 376.134 87.684 376.256 87.5398C376.303 87.4846 376.371 87.406 376.407 87.3652C376.443 87.3243 376.728 86.9932 377.04 86.6293C377.352 86.2653 377.616 85.9587 377.627 85.9478C377.637 85.9369 377.803 85.7446 377.994 85.5204C378.186 85.2963 378.348 85.1129 378.356 85.1129C378.363 85.1129 379.347 86.5376 380.542 88.2788C381.738 90.0201 382.737 91.4756 382.763 91.5133L382.811 91.5818L385.234 91.5822C387.227 91.5825 387.656 91.5783 387.648 91.5585C387.64 91.5374 386.479 89.8437 383.5 85.5081C381.356 82.3869 381.071 81.9675 381.079 81.9462C381.087 81.9255 381.379 81.5839 383.299 79.3494C383.629 78.9661 384.083 78.4374 384.308 78.1746C384.534 77.9118 384.762 77.6471 384.814 77.5864C384.867 77.5258 385.145 77.2032 385.431 76.8696C385.718 76.536 386.205 75.9692 386.513 75.61C386.822 75.2508 387.086 74.9427 387.1 74.9254C387.124 74.8956 387.083 74.8938 386.408 74.8938H385.69L385.371 75.266C384.946 75.7613 384.178 76.6546 383.96 76.907C383.864 77.0185 383.743 77.1587 383.693 77.2184C383.642 77.2782 383.543 77.3937 383.471 77.4751C383.4 77.5566 383.04 77.9747 382.672 78.4043C382.304 78.834 381.998 79.1896 381.992 79.1947C381.986 79.1997 381.907 79.2912 381.817 79.398C381.659 79.5847 381.498 79.7716 380.762 80.6258C380.439 81.0007 380.422 81.0168 380.395 80.9824C380.379 80.9625 379.432 79.5845 378.289 77.9202L376.212 74.8942L373.78 74.894L371.348 74.8938L371.448 75.0362ZM373.346 76.0286C373.365 76.0565 373.819 76.7079 374.356 77.4762C375.375 78.9332 379.378 84.6624 381.952 88.3478C382.775 89.5254 383.458 90.4994 383.47 90.5121C383.488 90.5303 383.727 90.5342 384.589 90.5305L385.686 90.5258L382.816 86.4179C381.237 84.1586 378.951 80.8874 377.736 79.1487L375.527 75.9874L374.42 75.9827L373.313 75.9779L373.346 76.0286Z" fill="#FAFAFA"/>
<path fill-rule="evenodd" clip-rule="evenodd" d="M365.856 83.0993V96.7279L379.489 96.7233L393.122 96.7187L393.127 83.0947L393.131 69.4707H379.494H365.856V83.0993ZM365.865 83.1085C365.865 90.6042 365.867 93.6706 365.87 89.9227C365.872 86.1749 365.872 80.042 365.87 76.2942C365.867 72.5463 365.865 75.6127 365.865 83.1085ZM371.449 75.0352C371.504 75.1135 372.775 76.9641 374.274 79.1476C375.773 81.3311 377.16 83.3504 377.355 83.635C377.551 83.9195 377.711 84.158 377.711 84.1649C377.711 84.1719 377.638 84.2617 377.549 84.3645C377.46 84.4672 377.209 84.758 376.992 85.0108C376.775 85.2635 376.408 85.6894 376.178 85.9573C375.947 86.2252 375.542 86.6966 375.277 87.005C375.012 87.3133 374.535 87.8676 374.217 88.2368C373.235 89.3786 373.093 89.5436 372.345 90.4144C371.946 90.8794 371.563 91.324 371.495 91.4024C371.426 91.4808 371.37 91.5532 371.37 91.5632C371.37 91.575 371.621 91.5815 372.076 91.5815H372.783L373.56 90.6763C373.987 90.1784 374.408 89.6884 374.496 89.5873C374.686 89.3687 376.135 87.6829 376.257 87.5387C376.303 87.4835 376.371 87.4049 376.407 87.3641C376.444 87.3233 376.729 86.9921 377.041 86.6282C377.353 86.2643 377.617 85.9576 377.628 85.9467C377.638 85.9358 377.803 85.7435 377.995 85.5194C378.186 85.2952 378.349 85.1119 378.356 85.1119C378.363 85.1119 379.347 86.5365 380.543 88.2778C381.738 90.019 382.738 91.4745 382.764 91.5122L382.811 91.5807L385.235 91.5811C387.228 91.5814 387.657 91.5772 387.649 91.5574C387.641 91.5363 386.48 89.8427 383.501 85.507C381.357 82.3858 381.071 81.9664 381.08 81.9451C381.088 81.9244 381.38 81.5828 383.3 79.3483C383.629 78.965 384.083 78.4363 384.309 78.1735C384.535 77.9107 384.762 77.646 384.815 77.5854C384.868 77.5247 385.145 77.2021 385.432 76.8685C385.718 76.535 386.205 75.9681 386.514 75.6089C386.823 75.2497 387.087 74.9417 387.101 74.9243C387.124 74.8946 387.084 74.8927 386.408 74.8927H385.691L385.371 75.2649C384.947 75.7602 384.179 76.6535 383.961 76.9059C383.864 77.0174 383.744 77.1576 383.693 77.2174C383.643 77.2771 383.543 77.3926 383.472 77.4741C383.401 77.5555 383.041 77.9736 382.673 78.4033C382.305 78.8329 381.999 79.1885 381.993 79.1936C381.986 79.1986 381.908 79.2901 381.817 79.3969C381.66 79.5836 381.499 79.7705 380.762 80.6247C380.439 80.9997 380.423 81.0158 380.395 80.9813C380.38 80.9615 379.432 79.5835 378.29 77.9191L376.213 74.8931L373.781 74.8929L371.349 74.8927L371.449 75.0352ZM373.347 76.0275C373.365 76.0554 373.82 76.7068 374.357 77.4751C375.375 78.9321 379.378 84.6613 381.953 88.3467C382.775 89.5244 383.458 90.4983 383.471 90.511C383.488 90.5292 383.728 90.5332 384.59 90.5294L385.687 90.5247L382.816 86.4168C381.238 84.1575 378.952 80.8864 377.737 79.1476L375.528 75.9863L374.421 75.9816L373.314 75.9768L373.347 76.0275Z" fill="#040404"/>
</g>
<g filter="url(#filter4_d_1_3230)">
<rect x="440.101" y="64.5508" width="47.9" height="17.3" rx="5.3" fill="white"/>
<rect x="440.432" y="64.882" width="47.2375" height="16.6375" rx="4.96875" stroke="#E3E8EF" stroke-width="0.6625"/>
<path d="M450.992 76.3279C449.466 76.3279 448.416 75.2228 448.416 73.3864C448.416 71.5658 449.45 70.429 451 70.429C452.399 70.429 453.146 71.1763 453.393 72.4085L452.487 72.4562C452.336 71.6851 451.859 71.216 451 71.216C449.974 71.216 449.307 72.0428 449.307 73.3864C449.307 74.7379 449.982 75.5408 450.992 75.5408C451.906 75.5408 452.391 75.0241 452.526 74.1814L453.433 74.2291C453.218 75.509 452.383 76.3279 450.992 76.3279ZM456.118 76.2961C454.902 76.2961 454.107 75.4295 454.107 74.086C454.107 72.7424 454.902 71.8759 456.118 71.8759C457.326 71.8759 458.121 72.7424 458.121 74.086C458.121 75.4295 457.326 76.2961 456.118 76.2961ZM456.118 75.5647C456.833 75.5647 457.247 75.0161 457.247 74.086C457.247 73.1558 456.833 72.6073 456.118 72.6073C455.402 72.6073 454.981 73.1558 454.981 74.086C454.981 75.0161 455.402 75.5647 456.118 75.5647ZM459.019 76.2007V71.9713H459.79L459.814 72.7027C460.037 72.1303 460.522 71.8759 461.094 71.8759C462.04 71.8759 462.525 72.5596 462.525 73.4818V76.2007H461.682V73.7362C461.682 72.9889 461.452 72.5834 460.863 72.5834C460.267 72.5834 459.862 72.9889 459.862 73.7362V76.2007H459.019ZM463.569 76.2007V71.9713H464.34L464.364 72.7027C464.586 72.1303 465.071 71.8759 465.644 71.8759C466.59 71.8759 467.075 72.5596 467.075 73.4818V76.2007H466.232V73.7362C466.232 72.9889 466.001 72.5834 465.413 72.5834C464.817 72.5834 464.411 72.9889 464.411 73.7362V76.2007H463.569ZM469.914 76.2961C468.69 76.2961 467.91 75.4216 467.91 74.086C467.91 72.7504 468.69 71.8759 469.89 71.8759C471.043 71.8759 471.83 72.6947 471.83 74.1178V74.3324H468.793C468.833 75.1592 469.254 75.5726 469.922 75.5726C470.423 75.5726 470.757 75.3262 470.892 74.9287L471.766 74.9843C471.544 75.7714 470.852 76.2961 469.914 76.2961ZM470.931 73.6964C470.884 72.9491 470.47 72.5914 469.89 72.5914C469.294 72.5914 468.888 72.9809 468.793 73.6964H470.931ZM474.495 76.2961C473.27 76.2961 472.483 75.4216 472.483 74.086C472.483 72.7504 473.27 71.8759 474.495 71.8759C475.52 71.8759 476.244 72.4324 476.379 73.4102L475.504 73.4579C475.417 72.9094 475.027 72.6073 474.495 72.6073C473.779 72.6073 473.358 73.1558 473.358 74.086C473.358 75.0161 473.779 75.5647 474.495 75.5647C475.027 75.5647 475.417 75.2626 475.504 74.6504L476.379 74.6981C476.244 75.668 475.528 76.2961 474.495 76.2961ZM478.637 76.2007C477.834 76.2007 477.46 75.8509 477.46 75.0559V72.6629H476.816V71.9713H477.46V70.9775H478.303V71.9713H479.424V72.6629H478.303V74.9923C478.303 75.3898 478.47 75.509 478.82 75.509H479.424V76.2007H478.637Z" fill="#121B26"/>
</g>
<path d="M363.88 121.6L366.403 117.826L363.901 114.074H365.502L367.251 116.777L368.968 114.074H370.569L368.067 117.805L370.601 121.6H369L367.23 118.855L365.481 121.6H363.88ZM371.262 122.766L374.4 113.65H375.736L372.598 122.766H371.262ZM378.808 121.6V115.272H376.518V114.074H382.475V115.272H380.186V121.6H378.808ZM384.415 121.6L382.719 115.94H384.107L385.199 120.063L386.344 115.94H387.52L388.665 120.063L389.768 115.94H391.156L389.45 121.6H388.05L386.927 117.805L385.814 121.6H384.415ZM392.098 115.187V113.979H393.508V115.187H392.098ZM392.119 121.6V115.94H393.476V121.6H392.119ZM396.882 121.6C395.759 121.6 395.239 121.102 395.239 119.978V116.989H394.349V115.94H395.239V114.615H396.596V115.94H398.886V114.615H400.243V115.94H401.737V116.989H400.243V119.851C400.243 120.381 400.476 120.551 400.942 120.551H401.737V121.6H400.529C399.405 121.6 398.886 121.102 398.886 119.978V116.989H396.596V119.851C396.596 120.381 396.819 120.551 397.296 120.551H398.091V121.6H396.882ZM405.168 121.727C403.472 121.727 402.391 120.561 402.391 118.77C402.391 116.989 403.472 115.812 405.137 115.812C406.758 115.812 407.829 116.936 407.829 118.844V119.151H403.801C403.854 120.148 404.373 120.646 405.179 120.646C405.783 120.646 406.197 120.36 406.356 119.862L407.744 119.946C407.437 121.049 406.472 121.727 405.168 121.727ZM403.801 118.24H406.419C406.356 117.318 405.857 116.883 405.137 116.883C404.405 116.883 403.907 117.36 403.801 118.24ZM408.92 121.6V115.94H410.192L410.224 117.042C410.446 116.279 410.881 115.94 411.581 115.94H412.1V117.106H411.57C410.701 117.106 410.277 117.466 410.277 118.335V121.6H408.92Z" fill="#212F40"/>
<path d="M366.737 138.398C365.216 138.398 364.242 137.48 364.131 136.145L364.965 136.089C365.095 137.072 365.698 137.619 366.755 137.619C367.674 137.619 368.212 137.258 368.212 136.581C368.212 135.968 367.906 135.597 366.329 135.208C364.808 134.828 364.27 134.373 364.27 133.39C364.27 132.286 365.104 131.516 366.459 131.516C367.906 131.516 368.759 132.407 368.907 133.613L368.072 133.668C367.961 132.87 367.423 132.295 366.44 132.295C365.624 132.295 365.104 132.722 365.104 133.353C365.104 133.974 365.438 134.197 366.83 134.54C368.481 134.948 369.046 135.579 369.046 136.525C369.046 137.675 368.082 138.398 366.737 138.398ZM372.287 138.361C370.924 138.361 370.034 137.36 370.034 135.792C370.034 134.225 370.924 133.223 372.287 133.223C373.642 133.223 374.532 134.225 374.532 135.792C374.532 137.36 373.642 138.361 372.287 138.361ZM372.287 137.619C373.187 137.619 373.716 136.933 373.716 135.792C373.716 134.651 373.187 133.965 372.287 133.965C371.378 133.965 370.85 134.651 370.85 135.792C370.85 136.933 371.378 137.619 372.287 137.619ZM377.613 138.361C376.241 138.361 375.359 137.35 375.359 135.792C375.359 134.234 376.241 133.223 377.613 133.223C378.745 133.223 379.533 133.835 379.7 134.93L378.884 134.985C378.773 134.336 378.281 133.965 377.613 133.965C376.704 133.965 376.176 134.651 376.176 135.792C376.176 136.933 376.704 137.619 377.613 137.619C378.281 137.619 378.773 137.248 378.884 136.506L379.7 136.562C379.533 137.656 378.745 138.361 377.613 138.361ZM380.583 132.564V131.655H381.4V132.564H380.583ZM380.602 138.25V133.334H381.381V138.25H380.602ZM384.22 138.361C383.2 138.361 382.56 137.87 382.56 137.026C382.56 136.191 383.033 135.727 384.109 135.523L385.853 135.199C385.853 134.373 385.463 133.965 384.684 133.965C383.998 133.965 383.618 134.28 383.469 134.846L382.644 134.781C382.829 133.854 383.571 133.223 384.684 133.223C385.946 133.223 386.632 133.984 386.632 135.226V137.258C386.632 137.48 386.706 137.564 386.892 137.564H387.086V138.25C387.031 138.259 386.91 138.269 386.79 138.269C386.196 138.269 385.927 138.037 385.862 137.489C385.621 138 384.944 138.361 384.22 138.361ZM384.295 137.675C385.278 137.675 385.853 137.044 385.853 136.228V135.876L384.258 136.172C383.59 136.293 383.376 136.543 383.376 136.952C383.376 137.415 383.72 137.675 384.295 137.675ZM389.03 138.25C388.455 138.25 388.065 137.972 388.065 137.323V131.665H388.844V137.258C388.844 137.462 388.947 137.564 389.151 137.564H389.577V138.25H389.03ZM393.122 138.25V131.665H394.235L396.341 137.378L398.437 131.665H399.55V138.25H398.752V133.149L396.869 138.25H395.803L393.92 133.149V138.25H393.122ZM403.092 138.361C401.701 138.361 400.839 137.35 400.839 135.792C400.839 134.234 401.701 133.223 403.055 133.223C404.335 133.223 405.226 134.15 405.226 135.801V136.033H401.655C401.71 137.091 402.239 137.619 403.092 137.619C403.732 137.619 404.15 137.295 404.317 136.794L405.151 136.859C404.892 137.74 404.131 138.361 403.092 138.361ZM401.655 135.347H404.372C404.298 134.401 403.779 133.965 403.055 133.965C402.295 133.965 401.785 134.438 401.655 135.347ZM408.133 138.361C406.853 138.361 406.056 137.369 406.056 135.792C406.056 134.215 406.853 133.223 408.133 133.223C408.792 133.223 409.376 133.52 409.645 134.021V131.665H410.424V138.25H409.719L409.691 137.508C409.413 138.046 408.82 138.361 408.133 138.361ZM408.291 137.619C409.163 137.619 409.645 136.914 409.645 135.792C409.645 134.651 409.163 133.965 408.291 133.965C407.428 133.965 406.872 134.651 406.872 135.792C406.872 136.914 407.428 137.619 408.291 137.619ZM411.651 132.564V131.655H412.467V132.564H411.651ZM411.67 138.25V133.334H412.449V138.25H411.67ZM415.288 138.361C414.268 138.361 413.628 137.87 413.628 137.026C413.628 136.191 414.101 135.727 415.177 135.523L416.92 135.199C416.92 134.373 416.531 133.965 415.752 133.965C415.065 133.965 414.685 134.28 414.537 134.846L413.711 134.781C413.897 133.854 414.639 133.223 415.752 133.223C417.013 133.223 417.7 133.984 417.7 135.226V137.258C417.7 137.48 417.774 137.564 417.959 137.564H418.154V138.25C418.098 138.259 417.978 138.269 417.857 138.269C417.264 138.269 416.995 138.037 416.93 137.489C416.689 138 416.012 138.361 415.288 138.361ZM415.362 137.675C416.345 137.675 416.92 137.044 416.92 136.228V135.876L415.325 136.172C414.657 136.293 414.444 136.543 414.444 136.952C414.444 137.415 414.787 137.675 415.362 137.675Z" fill="#838E9E"/>
</g>
<g filter="url(#filter5_d_1_3230)">
<path d="M33 173.2C33 170.273 35.3729 167.9 38.3 167.9H171.638C174.565 167.9 176.938 170.273 176.938 173.2V258C176.938 260.927 174.565 263.3 171.638 263.3H38.3C35.3729 263.3 33 260.927 33 258V173.2Z" fill="white" shape-rendering="crispEdges"/>
<path d="M38.3 167.569C35.1899 167.569 32.6687 170.09 32.6687 173.2V258C32.6687 261.11 35.1899 263.631 38.3 263.631H171.638C174.748 263.631 177.27 261.11 177.27 258V173.2C177.27 170.09 174.748 167.569 171.638 167.569H38.3Z" stroke="#E3E8EF" stroke-width="0.6625" shape-rendering="crispEdges"/>
<path d="M45.8301 188.379C45.9578 186.412 47.5388 184.871 49.5069 184.774C52.3569 184.632 56.4304 184.462 59.4996 184.462C62.5688 184.462 66.6423 184.632 69.4923 184.774C71.4604 184.871 73.0414 186.412 73.1691 188.379C73.2915 190.263 73.4121 192.581 73.4121 194.4C73.4121 196.219 73.2915 198.537 73.1691 200.421C73.0414 202.387 71.4604 203.928 69.4923 204.026C66.6423 204.167 62.5688 204.337 59.4996 204.337C56.4304 204.337 52.3569 204.167 49.5069 204.026C47.5388 203.928 45.9578 202.387 45.8301 200.421C45.7077 198.537 45.5871 196.219 45.5871 194.4C45.5871 192.581 45.7077 190.263 45.8301 188.379Z" fill="#FC0D1B"/>
<path d="M56.5184 190.425V198.375L64.4684 194.4L56.5184 190.425Z" fill="white"/>
<g filter="url(#filter6_d_1_3230)">
<rect x="120.117" y="175.851" width="47.9" height="17.3" rx="5.3" fill="white"/>
<rect x="120.448" y="176.182" width="47.2375" height="16.6375" rx="4.96875" stroke="#E3E8EF" stroke-width="0.6625"/>
<path d="M131.009 187.628C129.482 187.628 128.433 186.523 128.433 184.686C128.433 182.866 129.466 181.729 131.017 181.729C132.416 181.729 133.163 182.476 133.41 183.708L132.503 183.756C132.352 182.985 131.875 182.516 131.017 182.516C129.991 182.516 129.323 183.343 129.323 184.686C129.323 186.038 129.999 186.841 131.009 186.841C131.923 186.841 132.408 186.324 132.543 185.481L133.449 185.529C133.235 186.809 132.4 187.628 131.009 187.628ZM136.135 187.596C134.918 187.596 134.123 186.729 134.123 185.386C134.123 184.042 134.918 183.176 136.135 183.176C137.343 183.176 138.138 184.042 138.138 185.386C138.138 186.729 137.343 187.596 136.135 187.596ZM136.135 186.864C136.85 186.864 137.263 186.316 137.263 185.386C137.263 184.456 136.85 183.907 136.135 183.907C135.419 183.907 134.998 184.456 134.998 185.386C134.998 186.316 135.419 186.864 136.135 186.864ZM139.036 187.5V183.271H139.807L139.831 184.002C140.053 183.43 140.538 183.176 141.111 183.176C142.057 183.176 142.542 183.859 142.542 184.782V187.5H141.699V185.036C141.699 184.289 141.468 183.883 140.88 183.883C140.284 183.883 139.878 184.289 139.878 185.036V187.5H139.036ZM143.585 187.5V183.271H144.356L144.38 184.002C144.603 183.43 145.088 183.176 145.66 183.176C146.606 183.176 147.091 183.859 147.091 184.782V187.5H146.248V185.036C146.248 184.289 146.018 183.883 145.43 183.883C144.833 183.883 144.428 184.289 144.428 185.036V187.5H143.585ZM149.93 187.596C148.706 187.596 147.927 186.721 147.927 185.386C147.927 184.05 148.706 183.176 149.907 183.176C151.059 183.176 151.846 183.995 151.846 185.418V185.632H148.809C148.849 186.459 149.271 186.872 149.938 186.872C150.439 186.872 150.773 186.626 150.908 186.228L151.783 186.284C151.56 187.071 150.869 187.596 149.93 187.596ZM150.948 184.996C150.9 184.249 150.487 183.891 149.907 183.891C149.31 183.891 148.905 184.281 148.809 184.996H150.948ZM154.511 187.596C153.287 187.596 152.5 186.721 152.5 185.386C152.5 184.05 153.287 183.176 154.511 183.176C155.537 183.176 156.26 183.732 156.395 184.71L155.521 184.758C155.433 184.209 155.044 183.907 154.511 183.907C153.796 183.907 153.374 184.456 153.374 185.386C153.374 186.316 153.796 186.864 154.511 186.864C155.044 186.864 155.433 186.562 155.521 185.95L156.395 185.998C156.26 186.968 155.545 187.596 154.511 187.596ZM158.654 187.5C157.851 187.5 157.477 187.151 157.477 186.356V183.963H156.833V183.271H157.477V182.277H158.32V183.271H159.441V183.963H158.32V186.292C158.32 186.69 158.487 186.809 158.836 186.809H159.441V187.5H158.654Z" fill="#121B26"/>
</g>
<path d="M46.4832 232.9V229.932L43.8438 225.374H45.3914L47.1722 228.575L48.9424 225.374H50.49L47.8612 229.932V232.9H46.4832ZM53.0851 233.027C51.3997 233.027 50.2973 231.861 50.2973 230.07C50.2973 228.279 51.3997 227.113 53.0851 227.113C54.7599 227.113 55.8623 228.279 55.8623 230.07C55.8623 231.861 54.7599 233.027 53.0851 233.027ZM53.0851 231.925C53.9543 231.925 54.4631 231.247 54.4631 230.07C54.4631 228.904 53.9543 228.215 53.0851 228.215C52.2053 228.215 51.7071 228.904 51.7071 230.07C51.7071 231.247 52.2053 231.925 53.0851 231.925ZM58.7847 233.027C57.6293 233.027 56.9191 232.232 56.9191 230.886V227.24H58.2759V230.547C58.2759 231.501 58.5833 231.925 59.2405 231.925C59.9719 231.925 60.3959 231.427 60.3959 230.494V227.24H61.7527V232.9H60.5125L60.4913 231.978C60.1945 232.667 59.6115 233.027 58.7847 233.027ZM65.0247 232.9V226.572H62.7351V225.374H68.6923V226.572H66.4027V232.9H65.0247ZM71.2066 233.027C70.0512 233.027 69.341 232.232 69.341 230.886V227.24H70.6978V230.547C70.6978 231.501 71.0052 231.925 71.6624 231.925C72.3938 231.925 72.8178 231.427 72.8178 230.494V227.24H74.1746V232.9H72.9344L72.9132 231.978C72.6164 232.667 72.0334 233.027 71.2066 233.027ZM78.5941 233.027C77.7991 233.027 77.1949 232.667 76.8769 232.063L76.8451 232.9H75.5519V225.374H76.9087V228.045C77.2055 227.537 77.8097 227.113 78.5941 227.113C80.0569 227.113 80.9791 228.268 80.9791 230.07C80.9791 231.872 80.0569 233.027 78.5941 233.027ZM78.2867 231.925C79.0605 231.925 79.5693 231.225 79.5693 230.07C79.5693 228.893 79.0711 228.215 78.2973 228.215C77.4175 228.215 76.9087 228.893 76.9087 230.07C76.9087 231.225 77.4175 231.925 78.2867 231.925ZM84.5536 233.027C82.8576 233.027 81.7764 231.861 81.7764 230.07C81.7764 228.289 82.8576 227.113 84.5218 227.113C86.1436 227.113 87.2142 228.236 87.2142 230.144V230.452H83.1862C83.2392 231.448 83.7586 231.946 84.5642 231.946C85.1684 231.946 85.5818 231.66 85.7408 231.162L87.1294 231.247C86.822 232.349 85.8574 233.027 84.5536 233.027ZM83.1862 229.54H85.8044C85.7408 228.618 85.2426 228.183 84.5218 228.183C83.7904 228.183 83.2922 228.66 83.1862 229.54Z" fill="#212F40"/>
<path d="M46.7535 249.698C45.2324 249.698 44.2585 248.78 44.1472 247.445L44.982 247.389C45.1118 248.372 45.7147 248.919 46.772 248.919C47.6903 248.919 48.2282 248.558 48.2282 247.881C48.2282 247.268 47.9221 246.897 46.3454 246.508C44.8243 246.128 44.2863 245.673 44.2863 244.69C44.2863 243.586 45.1211 242.816 46.4752 242.816C47.9221 242.816 48.7754 243.707 48.9238 244.913L48.0891 244.968C47.9778 244.171 47.4398 243.595 46.4567 243.595C45.6405 243.595 45.1211 244.022 45.1211 244.653C45.1211 245.274 45.455 245.497 46.8462 245.84C48.4972 246.248 49.063 246.879 49.063 247.825C49.063 248.975 48.0984 249.698 46.7535 249.698ZM52.304 249.661C50.9406 249.661 50.0502 248.66 50.0502 247.092C50.0502 245.525 50.9406 244.523 52.304 244.523C53.6581 244.523 54.5485 245.525 54.5485 247.092C54.5485 248.66 53.6581 249.661 52.304 249.661ZM52.304 248.919C53.2037 248.919 53.7323 248.233 53.7323 247.092C53.7323 245.951 53.2037 245.265 52.304 245.265C51.395 245.265 50.8664 245.951 50.8664 247.092C50.8664 248.233 51.395 248.919 52.304 248.919ZM57.6299 249.661C56.2572 249.661 55.376 248.65 55.376 247.092C55.376 245.534 56.2572 244.523 57.6299 244.523C58.7614 244.523 59.5498 245.135 59.7167 246.23L58.9005 246.285C58.7892 245.636 58.2977 245.265 57.6299 245.265C56.7209 245.265 56.1922 245.951 56.1922 247.092C56.1922 248.233 56.7209 248.919 57.6299 248.919C58.2977 248.919 58.7892 248.548 58.9005 247.806L59.7167 247.862C59.5498 248.956 58.7614 249.661 57.6299 249.661ZM60.6 243.864V242.956H61.4162V243.864H60.6ZM60.6185 249.55V244.634H61.3976V249.55H60.6185ZM64.2371 249.661C63.2168 249.661 62.5768 249.17 62.5768 248.326C62.5768 247.491 63.0499 247.027 64.1258 246.823L65.8695 246.499C65.8695 245.673 65.4799 245.265 64.7008 245.265C64.0145 245.265 63.6342 245.58 63.4858 246.146L62.6603 246.081C62.8458 245.154 63.5878 244.523 64.7008 244.523C65.9622 244.523 66.6486 245.284 66.6486 246.526V248.558C66.6486 248.78 66.7228 248.864 66.9083 248.864H67.103V249.55C67.0474 249.559 66.9268 249.569 66.8062 249.569C66.2126 249.569 65.9437 249.337 65.8787 248.789C65.6376 249.3 64.9605 249.661 64.2371 249.661ZM64.3113 248.975C65.2944 248.975 65.8695 248.344 65.8695 247.528V247.176L64.2742 247.472C63.6064 247.593 63.393 247.843 63.393 248.252C63.393 248.715 63.7362 248.975 64.3113 248.975ZM69.0466 249.55C68.4715 249.55 68.082 249.272 68.082 248.623V242.965H68.8611V248.558C68.8611 248.762 68.9631 248.864 69.1672 248.864H69.5938V249.55H69.0466ZM73.1387 249.55V242.965H74.2517L76.3572 248.678L78.4533 242.965H79.5663V249.55H78.7687V244.449L76.8858 249.55H75.8192L73.9364 244.449V249.55H73.1387ZM83.1089 249.661C81.7177 249.661 80.8551 248.65 80.8551 247.092C80.8551 245.534 81.7177 244.523 83.0718 244.523C84.3518 244.523 85.2422 245.45 85.2422 247.101V247.333H81.6713C81.727 248.391 82.2556 248.919 83.1089 248.919C83.7489 248.919 84.1663 248.595 84.3332 248.094L85.168 248.159C84.9083 249.04 84.1477 249.661 83.1089 249.661ZM81.6713 246.647H84.3889C84.3147 245.701 83.7953 245.265 83.0718 245.265C82.3113 245.265 81.8012 245.738 81.6713 246.647ZM88.1499 249.661C86.87 249.661 86.0723 248.669 86.0723 247.092C86.0723 245.515 86.87 244.523 88.1499 244.523C88.8084 244.523 89.3928 244.82 89.6617 245.321V242.965H90.4408V249.55H89.7359L89.7081 248.808C89.4299 249.346 88.8363 249.661 88.1499 249.661ZM88.3076 248.919C89.1794 248.919 89.6617 248.214 89.6617 247.092C89.6617 245.951 89.1794 245.265 88.3076 245.265C87.445 245.265 86.8885 245.951 86.8885 247.092C86.8885 248.214 87.445 248.919 88.3076 248.919ZM91.6676 243.864V242.956H92.4838V243.864H91.6676ZM91.6861 249.55V244.634H92.4652V249.55H91.6861ZM95.3047 249.661C94.2844 249.661 93.6445 249.17 93.6445 248.326C93.6445 247.491 94.1175 247.027 95.1934 246.823L96.9371 246.499C96.9371 245.673 96.5475 245.265 95.7684 245.265C95.0821 245.265 94.7018 245.58 94.5534 246.146L93.7279 246.081C93.9134 245.154 94.6554 244.523 95.7684 244.523C97.0298 244.523 97.7162 245.284 97.7162 246.526V248.558C97.7162 248.78 97.7904 248.864 97.9759 248.864H98.1707V249.55C98.115 249.559 97.9944 249.569 97.8739 249.569C97.2803 249.569 97.0113 249.337 96.9464 248.789C96.7052 249.3 96.0281 249.661 95.3047 249.661ZM95.3789 248.975C96.362 248.975 96.9371 248.344 96.9371 247.528V247.176L95.3418 247.472C94.674 247.593 94.4607 247.843 94.4607 248.252C94.4607 248.715 94.8038 248.975 95.3789 248.975Z" fill="#838E9E"/>
</g>
<g filter="url(#filter7_d_1_3230)">
<path d="M193.08 173.2C193.08 170.273 195.453 167.9 198.38 167.9H331.718C334.646 167.9 337.018 170.273 337.018 173.2V258C337.018 260.927 334.646 263.3 331.718 263.3H198.38C195.453 263.3 193.08 260.927 193.08 258V173.2Z" fill="white" shape-rendering="crispEdges"/>
<path d="M198.38 167.569C195.27 167.569 192.749 170.09 192.749 173.2V258C192.749 261.11 195.27 263.631 198.38 263.631H331.718C334.828 263.631 337.35 261.11 337.35 258V173.2C337.35 170.09 334.828 167.569 331.718 167.569H198.38Z" stroke="#E3E8EF" stroke-width="0.6625" shape-rendering="crispEdges"/>
<rect x="205.665" y="180.486" width="27.825" height="27.825" rx="13.9125" fill="#1275B1"/>
<path d="M216.217 188.13C216.217 189.059 215.412 189.812 214.419 189.812C213.426 189.812 212.621 189.059 212.621 188.13C212.621 187.202 213.426 186.449 214.419 186.449C215.412 186.449 216.217 187.202 216.217 188.13Z" fill="white"/>
<path d="M212.867 191.048H215.941V200.361H212.867V191.048Z" fill="white"/>
<path d="M220.889 191.048H217.816V200.361H220.889C220.889 200.361 220.889 197.429 220.889 195.596C220.889 194.496 221.265 193.391 222.764 193.391C224.458 193.391 224.448 194.831 224.44 195.946C224.43 197.404 224.454 198.892 224.454 200.361H227.528V195.446C227.502 192.307 226.684 190.861 223.993 190.861C222.395 190.861 221.405 191.586 220.889 192.243V191.048Z" fill="white"/>
<g filter="url(#filter8_d_1_3230)">
<rect x="280.197" y="175.851" width="47.9" height="17.3" rx="5.3" fill="white"/>
<rect x="280.528" y="176.182" width="47.2375" height="16.6375" rx="4.96875" stroke="#E3E8EF" stroke-width="0.6625"/>
<path d="M291.089 187.628C289.562 187.628 288.513 186.523 288.513 184.686C288.513 182.866 289.546 181.729 291.097 181.729C292.496 181.729 293.243 182.476 293.49 183.709L292.583 183.756C292.432 182.985 291.955 182.516 291.097 182.516C290.071 182.516 289.403 183.343 289.403 184.686C289.403 186.038 290.079 186.841 291.089 186.841C292.003 186.841 292.488 186.324 292.623 185.481L293.529 185.529C293.315 186.809 292.48 187.628 291.089 187.628ZM296.215 187.596C294.998 187.596 294.203 186.73 294.203 185.386C294.203 184.042 294.998 183.176 296.215 183.176C297.423 183.176 298.218 184.042 298.218 185.386C298.218 186.73 297.423 187.596 296.215 187.596ZM296.215 186.865C296.93 186.865 297.344 186.316 297.344 185.386C297.344 184.456 296.93 183.907 296.215 183.907C295.499 183.907 295.078 184.456 295.078 185.386C295.078 186.316 295.499 186.865 296.215 186.865ZM299.116 187.501V183.271H299.887L299.911 184.003C300.133 183.43 300.618 183.176 301.191 183.176C302.137 183.176 302.622 183.86 302.622 184.782V187.501H301.779V185.036C301.779 184.289 301.548 183.883 300.96 183.883C300.364 183.883 299.958 184.289 299.958 185.036V187.501H299.116ZM303.665 187.501V183.271H304.436L304.46 184.003C304.683 183.43 305.168 183.176 305.74 183.176C306.686 183.176 307.171 183.86 307.171 184.782V187.501H306.328V185.036C306.328 184.289 306.098 183.883 305.51 183.883C304.913 183.883 304.508 184.289 304.508 185.036V187.501H303.665ZM310.011 187.596C308.786 187.596 308.007 186.722 308.007 185.386C308.007 184.05 308.786 183.176 309.987 183.176C311.139 183.176 311.926 183.995 311.926 185.418V185.632H308.89C308.929 186.459 309.351 186.873 310.018 186.873C310.519 186.873 310.853 186.626 310.988 186.229L311.863 186.284C311.64 187.071 310.949 187.596 310.011 187.596ZM311.028 184.996C310.98 184.249 310.567 183.891 309.987 183.891C309.39 183.891 308.985 184.281 308.89 184.996H311.028ZM314.591 187.596C313.367 187.596 312.58 186.722 312.58 185.386C312.58 184.05 313.367 183.176 314.591 183.176C315.617 183.176 316.34 183.732 316.475 184.71L315.601 184.758C315.513 184.209 315.124 183.907 314.591 183.907C313.876 183.907 313.454 184.456 313.454 185.386C313.454 186.316 313.876 186.865 314.591 186.865C315.124 186.865 315.513 186.563 315.601 185.95L316.475 185.998C316.34 186.968 315.625 187.596 314.591 187.596ZM318.734 187.501C317.931 187.501 317.557 187.151 317.557 186.356V183.963H316.913V183.271H317.557V182.278H318.4V183.271H319.521V183.963H318.4V186.292C318.4 186.69 318.567 186.809 318.917 186.809H319.521V187.501H318.734Z" fill="#121B26"/>
</g>
<path d="M204.528 232.9V225.374H205.906V231.702H209.478V232.9H204.528ZM210.612 226.487V225.279H212.022V226.487H210.612ZM210.633 232.9V227.24H211.99V232.9H210.633ZM213.345 232.9V227.24H214.575L214.607 228.204C214.914 227.431 215.55 227.113 216.303 227.113C217.553 227.113 218.232 227.992 218.232 229.264V232.9H216.875V229.699C216.875 228.745 216.621 228.215 215.889 228.215C215.158 228.215 214.702 228.745 214.702 229.699V232.9H213.345ZM219.711 232.9V225.374H221.068V229.794L223.39 227.24H225.064L222.849 229.593L225.139 232.9H223.612L221.959 230.399L221.068 231.342V232.9H219.711ZM228.154 233.027C226.458 233.027 225.377 231.861 225.377 230.07C225.377 228.289 226.458 227.113 228.122 227.113C229.744 227.113 230.815 228.236 230.815 230.144V230.452H226.787C226.84 231.448 227.359 231.946 228.165 231.946C228.769 231.946 229.182 231.66 229.341 231.162L230.73 231.247C230.422 232.349 229.458 233.027 228.154 233.027ZM226.787 229.54H229.405C229.341 228.618 228.843 228.183 228.122 228.183C227.391 228.183 226.893 228.66 226.787 229.54ZM233.962 233.027C232.509 233.027 231.608 231.883 231.608 230.07C231.608 228.257 232.531 227.113 233.962 227.113C234.746 227.113 235.371 227.462 235.679 228.045V225.374H237.036V232.9H235.753L235.721 232.063C235.403 232.667 234.746 233.027 233.962 233.027ZM234.364 231.925C235.202 231.925 235.679 231.268 235.679 230.07C235.679 228.862 235.212 228.215 234.364 228.215C233.538 228.215 233.018 228.915 233.018 230.07C233.018 231.204 233.548 231.925 234.364 231.925ZM238.25 226.487V225.279H239.66V226.487H238.25ZM238.272 232.9V227.24H239.628V232.9H238.272ZM240.984 232.9V227.24H242.213L242.245 228.204C242.553 227.431 243.189 227.113 243.941 227.113C245.192 227.113 245.87 227.992 245.87 229.264V232.9H244.514V229.699C244.514 228.745 244.259 228.215 243.528 228.215C242.796 228.215 242.341 228.745 242.341 229.699V232.9H240.984Z" fill="#212F40"/>
<path d="M206.834 249.698C205.312 249.698 204.339 248.78 204.227 247.445L205.062 247.389C205.192 248.372 205.795 248.919 206.852 248.919C207.77 248.919 208.308 248.558 208.308 247.881C208.308 247.268 208.002 246.897 206.425 246.508C204.904 246.128 204.366 245.673 204.366 244.69C204.366 243.586 205.201 242.816 206.555 242.816C208.002 242.816 208.856 243.707 209.004 244.913L208.169 244.968C208.058 244.171 207.52 243.595 206.537 243.595C205.721 243.595 205.201 244.022 205.201 244.653C205.201 245.274 205.535 245.497 206.926 245.84C208.577 246.248 209.143 246.879 209.143 247.825C209.143 248.975 208.178 249.698 206.834 249.698ZM212.384 249.661C211.021 249.661 210.13 248.66 210.13 247.092C210.13 245.525 211.021 244.523 212.384 244.523C213.738 244.523 214.629 245.525 214.629 247.092C214.629 248.66 213.738 249.661 212.384 249.661ZM212.384 248.919C213.284 248.919 213.812 248.233 213.812 247.092C213.812 245.951 213.284 245.265 212.384 245.265C211.475 245.265 210.946 245.951 210.946 247.092C210.946 248.233 211.475 248.919 212.384 248.919ZM217.71 249.661C216.337 249.661 215.456 248.65 215.456 247.092C215.456 245.534 216.337 244.523 217.71 244.523C218.841 244.523 219.63 245.135 219.797 246.23L218.981 246.285C218.869 245.636 218.378 245.265 217.71 245.265C216.801 245.265 216.272 245.951 216.272 247.092C216.272 248.233 216.801 248.919 217.71 248.919C218.378 248.919 218.869 248.548 218.981 247.806L219.797 247.862C219.63 248.956 218.841 249.661 217.71 249.661ZM220.68 243.864V242.956H221.496V243.864H220.68ZM220.699 249.55V244.634H221.478V249.55H220.699ZM224.317 249.661C223.297 249.661 222.657 249.17 222.657 248.326C222.657 247.491 223.13 247.027 224.206 246.823L225.95 246.499C225.95 245.673 225.56 245.265 224.781 245.265C224.095 245.265 223.714 245.58 223.566 246.146L222.74 246.081C222.926 245.154 223.668 244.523 224.781 244.523C226.042 244.523 226.729 245.284 226.729 246.526V248.558C226.729 248.78 226.803 248.864 226.988 248.864H227.183V249.55C227.127 249.559 227.007 249.569 226.886 249.569C226.293 249.569 226.024 249.337 225.959 248.789C225.718 249.3 225.041 249.661 224.317 249.661ZM224.391 248.975C225.374 248.975 225.95 248.344 225.95 247.528V247.176L224.354 247.472C223.686 247.593 223.473 247.843 223.473 248.252C223.473 248.715 223.816 248.975 224.391 248.975ZM229.127 249.55C228.552 249.55 228.162 249.272 228.162 248.623V242.965H228.941V248.558C228.941 248.762 229.043 248.864 229.247 248.864H229.674V249.55H229.127ZM233.219 249.55V242.965H234.332L236.437 248.678L238.533 242.965H239.646V249.55H238.849V244.449L236.966 249.55H235.899L234.016 244.449V249.55H233.219ZM243.189 249.661C241.798 249.661 240.935 248.65 240.935 247.092C240.935 245.534 241.798 244.523 243.152 244.523C244.432 244.523 245.322 245.45 245.322 247.101V247.333H241.751C241.807 248.391 242.336 248.919 243.189 248.919C243.829 248.919 244.246 248.595 244.413 248.094L245.248 248.159C244.988 249.04 244.228 249.661 243.189 249.661ZM241.751 246.647H244.469C244.395 245.701 243.875 245.265 243.152 245.265C242.391 245.265 241.881 245.738 241.751 246.647ZM248.23 249.661C246.95 249.661 246.152 248.669 246.152 247.092C246.152 245.515 246.95 244.523 248.23 244.523C248.889 244.523 249.473 244.82 249.742 245.321V242.965H250.521V249.55H249.816L249.788 248.808C249.51 249.346 248.916 249.661 248.23 249.661ZM248.388 248.919C249.26 248.919 249.742 248.214 249.742 247.092C249.742 245.951 249.26 245.265 248.388 245.265C247.525 245.265 246.969 245.951 246.969 247.092C246.969 248.214 247.525 248.919 248.388 248.919ZM251.748 243.864V242.956H252.564V243.864H251.748ZM251.766 249.55V244.634H252.545V249.55H251.766ZM255.385 249.661C254.365 249.661 253.725 249.17 253.725 248.326C253.725 247.491 254.198 247.027 255.273 246.823L257.017 246.499C257.017 245.673 256.628 245.265 255.849 245.265C255.162 245.265 254.782 245.58 254.633 246.146L253.808 246.081C253.994 245.154 254.736 244.523 255.849 244.523C257.11 244.523 257.796 245.284 257.796 246.526V248.558C257.796 248.78 257.87 248.864 258.056 248.864H258.251V249.55C258.195 249.559 258.075 249.569 257.954 249.569C257.36 249.569 257.091 249.337 257.026 248.789C256.785 249.3 256.108 249.661 255.385 249.661ZM255.459 248.975C256.442 248.975 257.017 248.344 257.017 247.528V247.176L255.422 247.472C254.754 247.593 254.541 247.843 254.541 248.252C254.541 248.715 254.884 248.975 255.459 248.975Z" fill="#838E9E"/>
</g>
<path d="M33.2438 296.5L35.9574 288.974H37.6428L40.3564 296.5H38.9148L38.2894 294.719H35.3108L34.6854 296.5H33.2438ZM35.7136 293.543H37.8866L36.8054 290.363L35.7136 293.543ZM43.2409 296.627C41.7887 296.627 40.8877 295.482 40.8877 293.67C40.8877 291.857 41.8099 290.712 43.2409 290.712C44.0253 290.712 44.6507 291.062 44.9581 291.645V288.974H46.3149V296.5H45.0323L45.0005 295.663C44.6825 296.267 44.0253 296.627 43.2409 296.627ZM43.6437 295.525C44.4811 295.525 44.9581 294.868 44.9581 293.67C44.9581 292.461 44.4917 291.815 43.6437 291.815C42.8169 291.815 42.2975 292.514 42.2975 293.67C42.2975 294.804 42.8275 295.525 43.6437 295.525ZM50.1004 296.627C48.4256 296.627 47.5458 295.832 47.461 294.719L48.8496 294.656C48.945 295.249 49.316 295.588 50.1004 295.588C50.7364 295.588 51.118 295.398 51.118 294.952C51.118 294.571 50.9272 294.401 49.8778 294.221C48.1394 293.924 47.5988 293.458 47.5988 292.493C47.5988 291.444 48.4256 290.712 49.9944 290.712C51.5208 290.712 52.3052 291.529 52.4642 292.62L51.0862 292.684C50.9908 292.112 50.6092 291.751 49.9838 291.751C49.3372 291.751 49.0086 292.037 49.0086 292.451C49.0086 292.907 49.3054 293.087 50.164 293.225C51.9448 293.5 52.5278 293.988 52.5278 294.931C52.5278 296.023 51.542 296.627 50.1004 296.627Z" fill="#121B26"/>
<g filter="url(#filter9_d_1_3230)">
<path d="M33 316.4C33 313.473 35.3729 311.1 38.3 311.1H161.525C164.452 311.1 166.825 313.473 166.825 316.4V401.2C166.825 404.127 164.452 406.5 161.525 406.5H38.3C35.3729 406.5 33 404.127 33 401.2V316.4Z" fill="white" shape-rendering="crispEdges"/>
<path d="M38.3 310.769C35.1899 310.769 32.6687 313.29 32.6687 316.4V401.2C32.6687 404.31 35.1899 406.831 38.3 406.831H161.525C164.635 406.831 167.156 404.31 167.156 401.2V316.4C167.156 313.29 164.635 310.769 161.525 310.769H38.3Z" stroke="#E3E8EF" stroke-width="0.6625" shape-rendering="crispEdges"/>
<g clip-path="url(#clip2_1_3230)">
<path d="M68.7746 353.501H50.2246C46.577 353.501 43.5996 350.523 43.5996 346.876V328.326C43.5996 324.678 46.577 321.701 50.2246 321.701H68.7746C72.4223 321.701 75.3996 324.678 75.3996 328.326V346.876C75.3996 350.523 72.4223 353.501 68.7746 353.501Z" fill="url(#paint5_linear_1_3230)"/>
<path d="M62.7119 337.523L60.9349 334.156C60.3737 333.08 59.0331 332.659 57.9575 333.221L49.7737 337.523C48.6981 338.084 48.2772 339.425 48.8384 340.5L50.6155 343.867C51.1766 344.943 52.5172 345.364 53.5928 344.803L54.1228 344.522C54.1228 344.522 55.6193 347.406 56.2116 348.497C56.804 349.588 57.5366 349.354 58.2381 349.043C58.9396 348.731 59.9528 348.029 59.9528 348.029L57.1158 342.963L61.7922 340.516C62.8522 339.939 63.2731 338.599 62.7119 337.523Z" fill="#6293DF"/>
<path d="M58.2377 349.044C58.9391 348.732 59.9524 348.031 59.9524 348.031L57.1153 342.964L60.4824 341.203L58.3935 337.711L49.7733 342.279L50.615 343.884C51.1762 344.96 52.5168 345.381 53.5924 344.819L54.1224 344.539C54.1224 344.539 55.6188 347.423 56.2112 348.514C56.788 349.589 57.5362 349.356 58.2377 349.044Z" fill="#84A7E3"/>
<path d="M54.2166 335.108L58.2228 342.325L68.1369 340.454L61.3872 327.672L54.2166 335.108Z" fill="white"/>
<path d="M66.6404 334.842C67.5616 334.842 68.3084 334.095 68.3084 333.174C68.3084 332.253 67.5616 331.506 66.6404 331.506C65.7192 331.506 64.9725 332.253 64.9725 333.174C64.9725 334.095 65.7192 334.842 66.6404 334.842Z" fill="white"/>
<path d="M68.1676 340.75L61.1373 327.391C60.9658 327.064 61.0905 326.659 61.4178 326.503L62.4155 325.973C62.7428 325.801 63.1481 325.926 63.304 326.253L70.3343 339.612C70.5058 339.94 70.3811 340.345 70.0537 340.501L69.0561 341.031C68.7443 341.202 68.339 341.078 68.1676 340.75Z" fill="#6293DF"/>
<path d="M58.2218 342.324L68.0268 340.485L64.8 334.359L56.2733 338.817L58.2218 342.324Z" fill="#E7E9EA"/>
<path d="M69.0738 341.031L70.0714 340.501C70.3988 340.329 70.5235 339.924 70.352 339.612L67.0317 333.299L64.8338 334.39L68.1853 340.766C68.3412 341.078 68.7464 341.202 69.0738 341.031Z" fill="#84A7E3"/>
</g>
<g filter="url(#filter10_d_1_3230)">
<rect x="111.175" y="319.05" width="47.9" height="17.3" rx="5.3" fill="white"/>
<rect x="111.507" y="319.381" width="47.2375" height="16.6375" rx="4.96875" stroke="#E3E8EF" stroke-width="0.6625"/>
<path d="M122.067 330.827C120.541 330.827 119.491 329.722 119.491 327.885C119.491 326.065 120.525 324.928 122.075 324.928C123.474 324.928 124.221 325.675 124.468 326.908L123.562 326.955C123.41 326.184 122.933 325.715 122.075 325.715C121.049 325.715 120.382 326.542 120.382 327.885C120.382 329.237 121.057 330.04 122.067 330.04C122.981 330.04 123.466 329.523 123.601 328.68L124.508 328.728C124.293 330.008 123.458 330.827 122.067 330.827ZM127.193 330.795C125.977 330.795 125.182 329.929 125.182 328.585C125.182 327.241 125.977 326.375 127.193 326.375C128.401 326.375 129.196 327.241 129.196 328.585C129.196 329.929 128.401 330.795 127.193 330.795ZM127.193 330.064C127.908 330.064 128.322 329.515 128.322 328.585C128.322 327.655 127.908 327.106 127.193 327.106C126.477 327.106 126.056 327.655 126.056 328.585C126.056 329.515 126.477 330.064 127.193 330.064ZM130.094 330.7V326.47H130.865L130.889 327.202C131.112 326.629 131.596 326.375 132.169 326.375C133.115 326.375 133.6 327.059 133.6 327.981V330.7H132.757V328.235C132.757 327.488 132.527 327.082 131.938 327.082C131.342 327.082 130.937 327.488 130.937 328.235V330.7H130.094ZM134.643 330.7V326.47H135.415L135.438 327.202C135.661 326.629 136.146 326.375 136.718 326.375C137.664 326.375 138.149 327.059 138.149 327.981V330.7H137.307V328.235C137.307 327.488 137.076 327.082 136.488 327.082C135.892 327.082 135.486 327.488 135.486 328.235V330.7H134.643ZM140.989 330.795C139.764 330.795 138.985 329.921 138.985 328.585C138.985 327.249 139.764 326.375 140.965 326.375C142.118 326.375 142.905 327.194 142.905 328.617V328.831H139.868C139.908 329.658 140.329 330.072 140.997 330.072C141.498 330.072 141.831 329.825 141.967 329.428L142.841 329.483C142.618 330.27 141.927 330.795 140.989 330.795ZM142.006 328.195C141.959 327.448 141.545 327.09 140.965 327.09C140.369 327.09 139.963 327.48 139.868 328.195H142.006ZM145.569 330.795C144.345 330.795 143.558 329.921 143.558 328.585C143.558 327.249 144.345 326.375 145.569 326.375C146.595 326.375 147.318 326.931 147.454 327.909L146.579 327.957C146.492 327.408 146.102 327.106 145.569 327.106C144.854 327.106 144.433 327.655 144.433 328.585C144.433 329.515 144.854 330.064 145.569 330.064C146.102 330.064 146.492 329.762 146.579 329.149L147.454 329.197C147.318 330.167 146.603 330.795 145.569 330.795ZM149.712 330.7C148.909 330.7 148.535 330.35 148.535 329.555V327.162H147.891V326.47H148.535V325.477H149.378V326.47H150.499V327.162H149.378V329.491C149.378 329.889 149.545 330.008 149.895 330.008H150.499V330.7H149.712Z" fill="#121B26"/>
</g>
</g>
<g filter="url(#filter11_d_1_3230)">
<path d="M182.725 316.4C182.725 313.473 185.098 311.1 188.025 311.1H311.25C314.177 311.1 316.55 313.473 316.55 316.4V401.2C316.55 404.127 314.177 406.5 311.25 406.5H188.025C185.098 406.5 182.725 404.127 182.725 401.2V316.4Z" fill="white" shape-rendering="crispEdges"/>
<path d="M188.025 310.769C184.915 310.769 182.394 313.29 182.394 316.4V401.2C182.394 404.31 184.915 406.831 188.025 406.831H311.25C314.36 406.831 316.881 404.31 316.881 401.2V316.4C316.881 313.29 314.36 310.769 311.25 310.769H188.025Z" stroke="#E3E8EF" stroke-width="0.6625" shape-rendering="crispEdges"/>
<path d="M212.591 332.55C213.664 330.675 213.027 328.278 211.168 327.195C209.308 326.113 206.931 326.755 205.857 328.63L197.829 342.65C196.756 344.524 197.393 346.921 199.252 348.004C201.112 349.086 203.489 348.444 204.563 346.569L212.591 332.55Z" fill="#F8BB2D"/>
<path d="M205.079 344.611C205.079 346.777 203.338 348.532 201.19 348.532C199.043 348.532 197.302 346.777 197.302 344.611C197.302 342.446 199.043 340.69 201.19 340.69C203.338 340.69 205.079 342.446 205.079 344.611Z" fill="#3BA757"/>
<path d="M205.869 332.55C204.795 330.675 205.432 328.278 207.292 327.195C209.151 326.113 211.529 326.755 212.602 328.63L220.63 342.65C221.704 344.524 221.067 346.921 219.207 348.004C217.348 349.086 214.97 348.444 213.897 346.569L205.869 332.55Z" fill="#4689F2"/>
<g filter="url(#filter12_d_1_3230)">
<rect x="260.9" y="319.05" width="47.9" height="17.3" rx="5.3" fill="white"/>
<rect x="261.232" y="319.381" width="47.2375" height="16.6375" rx="4.96875" stroke="#E3E8EF" stroke-width="0.6625"/>
<path d="M271.792 330.827C270.266 330.827 269.216 329.722 269.216 327.885C269.216 326.065 270.25 324.928 271.8 324.928C273.199 324.928 273.946 325.675 274.193 326.908L273.287 326.955C273.135 326.184 272.658 325.715 271.8 325.715C270.774 325.715 270.107 326.542 270.107 327.885C270.107 329.237 270.782 330.04 271.792 330.04C272.706 330.04 273.191 329.523 273.326 328.68L274.233 328.728C274.018 330.008 273.183 330.827 271.792 330.827ZM276.918 330.795C275.702 330.795 274.907 329.929 274.907 328.585C274.907 327.241 275.702 326.375 276.918 326.375C278.126 326.375 278.921 327.241 278.921 328.585C278.921 329.929 278.126 330.795 276.918 330.795ZM276.918 330.064C277.633 330.064 278.047 329.515 278.047 328.585C278.047 327.655 277.633 327.106 276.918 327.106C276.202 327.106 275.781 327.655 275.781 328.585C275.781 329.515 276.202 330.064 276.918 330.064ZM279.819 330.7V326.47H280.59L280.614 327.202C280.837 326.629 281.321 326.375 281.894 326.375C282.84 326.375 283.325 327.059 283.325 327.981V330.7H282.482V328.235C282.482 327.488 282.252 327.082 281.663 327.082C281.067 327.082 280.662 327.488 280.662 328.235V330.7H279.819ZM284.368 330.7V326.47H285.14L285.163 327.202C285.386 326.629 285.871 326.375 286.443 326.375C287.389 326.375 287.874 327.059 287.874 327.981V330.7H287.032V328.235C287.032 327.488 286.801 327.082 286.213 327.082C285.617 327.082 285.211 327.488 285.211 328.235V330.7H284.368ZM290.714 330.795C289.489 330.795 288.71 329.921 288.71 328.585C288.71 327.249 289.489 326.375 290.69 326.375C291.843 326.375 292.63 327.194 292.63 328.617V328.831H289.593C289.633 329.658 290.054 330.072 290.722 330.072C291.223 330.072 291.556 329.825 291.692 329.428L292.566 329.483C292.343 330.27 291.652 330.795 290.714 330.795ZM291.731 328.195C291.684 327.448 291.27 327.09 290.69 327.09C290.094 327.09 289.688 327.48 289.593 328.195H291.731ZM295.294 330.795C294.07 330.795 293.283 329.921 293.283 328.585C293.283 327.249 294.07 326.375 295.294 326.375C296.32 326.375 297.043 326.931 297.179 327.909L296.304 327.957C296.217 327.408 295.827 327.106 295.294 327.106C294.579 327.106 294.158 327.655 294.158 328.585C294.158 329.515 294.579 330.064 295.294 330.064C295.827 330.064 296.217 329.762 296.304 329.149L297.179 329.197C297.043 330.167 296.328 330.795 295.294 330.795ZM299.437 330.7C298.634 330.7 298.26 330.35 298.26 329.555V327.162H297.616V326.47H298.26V325.477H299.103V326.47H300.224V327.162H299.103V329.491C299.103 329.889 299.27 330.008 299.62 330.008H300.224V330.7H299.437Z" fill="#121B26"/>
</g>
</g>
</g>
<rect x="0.5" y="0.5" width="533" height="341" rx="11.5" stroke="#CFD5DE"/>
<defs>
<filter id="filter0_d_1_3230" x="24.3875" y="50.6375" width="161.317" height="112.625" filterUnits="userSpaceOnUse" color-interpolation-filters="sRGB">
<feFlood flood-opacity="0" result="BackgroundImageFix"/>
<feColorMatrix in="SourceAlpha" type="matrix" values="0 0 0 0 0 0 0 0 0 0 0 0 0 0 0 0 0 0 127 0" result="hardAlpha"/>
<feOffset dy="2.65"/>
<feGaussianBlur stdDeviation="3.975"/>
<feComposite in2="hardAlpha" operator="out"/>
<feColorMatrix type="matrix" values="0 0 0 0 0.12549 0 0 0 0 0.160784 0 0 0 0 0.223529 0 0 0 0.05 0"/>
<feBlend mode="normal" in2="BackgroundImageFix" result="effect1_dropShadow_1_3230"/>
<feBlend mode="normal" in="SourceGraphic" in2="effect1_dropShadow_1_3230" result="shape"/>
</filter>
<filter id="filter1_d_1_3230" x="190.342" y="55.275" width="149.392" height="100.7" filterUnits="userSpaceOnUse" color-interpolation-filters="sRGB">
<feFlood flood-opacity="0" result="BackgroundImageFix"/>
<feColorMatrix in="SourceAlpha" type="matrix" values="0 0 0 0 0 0 0 0 0 0 0 0 0 0 0 0 0 0 127 0" result="hardAlpha"/>
<feOffset dy="1.325"/>
<feGaussianBlur stdDeviation="0.99375"/>
<feComposite in2="hardAlpha" operator="out"/>
<feColorMatrix type="matrix" values="0 0 0 0 0.12549 0 0 0 0 0.160784 0 0 0 0 0.223529 0 0 0 0.04 0"/>
<feBlend mode="normal" in2="BackgroundImageFix" result="effect1_dropShadow_1_3230"/>
<feBlend mode="normal" in="SourceGraphic" in2="effect1_dropShadow_1_3230" result="shape"/>
</filter>
<filter id="filter2_d_1_3230" x="275.066" y="62.6807" width="59.9" height="29.3" filterUnits="userSpaceOnUse" color-interpolation-filters="sRGB">
<feFlood flood-opacity="0" result="BackgroundImageFix"/>
<feColorMatrix in="SourceAlpha" type="matrix" values="0 0 0 0 0 0 0 0 0 0 0 0 0 0 0 0 0 0 127 0" result="hardAlpha"/>
<feMorphology radius="10" operator="erode" in="SourceAlpha" result="effect1_dropShadow_1_3230"/>
<feOffset dy="4"/>
<feGaussianBlur stdDeviation="8"/>
<feComposite in2="hardAlpha" operator="out"/>
<feColorMatrix type="matrix" values="0 0 0 0 0.113725 0 0 0 0 0.160784 0 0 0 0 0.223529 0 0 0 0.3 0"/>
<feBlend mode="normal" in2="BackgroundImageFix" result="effect1_dropShadow_1_3230"/>
<feBlend mode="normal" in="SourceGraphic" in2="effect1_dropShadow_1_3230" result="shape"/>
</filter>
<filter id="filter3_d_1_3230" x="350.333" y="55.275" width="149.392" height="100.7" filterUnits="userSpaceOnUse" color-interpolation-filters="sRGB">
<feFlood flood-opacity="0" result="BackgroundImageFix"/>
<feColorMatrix in="SourceAlpha" type="matrix" values="0 0 0 0 0 0 0 0 0 0 0 0 0 0 0 0 0 0 127 0" result="hardAlpha"/>
<feOffset dy="1.325"/>
<feGaussianBlur stdDeviation="0.99375"/>
<feComposite in2="hardAlpha" operator="out"/>
<feColorMatrix type="matrix" values="0 0 0 0 0.12549 0 0 0 0 0.160784 0 0 0 0 0.223529 0 0 0 0.04 0"/>
<feBlend mode="normal" in2="BackgroundImageFix" result="effect1_dropShadow_1_3230"/>
<feBlend mode="normal" in="SourceGraphic" in2="effect1_dropShadow_1_3230" result="shape"/>
</filter>
<filter id="filter4_d_1_3230" x="434.101" y="62.5508" width="59.9" height="29.3" filterUnits="userSpaceOnUse" color-interpolation-filters="sRGB">
<feFlood flood-opacity="0" result="BackgroundImageFix"/>
<feColorMatrix in="SourceAlpha" type="matrix" values="0 0 0 0 0 0 0 0 0 0 0 0 0 0 0 0 0 0 127 0" result="hardAlpha"/>
<feMorphology radius="10" operator="erode" in="SourceAlpha" result="effect1_dropShadow_1_3230"/>
<feOffset dy="4"/>
<feGaussianBlur stdDeviation="8"/>
<feComposite in2="hardAlpha" operator="out"/>
<feColorMatrix type="matrix" values="0 0 0 0 0.113725 0 0 0 0 0.160784 0 0 0 0 0.223529 0 0 0 0.3 0"/>
<feBlend mode="normal" in2="BackgroundImageFix" result="effect1_dropShadow_1_3230"/>
<feBlend mode="normal" in="SourceGraphic" in2="effect1_dropShadow_1_3230" result="shape"/>
</filter>
<filter id="filter5_d_1_3230" x="30.35" y="166.575" width="149.238" height="100.7" filterUnits="userSpaceOnUse" color-interpolation-filters="sRGB">
<feFlood flood-opacity="0" result="BackgroundImageFix"/>
<feColorMatrix in="SourceAlpha" type="matrix" values="0 0 0 0 0 0 0 0 0 0 0 0 0 0 0 0 0 0 127 0" result="hardAlpha"/>
<feOffset dy="1.325"/>
<feGaussianBlur stdDeviation="0.99375"/>
<feComposite in2="hardAlpha" operator="out"/>
<feColorMatrix type="matrix" values="0 0 0 0 0.12549 0 0 0 0 0.160784 0 0 0 0 0.223529 0 0 0 0.04 0"/>
<feBlend mode="normal" in2="BackgroundImageFix" result="effect1_dropShadow_1_3230"/>
<feBlend mode="normal" in="SourceGraphic" in2="effect1_dropShadow_1_3230" result="shape"/>
</filter>
<filter id="filter6_d_1_3230" x="114.117" y="173.851" width="59.9" height="29.3" filterUnits="userSpaceOnUse" color-interpolation-filters="sRGB">
<feFlood flood-opacity="0" result="BackgroundImageFix"/>
<feColorMatrix in="SourceAlpha" type="matrix" values="0 0 0 0 0 0 0 0 0 0 0 0 0 0 0 0 0 0 127 0" result="hardAlpha"/>
<feMorphology radius="10" operator="erode" in="SourceAlpha" result="effect1_dropShadow_1_3230"/>
<feOffset dy="4"/>
<feGaussianBlur stdDeviation="8"/>
<feComposite in2="hardAlpha" operator="out"/>
<feColorMatrix type="matrix" values="0 0 0 0 0.113725 0 0 0 0 0.160784 0 0 0 0 0.223529 0 0 0 0.3 0"/>
<feBlend mode="normal" in2="BackgroundImageFix" result="effect1_dropShadow_1_3230"/>
<feBlend mode="normal" in="SourceGraphic" in2="effect1_dropShadow_1_3230" result="shape"/>
</filter>
<filter id="filter7_d_1_3230" x="190.43" y="166.575" width="149.238" height="100.7" filterUnits="userSpaceOnUse" color-interpolation-filters="sRGB">
<feFlood flood-opacity="0" result="BackgroundImageFix"/>
<feColorMatrix in="SourceAlpha" type="matrix" values="0 0 0 0 0 0 0 0 0 0 0 0 0 0 0 0 0 0 127 0" result="hardAlpha"/>
<feOffset dy="1.325"/>
<feGaussianBlur stdDeviation="0.99375"/>
<feComposite in2="hardAlpha" operator="out"/>
<feColorMatrix type="matrix" values="0 0 0 0 0.12549 0 0 0 0 0.160784 0 0 0 0 0.223529 0 0 0 0.04 0"/>
<feBlend mode="normal" in2="BackgroundImageFix" result="effect1_dropShadow_1_3230"/>
<feBlend mode="normal" in="SourceGraphic" in2="effect1_dropShadow_1_3230" result="shape"/>
</filter>
<filter id="filter8_d_1_3230" x="274.197" y="173.851" width="59.9" height="29.3" filterUnits="userSpaceOnUse" color-interpolation-filters="sRGB">
<feFlood flood-opacity="0" result="BackgroundImageFix"/>
<feColorMatrix in="SourceAlpha" type="matrix" values="0 0 0 0 0 0 0 0 0 0 0 0 0 0 0 0 0 0 127 0" result="hardAlpha"/>
<feMorphology radius="10" operator="erode" in="SourceAlpha" result="effect1_dropShadow_1_3230"/>
<feOffset dy="4"/>
<feGaussianBlur stdDeviation="8"/>
<feComposite in2="hardAlpha" operator="out"/>
<feColorMatrix type="matrix" values="0 0 0 0 0.113725 0 0 0 0 0.160784 0 0 0 0 0.223529 0 0 0 0.3 0"/>
<feBlend mode="normal" in2="BackgroundImageFix" result="effect1_dropShadow_1_3230"/>
<feBlend mode="normal" in="SourceGraphic" in2="effect1_dropShadow_1_3230" result="shape"/>
</filter>
<filter id="filter9_d_1_3230" x="30.35" y="309.775" width="139.125" height="100.7" filterUnits="userSpaceOnUse" color-interpolation-filters="sRGB">
<feFlood flood-opacity="0" result="BackgroundImageFix"/>
<feColorMatrix in="SourceAlpha" type="matrix" values="0 0 0 0 0 0 0 0 0 0 0 0 0 0 0 0 0 0 127 0" result="hardAlpha"/>
<feOffset dy="1.325"/>
<feGaussianBlur stdDeviation="0.99375"/>
<feComposite in2="hardAlpha" operator="out"/>
<feColorMatrix type="matrix" values="0 0 0 0 0.12549 0 0 0 0 0.160784 0 0 0 0 0.223529 0 0 0 0.04 0"/>
<feBlend mode="normal" in2="BackgroundImageFix" result="effect1_dropShadow_1_3230"/>
<feBlend mode="normal" in="SourceGraphic" in2="effect1_dropShadow_1_3230" result="shape"/>
</filter>
<filter id="filter10_d_1_3230" x="105.175" y="317.05" width="59.9" height="29.3" filterUnits="userSpaceOnUse" color-interpolation-filters="sRGB">
<feFlood flood-opacity="0" result="BackgroundImageFix"/>
<feColorMatrix in="SourceAlpha" type="matrix" values="0 0 0 0 0 0 0 0 0 0 0 0 0 0 0 0 0 0 127 0" result="hardAlpha"/>
<feMorphology radius="10" operator="erode" in="SourceAlpha" result="effect1_dropShadow_1_3230"/>
<feOffset dy="4"/>
<feGaussianBlur stdDeviation="8"/>
<feComposite in2="hardAlpha" operator="out"/>
<feColorMatrix type="matrix" values="0 0 0 0 0.113725 0 0 0 0 0.160784 0 0 0 0 0.223529 0 0 0 0.3 0"/>
<feBlend mode="normal" in2="BackgroundImageFix" result="effect1_dropShadow_1_3230"/>
<feBlend mode="normal" in="SourceGraphic" in2="effect1_dropShadow_1_3230" result="shape"/>
</filter>
<filter id="filter11_d_1_3230" x="180.075" y="309.775" width="139.125" height="100.7" filterUnits="userSpaceOnUse" color-interpolation-filters="sRGB">
<feFlood flood-opacity="0" result="BackgroundImageFix"/>
<feColorMatrix in="SourceAlpha" type="matrix" values="0 0 0 0 0 0 0 0 0 0 0 0 0 0 0 0 0 0 127 0" result="hardAlpha"/>
<feOffset dy="1.325"/>
<feGaussianBlur stdDeviation="0.99375"/>
<feComposite in2="hardAlpha" operator="out"/>
<feColorMatrix type="matrix" values="0 0 0 0 0.12549 0 0 0 0 0.160784 0 0 0 0 0.223529 0 0 0 0.04 0"/>
<feBlend mode="normal" in2="BackgroundImageFix" result="effect1_dropShadow_1_3230"/>
<feBlend mode="normal" in="SourceGraphic" in2="effect1_dropShadow_1_3230" result="shape"/>
</filter>
<filter id="filter12_d_1_3230" x="254.9" y="317.05" width="59.9" height="29.3" filterUnits="userSpaceOnUse" color-interpolation-filters="sRGB">
<feFlood flood-opacity="0" result="BackgroundImageFix"/>
<feColorMatrix in="SourceAlpha" type="matrix" values="0 0 0 0 0 0 0 0 0 0 0 0 0 0 0 0 0 0 127 0" result="hardAlpha"/>
<feMorphology radius="10" operator="erode" in="SourceAlpha" result="effect1_dropShadow_1_3230"/>
<feOffset dy="4"/>
<feGaussianBlur stdDeviation="8"/>
<feComposite in2="hardAlpha" operator="out"/>
<feColorMatrix type="matrix" values="0 0 0 0 0.113725 0 0 0 0 0.160784 0 0 0 0 0.223529 0 0 0 0.3 0"/>
<feBlend mode="normal" in2="BackgroundImageFix" result="effect1_dropShadow_1_3230"/>
<feBlend mode="normal" in="SourceGraphic" in2="effect1_dropShadow_1_3230" result="shape"/>
</filter>
<linearGradient id="paint0_linear_1_3230" x1="267" y1="0" x2="267" y2="171.148" gradientUnits="userSpaceOnUse">
<stop stop-color="#F5F7FA"/>
<stop offset="0.66754" stop-color="white"/>
</linearGradient>
<linearGradient id="paint1_linear_1_3230" x1="59.5016" y1="69.1863" x2="59.5016" y2="96.9288" gradientUnits="userSpaceOnUse">
<stop stop-color="#18ACFE"/>
<stop offset="1" stop-color="#0163E0"/>
</linearGradient>
<radialGradient id="paint2_radial_1_3230" cx="0" cy="0" r="1" gradientUnits="userSpaceOnUse" gradientTransform="translate(215.583 90.1849) rotate(-55.3758) scale(25.3601)">
<stop stop-color="#B13589"/>
<stop offset="0.79309" stop-color="#C62F94"/>
<stop offset="1" stop-color="#8A3AC8"/>
</radialGradient>
<radialGradient id="paint3_radial_1_3230" cx="0" cy="0" r="1" gradientUnits="userSpaceOnUse" gradientTransform="translate(214.589 98.1349) rotate(-65.1363) scale(22.453)">
<stop stop-color="#E0E8B7"/>
<stop offset="0.444662" stop-color="#FB8A2E"/>
<stop offset="0.71474" stop-color="#E2425C"/>
<stop offset="1" stop-color="#E2425C" stop-opacity="0"/>
</radialGradient>
<radialGradient id="paint4_radial_1_3230" cx="0" cy="0" r="1" gradientUnits="userSpaceOnUse" gradientTransform="translate(204.155 70.3099) rotate(-8.1301) scale(38.6478 8.26637)">
<stop offset="0.156701" stop-color="#406ADC"/>
<stop offset="0.467799" stop-color="#6A45BE"/>
<stop offset="1" stop-color="#6A45BE" stop-opacity="0"/>
</radialGradient>
<linearGradient id="paint5_linear_1_3230" x1="59.4997" y1="353.501" x2="59.4997" y2="321.701" gradientUnits="userSpaceOnUse">
<stop stop-color="#263B74"/>
<stop offset="1" stop-color="#4D78BF"/>
</linearGradient>
<clipPath id="clip0_1_3230">
<rect width="534" height="342" rx="12" fill="white"/>
</clipPath>
<clipPath id="clip1_1_3230">
<rect x="365.856" y="69.4709" width="27.2571" height="27.2571" rx="5.11071" fill="white"/>
</clipPath>
<clipPath id="clip2_1_3230">
<rect width="31.8" height="31.8" fill="white" transform="translate(43.6016 321.701)"/>
</clipPath>
</defs>
</svg>
