<svg width="534" height="342"  class=' w-[100px] sm:w-[534px] sm:h-[342px] ' viewBox="0 0 534 342" fill="none" xmlns="http://www.w3.org/2000/svg">
<rect x="0.5" y="0.5" width="533" height="341" rx="11.5" fill="white"/>
<rect x="0.5" y="0.5" width="533" height="341" rx="11.5" fill="url(#paint0_linear_1_2025)"/>
<rect x="0.5" y="0.5" width="533" height="341" rx="11.5" stroke="#CFD5DE"/>
<g clip-path="url(#clip0_1_2025)">
<rect x="36" y="29" width="462" height="278" rx="12" fill="url(#paint1_linear_1_2025)"/>
<path d="M66.1076 73.6756C62.1573 73.6756 59.7692 71.466 59.5014 68.1629L62.4474 67.9844C62.7375 70.0377 63.9427 71.1759 66.1523 71.1759C68.0047 71.1759 69.0983 70.484 69.0983 69.1226C69.0983 67.8951 68.4734 67.1586 65.2372 66.3998C61.3092 65.507 59.8361 64.3911 59.8361 61.8021C59.8361 59.0347 61.9787 57.1153 65.5497 57.1153C69.3215 57.1153 71.4194 59.3248 71.7542 62.3824L68.8305 62.5163C68.6296 60.7978 67.4914 59.6149 65.505 59.6149C63.8088 59.6149 62.7822 60.463 62.7822 61.6906C62.7822 62.985 63.541 63.476 66.3531 64.1233C70.616 65.0383 72.0443 66.6006 72.0443 68.9664C72.0443 71.8678 69.6786 73.6756 66.1076 73.6756ZM78.7169 73.5863C76.2842 73.5863 74.7888 71.9124 74.7888 69.078V61.4004H77.6456V68.3638C77.6456 70.3724 78.2928 71.2652 79.6766 71.2652C81.2165 71.2652 82.1093 70.2162 82.1093 68.2522V61.4004H84.966V73.3185H82.3548L82.3101 71.3321C81.7075 72.8275 80.48 73.5863 78.7169 73.5863ZM88.1058 76.6663V61.4004H90.851L90.8956 63.1636C91.5875 61.8468 92.9043 61.1326 94.4666 61.1326C97.859 61.1326 99.5329 63.9224 99.5329 67.3594C99.5329 70.7965 97.8367 73.5863 94.4442 73.5863C92.9266 73.5863 91.6098 72.8498 90.9626 71.6892V76.6663H88.1058ZM93.7747 71.2652C95.5155 71.2652 96.5645 69.8145 96.5645 67.3594C96.5645 64.9044 95.5155 63.4537 93.7747 63.4537C92.0338 63.4537 90.9626 64.7705 90.9626 67.3594C90.9626 69.9484 92.0115 71.2652 93.7747 71.2652ZM107.059 73.5863C103.488 73.5863 101.211 71.1313 101.211 67.3594C101.211 63.6099 103.488 61.1326 106.992 61.1326C110.407 61.1326 112.661 63.4984 112.661 67.5157V68.1629H104.18C104.291 70.2609 105.385 71.3098 107.081 71.3098C108.353 71.3098 109.224 70.7072 109.559 69.6583L112.482 69.8368C111.835 72.1579 109.804 73.5863 107.059 73.5863ZM109.692 66.2435C109.559 64.3018 108.51 63.3868 106.992 63.3868C105.452 63.3868 104.403 64.3911 104.18 66.2435H109.692ZM114.958 73.3185V61.4004H117.636L117.703 63.6992C118.172 62.0923 119.109 61.4004 120.56 61.4004H121.653V63.8554H120.537C118.707 63.8554 117.814 64.6143 117.814 66.4444V73.3185H114.958ZM124.052 73.3185V57.4724H127.957L132.332 69.7475L136.706 57.4724H140.612V73.3185H137.711V62.3824L133.716 73.2962H130.948L126.953 62.3824V73.3185H124.052ZM149.102 73.5863C145.531 73.5863 143.255 71.1313 143.255 67.3594C143.255 63.6099 145.531 61.1326 149.035 61.1326C152.45 61.1326 154.704 63.4984 154.704 67.5157V68.1629H146.223C146.335 70.2609 147.428 71.3098 149.124 71.3098C150.397 71.3098 151.267 70.7072 151.602 69.6583L154.526 69.8368C153.878 72.1579 151.847 73.5863 149.102 73.5863ZM151.736 66.2435C151.602 64.3018 150.553 63.3868 149.035 63.3868C147.495 63.3868 146.446 64.3911 146.223 66.2435H151.736ZM161.341 73.3185C158.975 73.3185 157.882 72.2695 157.882 69.9038V63.6099H156.007V61.4004H157.882V58.6106H160.739V61.4004H163.886V63.6099H160.739V69.6359C160.739 70.7519 161.207 71.109 162.212 71.109H163.886V73.3185H161.341ZM166.242 73.3185V61.4004H168.92L168.987 63.6992C169.456 62.0923 170.393 61.4004 171.844 61.4004H172.938V63.8554H171.822C169.992 63.8554 169.099 64.6143 169.099 66.4444V73.3185H166.242ZM175.113 73.3185V61.4004H177.97V73.3185H175.113ZM175.068 59.8158V57.2715H178.037V59.8158H175.068ZM186.264 73.5863C182.715 73.5863 180.394 71.1313 180.394 67.3594C180.394 63.6099 182.715 61.1326 186.264 61.1326C189.299 61.1326 191.464 62.7842 191.821 65.6186L188.875 65.7748C188.652 64.2572 187.648 63.4537 186.264 63.4537C184.411 63.4537 183.362 64.9044 183.362 67.3594C183.362 69.8368 184.411 71.2652 186.264 71.2652C187.648 71.2652 188.652 70.4617 188.875 68.7878L191.821 68.9217C191.486 71.7785 189.344 73.5863 186.264 73.5863ZM198.854 73.5863C195.328 73.5863 193.475 71.9124 193.297 69.569L196.221 69.4351C196.422 70.6849 197.203 71.3991 198.854 71.3991C200.193 71.3991 200.997 70.9974 200.997 70.06C200.997 69.2565 200.595 68.8994 198.386 68.52C194.725 67.8951 193.587 66.9131 193.587 64.8821C193.587 62.6726 195.328 61.1326 198.631 61.1326C201.845 61.1326 203.496 62.8511 203.831 65.1499L200.93 65.2838C200.729 64.0786 199.926 63.3198 198.609 63.3198C197.247 63.3198 196.555 63.9224 196.555 64.7928C196.555 65.7525 197.18 66.1319 198.988 66.4221C202.738 67.0024 203.965 68.029 203.965 70.0153C203.965 72.3142 201.89 73.5863 198.854 73.5863ZM205.786 73.3185V70.1939H209.067V73.3185H205.786ZM216.756 73.5863C213.207 73.5863 210.886 71.1313 210.886 67.3594C210.886 63.6099 213.207 61.1326 216.756 61.1326C219.791 61.1326 221.956 62.7842 222.313 65.6186L219.367 65.7748C219.144 64.2572 218.139 63.4537 216.756 63.4537C214.903 63.4537 213.854 64.9044 213.854 67.3594C213.854 69.8368 214.903 71.2652 216.756 71.2652C218.139 71.2652 219.144 70.4617 219.367 68.7878L222.313 68.9217C221.978 71.7785 219.836 73.5863 216.756 73.5863ZM229.658 73.5863C226.11 73.5863 223.789 71.1313 223.789 67.3594C223.789 63.5876 226.11 61.1326 229.658 61.1326C233.185 61.1326 235.506 63.5876 235.506 67.3594C235.506 71.1313 233.185 73.5863 229.658 73.5863ZM229.658 71.2652C231.489 71.2652 232.56 69.8368 232.56 67.3594C232.56 64.9044 231.489 63.4537 229.658 63.4537C227.806 63.4537 226.757 64.9044 226.757 67.3594C226.757 69.8368 227.806 71.2652 229.658 71.2652ZM237.818 73.3185V61.4004H240.407L240.474 63.4091C241.054 61.9584 242.26 61.1326 243.755 61.1326C245.496 61.1326 246.701 62.0477 247.214 63.5876C247.75 62.003 248.978 61.1326 250.629 61.1326C253.084 61.1326 254.602 62.7172 254.602 65.6632V73.3185H251.745V66.3998C251.745 64.4357 251.098 63.4537 249.714 63.4537C248.353 63.4537 247.527 64.5696 247.527 66.489V73.3185H244.871V66.489C244.871 64.5473 244.335 63.4537 242.885 63.4537C241.523 63.4537 240.675 64.592 240.675 66.489V73.3185H237.818Z" fill="#212F40"/>
<path d="M67.0673 117.318V114.149H59.1442V111.784L66.5986 101.472H69.9687V111.627H71.8658V114.149H69.9687V117.318H67.0673ZM62.3135 111.627H67.0673V105.244L62.3135 111.627ZM73.1608 117.318V114.194H76.4416V117.318H73.1608ZM83.9744 117.676C81.1177 117.676 79.3768 116.27 78.6849 113.926L81.5194 113.748C81.8542 114.663 82.6576 115.176 83.9744 115.176C86.117 115.176 87.2776 113.77 87.4784 110.4C86.6526 111.583 85.3805 112.208 83.7066 112.208C80.582 112.208 78.4171 110.043 78.4171 106.806C78.4171 103.325 80.7829 101.115 84.2199 101.115C88.4381 101.115 90.4021 103.927 90.4021 108.726C90.4021 114.172 88.5274 117.676 83.9744 117.676ZM84.2422 109.931C86.0724 109.931 87.2999 108.771 87.2999 106.806C87.2999 104.865 86.184 103.548 84.3092 103.548C82.4791 103.548 81.3632 104.842 81.3632 106.784C81.3632 108.726 82.5237 109.931 84.2422 109.931Z" fill="#212F40"/>
<path fill-rule="evenodd" clip-rule="evenodd" d="M108.183 100.123C108.652 98.9963 110.25 98.9963 110.719 100.123L112.897 105.36L118.55 105.814C119.768 105.912 120.262 107.431 119.334 108.226L115.027 111.916L116.342 117.432C116.626 118.62 115.333 119.559 114.291 118.923L109.451 115.966L104.61 118.923C103.568 119.559 102.276 118.619 102.56 117.432L103.875 111.916L99.5676 108.226C98.6396 107.431 99.1334 105.912 100.351 105.814L106.005 105.36L108.183 100.123Z" fill="#F6B51E"/>
<path d="M130.409 116.006C129.013 113.874 128.292 111.649 128.292 109.408C128.292 107.168 129.013 104.943 130.409 102.811H131.852C130.593 105.005 129.934 107.214 129.934 109.408C129.934 111.603 130.593 113.797 131.852 116.006H130.409ZM133.151 114.318C133.151 111.848 134.102 110.329 137.217 108.672C138.721 107.889 139.288 107.429 139.288 106.416C139.288 105.404 138.613 104.698 137.324 104.698C135.928 104.698 135.115 105.465 134.915 106.861L133.197 106.754C133.427 104.56 134.885 103.179 137.309 103.179C139.641 103.179 141.007 104.483 141.007 106.386C141.007 108.058 140.255 108.856 138.061 110.022C136.173 111.035 135.222 112.063 135.161 112.799H141.007V114.318H133.151ZM142.346 114.318V112.385H144.341V114.318H142.346ZM149.463 114.564C147.591 114.564 146.409 113.582 145.964 112.094L147.652 111.986C147.882 112.677 148.481 113.06 149.463 113.06C151.043 113.06 151.933 112.002 152.086 109.485C151.503 110.36 150.583 110.82 149.432 110.82C147.299 110.82 145.811 109.316 145.811 107.076C145.811 104.682 147.422 103.179 149.708 103.179C152.516 103.179 153.79 105.143 153.79 108.319C153.79 112.017 152.623 114.564 149.463 114.564ZM149.662 109.393C151.043 109.393 151.994 108.549 151.994 107.076C151.994 105.664 151.135 104.652 149.723 104.652C148.358 104.652 147.514 105.634 147.514 107.061C147.514 108.488 148.388 109.393 149.662 109.393ZM155.559 114.318V103.424H157.185V110.191L160.852 106.156H162.908L159.717 109.593L163.031 114.318H161.159L158.628 110.605L157.185 112.14V114.318H155.559ZM165.63 116.006H164.172C165.446 113.797 166.09 111.603 166.09 109.408C166.09 107.214 165.446 105.005 164.172 102.811H165.63C167.026 104.943 167.748 107.168 167.748 109.408C167.748 111.649 167.026 113.874 165.63 116.006Z" fill="#697586"/>
<path d="M178.628 114.318V112.799H181.052V106.554H178.628V105.22H179.671C180.929 105.22 181.39 104.79 181.39 103.424H182.709V112.799H184.996V114.318H178.628ZM191.046 114.564C188.468 114.564 186.934 112.385 186.934 108.887C186.934 105.388 188.483 103.179 191.046 103.179C193.624 103.179 195.158 105.373 195.158 108.887C195.158 112.37 193.624 114.564 191.046 114.564ZM191.046 113.045C192.642 113.045 193.439 111.572 193.439 108.887C193.439 106.186 192.642 104.698 191.046 104.698C189.465 104.698 188.652 106.186 188.652 108.887C188.652 111.572 189.465 113.045 191.046 113.045ZM196.513 116.727L197.28 114.318H196.421V112.385H198.416V114.088L197.449 116.727H196.513ZM203.783 114.564C201.205 114.564 199.67 112.385 199.67 108.887C199.67 105.388 201.22 103.179 203.783 103.179C206.36 103.179 207.895 105.373 207.895 108.887C207.895 112.37 206.36 114.564 203.783 114.564ZM203.783 113.045C205.378 113.045 206.176 111.572 206.176 108.887C206.176 106.186 205.378 104.698 203.783 104.698C202.202 104.698 201.389 106.186 201.389 108.887C201.389 111.572 202.202 113.045 203.783 113.045ZM213.178 114.564C210.6 114.564 209.066 112.385 209.066 108.887C209.066 105.388 210.615 103.179 213.178 103.179C215.755 103.179 217.29 105.373 217.29 108.887C217.29 112.37 215.755 114.564 213.178 114.564ZM213.178 113.045C214.773 113.045 215.571 111.572 215.571 108.887C215.571 106.186 214.773 104.698 213.178 104.698C211.597 104.698 210.784 106.186 210.784 108.887C210.784 111.572 211.597 113.045 213.178 113.045ZM222.573 114.564C219.995 114.564 218.461 112.385 218.461 108.887C218.461 105.388 220.01 103.179 222.573 103.179C225.151 103.179 226.685 105.373 226.685 108.887C226.685 112.37 225.151 114.564 222.573 114.564ZM222.573 113.045C224.169 113.045 224.967 111.572 224.967 108.887C224.967 106.186 224.169 104.698 222.573 104.698C220.992 104.698 220.179 106.186 220.179 108.887C220.179 111.572 220.992 113.045 222.573 113.045ZM234.84 114.503C233.183 114.503 232.155 113.352 232.155 111.403V106.156H233.781V110.989C233.781 112.477 234.287 113.137 235.331 113.137C236.512 113.137 237.218 112.339 237.218 110.943V106.156H238.845V114.318H237.326L237.31 112.984C236.881 113.981 236.021 114.503 234.84 114.503ZM244.127 114.503C241.825 114.503 240.583 113.352 240.46 111.741L242.148 111.664C242.286 112.569 242.869 113.137 244.127 113.137C245.14 113.137 245.784 112.83 245.784 112.109C245.784 111.511 245.477 111.25 243.835 110.974C241.411 110.544 240.659 109.838 240.659 108.503C240.659 107.015 241.81 105.971 243.928 105.971C246.014 105.971 247.119 107.168 247.349 108.657L245.677 108.749C245.523 107.905 244.925 107.337 243.912 107.337C242.853 107.337 242.347 107.797 242.347 108.442C242.347 109.163 242.838 109.454 244.173 109.669C246.705 110.084 247.472 110.759 247.472 112.094C247.472 113.628 246.076 114.503 244.127 114.503ZM252.598 114.503C250.235 114.503 248.731 112.815 248.731 110.237C248.731 107.659 250.235 105.971 252.552 105.971C254.777 105.971 256.296 107.552 256.296 110.298V110.713H250.434C250.511 112.308 251.324 113.106 252.613 113.106C253.58 113.106 254.224 112.631 254.485 111.863L256.173 111.971C255.743 113.49 254.408 114.503 252.598 114.503ZM250.434 109.485H254.562C254.47 108.043 253.672 107.352 252.552 107.352C251.401 107.352 250.618 108.104 250.434 109.485ZM258.033 114.318V106.156H259.521L259.567 107.705C259.874 106.631 260.518 106.156 261.516 106.156H262.298V107.613H261.516C260.273 107.613 259.659 108.212 259.659 109.5V114.318H258.033ZM266.828 114.503C264.527 114.503 263.284 113.352 263.161 111.741L264.849 111.664C264.987 112.569 265.57 113.137 266.828 113.137C267.841 113.137 268.485 112.83 268.485 112.109C268.485 111.511 268.179 111.25 266.537 110.974C264.112 110.544 263.361 109.838 263.361 108.503C263.361 107.015 264.511 105.971 266.629 105.971C268.716 105.971 269.82 107.168 270.051 108.657L268.378 108.749C268.225 107.905 267.626 107.337 266.613 107.337C265.555 107.337 265.048 107.797 265.048 108.442C265.048 109.163 265.539 109.454 266.874 109.669C269.406 110.084 270.173 110.759 270.173 112.094C270.173 113.628 268.777 114.503 266.828 114.503Z" fill="#697586"/>
<rect x="350.202" y="95.3185" width="125.48" height="43.74" rx="21.87" fill="#1B91F0"/>
<path d="M375.191 121.688V111.372H376.76V121.688H375.191ZM378.905 121.688V113.959H380.314L380.343 115.31C380.75 114.249 381.637 113.784 382.697 113.784C384.426 113.784 385.313 115.034 385.313 116.719V121.688H383.773V117.184C383.773 115.818 383.351 115.077 382.276 115.077C381.186 115.077 380.445 115.818 380.445 117.184V121.688H378.905ZM390.313 121.863C388.134 121.863 386.957 120.773 386.841 119.247L388.439 119.175C388.57 120.032 389.122 120.57 390.313 120.57C391.272 120.57 391.882 120.279 391.882 119.596C391.882 119.029 391.592 118.782 390.037 118.521C387.741 118.114 387.029 117.446 387.029 116.182C387.029 114.772 388.119 113.784 390.124 113.784C392.1 113.784 393.147 114.917 393.365 116.327L391.781 116.414C391.635 115.615 391.069 115.077 390.11 115.077C389.107 115.077 388.628 115.513 388.628 116.123C388.628 116.806 389.093 117.082 390.357 117.286C392.754 117.678 393.481 118.318 393.481 119.582C393.481 121.035 392.159 121.863 390.313 121.863ZM397.747 121.688C396.28 121.688 395.597 121.049 395.597 119.596V115.223H394.42V113.959H395.597V112.142H397.137V113.959H399.186V115.223H397.137V119.48C397.137 120.206 397.442 120.424 398.081 120.424H399.186V121.688H397.747ZM402.965 121.863C401.367 121.863 400.321 121.093 400.321 119.756C400.321 118.434 401.105 117.722 402.791 117.388L405.45 116.879C405.45 115.688 404.897 115.092 403.793 115.092C402.805 115.092 402.253 115.542 402.05 116.385L400.451 116.283C400.742 114.743 401.948 113.784 403.793 113.784C405.886 113.784 406.99 114.961 406.99 116.966V119.974C406.99 120.352 407.121 120.468 407.411 120.468H407.687V121.688C407.586 121.718 407.339 121.732 407.121 121.732C406.234 121.732 405.711 121.398 405.58 120.497C405.188 121.311 404.171 121.863 402.965 121.863ZM403.227 120.642C404.607 120.642 405.45 119.771 405.45 118.535V118.041L403.197 118.477C402.268 118.652 401.919 119.015 401.919 119.611C401.919 120.279 402.398 120.642 403.227 120.642ZM410.8 121.688C409.783 121.688 409.114 121.194 409.114 120.047V111.372H410.655V119.901C410.655 120.265 410.843 120.424 411.192 120.424H411.802V121.688H410.8ZM414.986 121.688C413.969 121.688 413.3 121.194 413.3 120.047V111.372H414.84V119.901C414.84 120.265 415.029 120.424 415.378 120.424H415.988V121.688H414.986ZM421.321 121.688V111.372H423.312L428.077 119.785V111.372H429.647V121.688H427.583L422.89 113.464V121.688H421.321ZM435.199 121.863C432.976 121.863 431.523 120.279 431.523 117.823C431.523 115.368 432.976 113.784 435.199 113.784C437.408 113.784 438.861 115.368 438.861 117.823C438.861 120.279 437.408 121.863 435.199 121.863ZM435.199 120.526C436.507 120.526 437.262 119.524 437.262 117.823C437.262 116.123 436.507 115.121 435.199 115.121C433.892 115.121 433.121 116.123 433.121 117.823C433.121 119.524 433.892 120.526 435.199 120.526ZM441.787 121.688L439.433 113.959H441.046L442.703 120.003L444.403 113.959H445.87L447.57 120.003L449.227 113.959H450.854L448.486 121.688H446.756L445.129 116.167L443.516 121.688H441.787Z" fill="white"/>
<g clip-path="url(#clip1_1_2025)">
<path d="M72.4408 165.461L70.6662 165.204L69.8725 163.595C69.8361 163.521 69.7797 163.459 69.7099 163.416C69.64 163.372 69.5594 163.349 69.4771 163.349C69.3948 163.349 69.3142 163.372 69.2443 163.416C69.1744 163.459 69.1181 163.521 69.0817 163.595L68.288 165.204L66.5129 165.461C66.4314 165.473 66.3549 165.507 66.2919 165.56C66.2289 165.613 66.182 165.683 66.1565 165.761C66.131 165.839 66.128 165.923 66.1477 166.003C66.1673 166.083 66.209 166.156 66.2679 166.213L67.5521 167.465L67.2488 169.233C67.2379 169.296 67.2411 169.361 67.2579 169.423C67.2748 169.485 67.3049 169.543 67.3463 169.592C67.3877 169.641 67.4393 169.68 67.4975 169.707C67.5558 169.734 67.6192 169.748 67.6834 169.748C67.7551 169.748 67.8255 169.73 67.8887 169.696L69.4761 168.863L71.0636 169.696C71.1363 169.734 71.2183 169.752 71.3005 169.746C71.3826 169.741 71.4615 169.712 71.5282 169.664C71.5949 169.616 71.6468 169.55 71.6781 169.474C71.7093 169.397 71.7186 169.314 71.7049 169.233L71.4016 167.465L72.6858 166.213C72.7553 166.146 72.8004 166.057 72.8143 165.961C72.849 165.72 72.6818 165.496 72.4408 165.461ZM70.6192 166.992C70.5677 167.042 70.5292 167.104 70.5071 167.172C70.485 167.24 70.4799 167.313 70.4923 167.384L70.6834 168.499L69.6814 167.973C69.6179 167.94 69.5472 167.923 69.4757 167.924C69.4042 167.924 69.3339 167.942 69.2708 167.976L68.2689 168.503L68.4605 167.387C68.4728 167.317 68.4677 167.244 68.4456 167.176C68.4235 167.107 68.3851 167.045 68.3336 166.995L67.5232 166.205L68.6432 166.042C68.714 166.032 68.7812 166.005 68.839 165.963C68.8969 165.921 68.9437 165.865 68.9754 165.801L69.4761 164.786L69.9769 165.801C70.0085 165.865 70.0553 165.921 70.1132 165.963C70.1711 166.005 70.2383 166.032 70.3091 166.042L71.4296 166.202L70.6192 166.992Z" fill="#146C2E"/>
<path d="M69.4766 160.908C66.3075 160.908 63.7384 163.477 63.7384 166.646C63.7384 169.815 66.3075 172.385 69.4766 172.385C72.6442 172.381 75.2113 169.814 75.2148 166.646C75.2148 163.477 72.6457 160.908 69.4766 160.908ZM69.4766 171.503C66.7945 171.503 64.6203 169.328 64.6203 166.646C64.6203 163.964 66.7945 161.79 69.4766 161.79C72.1574 161.793 74.3299 163.966 74.3329 166.646C74.3329 169.328 72.1586 171.503 69.4766 171.503Z" fill="#146C2E"/>
<path d="M77.5525 167.835L76.7275 168.148C76.8558 168.487 77.0156 168.909 76.9607 169.078C76.8989 169.269 76.5251 169.512 76.1949 169.727C75.8029 169.983 75.3571 170.273 75.0509 170.694C74.7446 171.116 74.6001 171.637 74.4761 172.093C74.3782 172.451 74.2576 172.897 74.1014 173.011C73.9451 173.124 73.4923 173.099 73.1215 173.082C72.6477 173.059 72.1107 173.033 71.6056 173.198C71.1157 173.357 70.7085 173.688 70.3479 173.979C70.0388 174.229 69.688 174.512 69.4768 174.512C69.2657 174.512 68.9148 174.229 68.6052 173.978C68.2446 173.686 67.8361 173.356 67.3481 173.198C67.0688 173.107 66.7557 173.065 66.3623 173.065C66.1806 173.065 66.0027 173.073 65.8312 173.082C65.4633 173.099 65.0057 173.121 64.8543 173.011C64.7029 172.901 64.577 172.45 64.479 172.092C64.3551 171.636 64.2149 171.12 63.9048 170.693C63.5946 170.267 63.1532 169.982 62.7603 169.726C62.4306 169.511 62.0567 169.268 61.995 169.077C61.9401 168.909 62.1003 168.487 62.2287 168.147C62.3987 167.697 62.5907 167.188 62.5907 166.646C62.5907 166.104 62.3982 165.595 62.2282 165.146C62.0998 164.807 61.9401 164.384 61.9945 164.215C62.0562 164.025 62.43 163.782 62.7603 163.566C63.1522 163.31 63.5976 163.02 63.9043 162.599C64.211 162.179 64.355 161.656 64.479 161.201C64.577 160.843 64.6975 160.397 64.8538 160.283C65.0101 160.169 65.4628 160.194 65.8312 160.212C66.305 160.234 66.8425 160.261 67.3501 160.095C67.84 159.937 68.2466 159.605 68.6077 159.315C68.9145 159.064 69.2653 158.781 69.4764 158.781C69.6875 158.781 70.0384 159.064 70.3475 159.315C70.7081 159.606 71.1167 159.937 71.6052 160.095C72.1108 160.259 72.6482 160.234 73.124 160.212C73.4919 160.195 73.9495 160.173 74.1009 160.283C74.2523 160.393 74.3758 160.842 74.4738 161.201C74.5977 161.657 74.7378 162.173 75.048 162.599C75.3581 163.026 75.7996 163.311 76.1925 163.567C76.5223 163.782 76.8961 164.025 76.9583 164.215C77.0132 164.384 76.853 164.807 76.7246 165.146C76.5546 165.595 76.362 166.105 76.362 166.646C76.362 167.188 76.5546 167.697 76.7246 168.147L77.1371 167.991L77.5496 167.835C77.3923 167.419 77.2439 167.027 77.2439 166.646C77.2439 166.266 77.3909 165.873 77.5491 165.458C77.7534 164.919 77.9469 164.406 77.7965 163.943C77.6383 163.456 77.1478 163.137 76.6736 162.828C76.3306 162.603 75.972 162.371 75.7608 162.081C75.5497 161.791 75.4336 161.371 75.3243 160.969C75.1699 160.402 75.0244 159.866 74.6173 159.57C74.2102 159.274 73.6639 159.304 73.0799 159.331C72.662 159.351 72.2293 159.371 71.8771 159.257C71.544 159.148 71.2171 158.884 70.9016 158.629C70.4562 158.27 69.9996 157.899 69.4763 157.899C68.9531 157.899 68.4965 158.27 68.0506 158.629C67.7351 158.885 67.4083 159.148 67.0751 159.257C66.7229 159.371 66.3093 159.352 65.8723 159.331C65.2883 159.304 64.7367 159.278 64.3344 159.57C63.9322 159.863 63.7818 160.403 63.6274 160.97C63.5182 161.371 63.4055 161.786 63.1909 162.081C62.9763 162.376 62.6235 162.603 62.2781 162.828C61.8039 163.137 61.3135 163.457 61.1552 163.943C61.0048 164.406 61.1983 164.917 61.4026 165.459C61.5594 165.874 61.7079 166.267 61.7079 166.647C61.7079 167.027 61.5609 167.419 61.4026 167.835C61.1983 168.374 61.0048 168.888 61.1552 169.35C61.3135 169.837 61.8039 170.157 62.2781 170.466C62.6211 170.691 62.9798 170.923 63.1904 171.213C63.4011 171.503 63.5177 171.923 63.6269 172.324C63.721 172.671 63.8126 173.006 63.9626 173.282L62.1762 177.85C62.1485 177.921 62.1397 177.998 62.1506 178.074C62.1615 178.149 62.1917 178.22 62.2383 178.281C62.2849 178.341 62.3464 178.388 62.4166 178.417C62.4869 178.447 62.5636 178.458 62.6393 178.449L65.1379 178.15L66.77 180.063C66.8196 180.121 66.8834 180.166 66.9552 180.192C67.027 180.218 67.1044 180.224 67.1796 180.212C67.2549 180.199 67.3255 180.166 67.3846 180.118C67.4437 180.07 67.4892 180.007 67.5167 179.935L69.2976 175.379C69.4162 175.399 69.5372 175.399 69.6558 175.379L71.4362 179.935C71.464 180.006 71.5097 180.069 71.5688 180.117C71.628 180.165 71.6986 180.197 71.7738 180.21C71.8489 180.222 71.9261 180.215 71.9977 180.189C72.0693 180.163 72.133 180.119 72.1824 180.061L73.8144 178.147L76.3131 178.446C76.3885 178.455 76.4649 178.444 76.535 178.415C76.605 178.386 76.6663 178.339 76.7129 178.279C76.7595 178.219 76.7899 178.148 76.8011 178.073C76.8122 177.998 76.8038 177.921 76.7766 177.85L74.9896 173.281C75.1395 173.005 75.2306 172.67 75.3252 172.323C75.434 171.922 75.5467 171.507 75.7618 171.212C75.9768 170.917 76.3291 170.69 76.6745 170.465C77.1488 170.156 77.6397 169.836 77.7975 169.35C77.9479 168.887 77.7549 168.376 77.5525 167.835ZM66.9614 178.931L65.6547 177.398C65.6075 177.342 65.5474 177.3 65.4797 177.273C65.412 177.247 65.3389 177.238 65.2667 177.246L63.2658 177.486L64.6714 173.891C65.0217 174.002 65.4377 173.983 65.8718 173.962C66.0335 173.954 66.2006 173.947 66.3617 173.947C66.6596 173.947 66.8864 173.975 67.0751 174.036C67.4082 174.144 67.7345 174.408 68.0506 174.664C68.1976 174.782 68.3446 174.901 68.4954 175.007L66.9614 178.931ZM75.6868 177.486L73.6864 177.246C73.6142 177.238 73.541 177.247 73.4733 177.273C73.4056 177.3 73.3455 177.343 73.2983 177.398L71.9911 178.931L70.4562 175.008C70.6071 174.901 70.755 174.782 70.901 174.665C71.2165 174.409 71.5433 174.146 71.8765 174.038C72.2283 173.923 72.6413 173.943 73.0798 173.963C73.5183 173.984 73.9298 174.003 74.2801 173.892L75.6868 177.486Z" fill="#146C2E"/>
</g>
<path d="M90.326 174.059V163.164H97.3996V164.683H91.9832V167.998H97.1234V169.471H91.9832V174.059H90.326ZM102.674 174.243C100.311 174.243 98.8071 172.555 98.8071 169.977C98.8071 167.399 100.311 165.711 102.628 165.711C104.853 165.711 106.372 167.292 106.372 170.038V170.453H100.51C100.587 172.049 101.4 172.846 102.689 172.846C103.656 172.846 104.3 172.371 104.561 171.604L106.249 171.711C105.819 173.23 104.484 174.243 102.674 174.243ZM100.51 169.225H104.638C104.546 167.783 103.748 167.092 102.628 167.092C101.477 167.092 100.694 167.844 100.51 169.225ZM110.485 174.243C108.798 174.243 107.693 173.429 107.693 172.018C107.693 170.622 108.521 169.87 110.301 169.517L113.109 168.98C113.109 167.722 112.526 167.092 111.36 167.092C110.317 167.092 109.734 167.568 109.519 168.458L107.831 168.351C108.138 166.724 109.411 165.711 111.36 165.711C113.569 165.711 114.736 166.954 114.736 169.072V172.248C114.736 172.647 114.874 172.77 115.181 172.77H115.472V174.059C115.365 174.089 115.104 174.105 114.874 174.105C113.938 174.105 113.385 173.752 113.247 172.8C112.833 173.66 111.759 174.243 110.485 174.243ZM110.762 172.954C112.219 172.954 113.109 172.033 113.109 170.729V170.207L110.731 170.668C109.749 170.852 109.381 171.235 109.381 171.864C109.381 172.57 109.887 172.954 110.762 172.954ZM119.54 174.059C117.99 174.059 117.269 173.383 117.269 171.849V167.231H116.026V165.896H117.269V163.978H118.896V165.896H121.059V167.231H118.896V171.726C118.896 172.494 119.218 172.724 119.893 172.724H121.059V174.059H119.54ZM125.418 174.243C123.761 174.243 122.733 173.092 122.733 171.143V165.896H124.36V170.729C124.36 172.217 124.866 172.877 125.909 172.877C127.091 172.877 127.797 172.079 127.797 170.683V165.896H129.423V174.059H127.904L127.889 172.724C127.459 173.721 126.6 174.243 125.418 174.243ZM131.724 174.059V165.896H133.212L133.258 167.445C133.565 166.371 134.21 165.896 135.207 165.896H135.989V167.353H135.207C133.964 167.353 133.35 167.952 133.35 169.241V174.059H131.724ZM140.719 174.243C138.356 174.243 136.852 172.555 136.852 169.977C136.852 167.399 138.356 165.711 140.673 165.711C142.898 165.711 144.417 167.292 144.417 170.038V170.453H138.555C138.632 172.049 139.445 172.846 140.734 172.846C141.701 172.846 142.345 172.371 142.606 171.604L144.294 171.711C143.864 173.23 142.53 174.243 140.719 174.243ZM138.555 169.225H142.683C142.591 167.783 141.793 167.092 140.673 167.092C139.522 167.092 138.74 167.844 138.555 169.225ZM149.1 174.243C146.998 174.243 145.678 172.601 145.678 169.977C145.678 167.369 146.998 165.711 149.1 165.711C150.22 165.711 151.156 166.202 151.585 167.046V163.164H153.212V174.059H151.708L151.662 172.831C151.202 173.721 150.235 174.243 149.1 174.243ZM149.529 172.831C150.849 172.831 151.585 171.772 151.585 169.977C151.585 168.167 150.849 167.123 149.529 167.123C148.21 167.123 147.366 168.197 147.366 169.977C147.366 171.726 148.225 172.831 149.529 172.831Z" fill="#146C2E"/>
<rect opacity="0.1" x="58.3185" y="199.059" width="474" height="14" rx="7" fill="url(#paint2_linear_1_2025)"/>
<rect opacity="0.1" x="58.3185" y="229.059" width="474" height="14" rx="7" fill="url(#paint3_linear_1_2025)"/>
<rect opacity="0.1" x="58.3185" y="259.059" width="474" height="14" rx="7" fill="url(#paint4_linear_1_2025)"/>
<rect opacity="0.1" x="58.3185" y="289.059" width="213" height="14" rx="7" fill="url(#paint5_linear_1_2025)"/>
</g>
<rect x="36.6975" y="29.6975" width="460.605" height="276.605" rx="11.3025" stroke="url(#paint6_linear_1_2025)" stroke-opacity="0.4" stroke-width="1.3949"/>
<defs>
<linearGradient id="paint0_linear_1_2025" x1="267" y1="0" x2="267" y2="171.148" gradientUnits="userSpaceOnUse">
<stop stop-color="#F5F7FA"/>
<stop offset="0.66754" stop-color="white"/>
</linearGradient>
<linearGradient id="paint1_linear_1_2025" x1="267" y1="29" x2="267" y2="307" gradientUnits="userSpaceOnUse">
<stop stop-color="white"/>
<stop offset="1" stop-color="white" stop-opacity="0"/>
</linearGradient>
<linearGradient id="paint2_linear_1_2025" x1="58.3185" y1="206.059" x2="532.318" y2="206.059" gradientUnits="userSpaceOnUse">
<stop stop-color="#212F40" stop-opacity="0.8"/>
<stop offset="1" stop-color="#212F40" stop-opacity="0.5"/>
</linearGradient>
<linearGradient id="paint3_linear_1_2025" x1="58.3185" y1="236.059" x2="532.318" y2="236.059" gradientUnits="userSpaceOnUse">
<stop stop-color="#212F40" stop-opacity="0.8"/>
<stop offset="1" stop-color="#212F40" stop-opacity="0.5"/>
</linearGradient>
<linearGradient id="paint4_linear_1_2025" x1="58.3185" y1="266.059" x2="532.318" y2="266.059" gradientUnits="userSpaceOnUse">
<stop stop-color="#212F40" stop-opacity="0.8"/>
<stop offset="1" stop-color="#212F40" stop-opacity="0.5"/>
</linearGradient>
<linearGradient id="paint5_linear_1_2025" x1="58.3185" y1="296.059" x2="271.318" y2="296.059" gradientUnits="userSpaceOnUse">
<stop stop-color="#212F40" stop-opacity="0.8"/>
<stop offset="1" stop-color="#212F40" stop-opacity="0.5"/>
</linearGradient>
<linearGradient id="paint6_linear_1_2025" x1="267" y1="29" x2="267" y2="307" gradientUnits="userSpaceOnUse">
<stop stop-color="#CFD5DE"/>
<stop offset="1" stop-color="#CFD5DE" stop-opacity="0"/>
</linearGradient>
<clipPath id="clip0_1_2025">
<rect x="36" y="29" width="462" height="278" rx="12" fill="white"/>
</clipPath>
<clipPath id="clip1_1_2025">
<rect width="22.3185" height="22.3185" fill="white" transform="translate(58.3185 157.899)"/>
</clipPath>
</defs>
</svg>
