<svg width="399" height="52" viewBox="0 0 399 52" fill="none" xmlns="http://www.w3.org/2000/svg">
<g clip-path="url(#clip0_1_1812)">
<path d="M208.4 3.9209H213.098L203.751 39.5531H199.151L191.614 16.0637H191.418L183.882 39.5531H179.282L169.543 3.9209H174.241L181.631 31.9389H181.826L189.412 8.6984H193.621L201.206 31.9389H201.402L208.4 3.9209Z" fill="#5F6368"/>
<path d="M212.672 27.3609C212.672 23.6126 213.83 20.5105 216.146 18.0547C218.496 15.5996 221.448 14.3721 225.004 14.3721C228.56 14.3721 231.497 15.5996 233.813 18.0547C236.162 20.5105 237.337 23.6126 237.337 27.3609C237.337 31.1431 236.162 34.2451 233.813 36.6671C231.496 39.1229 228.56 40.3504 225.004 40.3497C221.449 40.3491 218.496 39.1205 216.146 36.664C213.829 34.2096 212.671 31.1075 212.672 27.3579M217.174 27.3579C217.174 29.9795 217.925 32.1029 219.425 33.7279C220.926 35.3529 222.786 36.1654 225.004 36.1654C227.223 36.1654 229.082 35.3529 230.583 33.7279C232.084 32.1029 232.834 29.9795 232.834 27.3579C232.834 24.77 232.084 22.6633 230.583 21.0376C229.052 19.3794 227.192 18.55 225.004 18.5493C222.816 18.5487 220.956 19.3791 219.423 21.0407C217.922 22.6657 217.172 24.7724 217.172 27.3609" fill="#5F6368"/>
<path d="M245.034 39.5536H240.531V15.1684H244.838V19.1496H245.038C245.494 17.8557 246.432 16.7524 247.852 15.8397C249.272 14.927 250.666 14.471 252.036 14.4717C253.34 14.4717 254.449 14.6707 255.364 15.0689L253.989 19.5C253.434 19.2685 252.553 19.1524 251.347 19.1517C249.65 19.1517 248.174 19.8484 246.918 21.2418C245.662 22.6353 245.034 24.2603 245.034 26.1168V39.5536Z" fill="#5F6368"/>
<path d="M278.538 39.5531H273.106L265.618 28.0572L261.948 31.7399V39.5531H257.445V3.9209H261.948V25.8675L272.323 15.1679H278.097V15.367L268.75 24.8225L278.538 39.354V39.5531Z" fill="#5F6368"/>
<path d="M298.019 32.7855C298.019 34.9095 297.106 36.701 295.279 38.1602C293.452 39.6193 291.152 40.3492 288.379 40.3498C285.964 40.3498 283.844 39.711 282.017 38.4334C280.227 37.2046 278.859 35.4391 278.102 33.3827L282.114 31.6409C282.702 33.1013 283.558 34.2375 284.684 35.0493C285.757 35.845 287.052 36.2719 288.38 36.2681C289.816 36.2681 291.014 35.9529 291.975 35.3225C292.936 34.6921 293.417 33.9457 293.418 33.083C293.418 31.5258 292.244 30.3811 289.895 29.6492L285.784 28.6041C281.12 27.4098 278.787 25.1199 278.787 21.7345C278.787 19.5123 279.676 17.7288 281.454 16.3841C283.233 15.0395 285.508 14.3678 288.281 14.3691C290.402 14.3691 292.319 14.8834 294.031 15.9119C295.744 16.9404 296.942 18.3172 297.627 20.0424L293.615 21.7345C293.155 20.7022 292.372 19.8535 291.389 19.3203C290.332 18.7327 289.143 18.4328 287.938 18.4499C286.823 18.433 285.727 18.744 284.782 19.3457C283.85 19.9429 283.384 20.6728 283.384 21.5354C283.384 22.9288 284.673 23.9241 287.25 24.5213L290.871 25.4669C295.635 26.6613 298.016 29.0988 298.016 32.7794" fill="#5F6368"/>
<path d="M313.655 40.3497C311.894 40.3497 310.287 39.9682 308.836 39.2051C307.384 38.442 306.266 37.4301 305.483 36.1694H305.283L305.483 39.5535V50.3029H300.98V15.1683H305.287V18.5524H305.487C306.27 17.2923 307.387 16.2804 308.84 15.5167C310.292 14.7529 311.898 14.3714 313.659 14.3721C316.823 14.3721 319.499 15.6328 321.685 18.1543C323.936 20.7096 325.062 23.7785 325.062 27.3609C325.062 30.9779 323.936 34.0468 321.685 36.5675C319.499 39.089 316.824 40.3497 313.659 40.3497M312.925 36.1694C315.079 36.1694 316.889 35.34 318.358 33.6811C319.822 32.0561 320.555 29.9494 320.555 27.3609C320.555 24.8069 319.822 22.7002 318.358 21.0407C316.893 19.3811 315.082 18.5517 312.925 18.5524C310.739 18.5524 308.912 19.3818 307.444 21.0407C306.008 22.7002 305.29 24.8069 305.291 27.3609C305.291 29.9487 306.009 32.072 307.444 33.7309C308.909 35.3559 310.736 36.1684 312.925 36.1684" fill="#5F6368"/>
<path d="M337.389 14.3721C340.718 14.3721 343.344 15.276 345.268 17.0838C347.191 18.8916 348.154 21.3718 348.155 24.5243V39.5555H343.849V36.1695H343.649C341.789 38.9563 339.31 40.3498 336.21 40.3498C333.568 40.3498 331.357 39.5535 329.579 37.961C327.8 36.3685 326.911 34.3779 326.912 31.9891C326.912 29.4684 327.85 27.4611 329.726 25.9675C331.601 24.4739 334.105 23.7274 337.238 23.728C339.913 23.728 342.115 24.2257 343.845 25.221V24.1719C343.845 22.5794 343.225 21.2272 341.985 20.1155C340.791 19.0221 339.236 18.4269 337.63 18.4488C335.117 18.4488 333.127 19.5271 331.659 21.6836L327.695 19.1445C329.88 15.9622 333.11 14.3711 337.383 14.3711M331.565 32.0938C331.565 33.2881 332.063 34.2834 333.057 35.0797C334.052 35.8759 335.217 36.2741 336.553 36.2741C338.445 36.2741 340.133 35.5608 341.618 34.1341C343.102 32.7075 343.845 31.0321 343.845 29.1078C342.441 27.9805 340.484 27.4165 337.972 27.4158C336.144 27.4158 334.619 27.8637 333.396 28.7595C332.173 29.6552 331.563 30.7667 331.565 32.0938Z" fill="#5F6368"/>
<path d="M363.418 40.3497C359.862 40.3497 356.909 39.1222 354.561 36.6671C352.243 34.1463 351.085 31.0442 351.086 27.3609C351.086 23.6126 352.244 20.5105 354.561 18.0547C356.91 15.5996 359.862 14.3721 363.418 14.3721C365.865 14.3721 368.002 14.994 369.829 16.2378C371.656 17.4816 373.027 19.1987 373.94 21.389L369.833 23.1308C368.561 20.0785 366.326 18.5524 363.129 18.5524C361.073 18.5524 359.295 19.3987 357.794 21.0914C356.326 22.7842 355.592 24.8743 355.592 27.3619C355.592 29.8495 356.326 31.9397 357.794 33.6324C359.295 35.3251 361.073 36.1714 363.129 36.1714C366.424 36.1714 368.74 34.6453 370.078 31.593L374.091 33.3348C373.21 35.5245 371.831 37.2412 369.955 38.485C368.079 39.7288 365.901 40.3511 363.422 40.3518" fill="#5F6368"/>
<path d="M387.648 40.3497C384.125 40.3497 381.221 39.1222 378.937 36.6671C376.654 34.212 375.512 31.1099 375.512 27.3609C375.512 23.6457 376.621 20.5518 378.839 18.0791C381.058 15.6064 383.896 14.3707 387.355 14.3721C390.91 14.3721 393.74 15.5414 395.844 17.88C397.948 20.2187 398.999 23.4951 398.998 27.7093L398.949 28.2069H380.112C380.178 30.5957 380.961 32.5199 382.461 33.9797C383.96 35.4395 385.755 36.1694 387.844 36.1694C390.715 36.1694 392.966 34.7096 394.598 31.79L398.611 33.7807C397.587 35.7809 396.036 37.4523 394.132 38.6079C392.223 39.7685 390.062 40.3491 387.648 40.3497ZM380.457 24.4247H394.204C394.071 22.732 393.394 21.3301 392.173 20.219C390.952 19.1079 389.312 18.5524 387.255 18.5524C385.558 18.5524 384.098 19.0832 382.874 20.1449C381.651 21.2066 380.844 22.6332 380.452 24.4247" fill="#5F6368"/>
<path d="M20.2145 23.9261V18.4153H38.3516C38.553 19.5298 38.6509 20.6611 38.6442 21.7943C38.6442 25.9259 37.5326 31.0426 33.9501 34.6826C30.4675 38.3723 26.0181 40.3406 20.1176 40.3406C9.18839 40.3406 0 31.2884 0 20.1703C0 9.05227 9.18839 0 20.1196 0C26.167 0 30.4695 2.41109 33.7104 5.55953L29.8892 9.44531C27.5652 7.23227 24.4242 5.50977 20.1196 5.50977C12.1397 5.50977 5.90055 12.0524 5.90055 20.1703C5.90055 28.2882 12.1397 34.8359 20.1196 34.8359C25.2951 34.8359 28.2453 32.7204 30.1309 30.8019C31.668 29.2388 32.6807 26.9963 33.0732 23.9312L20.2145 23.9261Z" fill="#4285F4"/>
<path d="M66.2803 27.3528C66.2803 34.8359 60.5236 40.3406 53.4645 40.3406C46.4054 40.3406 40.6487 34.8359 40.6487 27.3528C40.6487 19.826 46.4044 14.365 53.4665 14.365C60.5286 14.365 66.2823 19.826 66.2823 27.3528M60.6724 27.3528C60.6724 22.6809 57.3356 19.4817 53.4665 19.4817C49.5974 19.4817 46.2596 22.6789 46.2596 27.3528C46.2596 31.9769 49.5964 35.2239 53.4665 35.2239C57.3366 35.2239 60.6724 31.9739 60.6724 27.3528Z" fill="#EA4335"/>
<path d="M94.24 27.3528C94.24 34.8359 88.4883 40.3406 81.4242 40.3406C74.3601 40.3406 68.6074 34.8359 68.6074 27.3528C68.6074 19.826 74.3621 14.365 81.4242 14.365C88.4863 14.365 94.24 19.826 94.24 27.3528ZM88.6301 27.3528C88.6301 22.6809 85.2933 19.4817 81.4242 19.4817C77.5551 19.4817 74.2173 22.6789 74.2173 27.3528C74.2173 31.9769 77.5541 35.2239 81.4242 35.2239C85.2943 35.2239 88.6301 31.9739 88.6301 27.3528Z" fill="#FBBC04"/>
<path d="M121.04 15.1523V38.4711C121.04 48.0647 115.478 52.0002 108.901 52.0002C102.709 52.0002 98.9853 47.7691 97.583 44.3262L102.471 42.2594C103.341 44.3749 105.467 46.8835 108.904 46.8835C113.111 46.8835 115.723 44.2266 115.723 39.2582V37.3895H115.529C114.272 38.9637 111.854 40.3409 108.807 40.3409C102.422 40.3409 96.5703 34.6828 96.5703 27.4028C96.5703 20.072 102.422 14.3652 108.807 14.3652C111.854 14.3652 114.272 15.7424 115.529 17.2679H115.723V15.1523H121.04ZM116.107 27.4028C116.107 22.8274 113.11 19.4809 109.287 19.4809C105.418 19.4809 102.177 22.8264 102.177 27.4028C102.177 31.9284 105.418 35.2231 109.287 35.2231C113.108 35.2231 116.107 31.9274 116.107 27.4028Z" fill="#4285F4"/>
<path d="M130.542 1.50488H124.932V39.5532H130.542V1.50488Z" fill="#34A853"/>
<path d="M152.208 31.6329L156.561 34.5843C155.162 36.6998 151.773 40.3409 145.92 40.3409C138.665 40.3409 133.248 34.6341 133.248 27.353C133.248 19.6343 138.714 14.3652 145.291 14.3652C151.917 14.3652 155.157 19.7277 156.222 22.6304L156.802 24.1061L139.724 31.2886C141.03 33.8957 143.062 35.2241 145.916 35.2241C148.77 35.2241 150.753 33.8023 152.208 31.6329ZM138.81 26.961L150.225 22.1409C149.595 20.5159 147.71 19.3865 145.485 19.3865C142.631 19.3865 138.665 21.9448 138.81 26.963" fill="#EA4335"/>
</g>
<defs>
<clipPath id="clip0_1_1812">
<rect width="399" height="52" fill="white"/>
</clipPath>
</defs>
</svg>
