<svg width="241" height="205" viewBox="0 0 241 205" fill="none" xmlns="http://www.w3.org/2000/svg">
<g filter="url(#filter0_i_1_1447)">
<path d="M157.576 204.461H213.192C220.917 204.461 227.482 201.757 232.891 196.351C238.296 190.944 241 184.379 241 176.653V121.039C241 113.313 238.298 106.749 232.891 101.343C227.483 95.9373 220.916 93.2325 213.192 93.2325H180.75C176.889 93.2325 173.605 91.8801 170.901 89.1773C168.198 86.476 166.846 83.1914 166.846 79.3274V74.6954C166.846 64.46 170.468 55.7247 177.709 48.4817C184.95 41.2423 193.687 37.6213 203.924 37.6213H213.192C215.704 37.6213 217.876 36.7016 219.711 34.8683C221.545 33.035 222.462 30.8618 222.462 28.3513V9.81065C222.462 7.30418 221.545 5.12694 219.711 3.29312C217.874 1.46031 215.704 0.5401 213.192 0.5401H203.923C193.881 0.5401 184.298 2.49821 175.173 6.40732C166.048 10.3169 158.155 15.6048 151.493 22.2675C144.832 28.9306 139.545 36.8219 135.635 45.9468C131.725 55.0713 129.77 64.6538 129.77 74.6949V176.655C129.77 184.381 132.473 190.945 137.879 196.352C143.286 201.758 149.852 204.461 157.576 204.461ZM8.11296 196.351C13.5185 201.757 20.0843 204.461 27.8097 204.461H83.4239C91.1492 204.461 97.7145 201.757 103.121 196.351C108.526 190.943 111.229 184.379 111.229 176.653V121.039C111.229 113.313 108.526 106.749 103.121 101.343C97.7145 95.9373 91.1487 93.2325 83.4239 93.2325H50.9817C47.1208 93.2325 43.8347 91.8801 41.1313 89.1773C38.4306 86.4745 37.0762 83.1914 37.0762 79.3274V74.6954C37.0762 64.46 40.6976 55.7247 47.9401 48.4817C55.181 41.2423 63.9164 37.6213 74.1538 37.6213H83.4239C85.9339 37.6213 88.1076 36.7016 89.9409 34.8683C91.7757 33.035 92.6944 30.8618 92.6944 28.3513V9.81065C92.6944 7.30418 91.7757 5.12694 89.9409 3.29312C88.1081 1.46031 85.9344 0.5401 83.4239 0.5401H74.1538C64.1127 0.5401 54.5302 2.49821 45.4042 6.40732C36.2812 10.3169 28.3895 15.6048 21.7263 22.2675C15.0637 28.9306 9.77379 36.8239 5.8662 45.9468C1.95709 55.0693 0.000518799 64.6538 0.000518799 74.6949V176.655C0.00204468 184.381 2.70331 190.945 8.11296 196.351Z" fill="url(#paint0_linear_1_1447)"/>
</g>
<path d="M177.355 48.1282L177.355 48.1281C184.69 40.795 193.555 37.1213 203.924 37.1213H213.192C215.566 37.1213 217.612 36.2581 219.357 34.5147C221.101 32.7717 221.962 30.7243 221.962 28.3513V9.81065C221.962 7.44171 221.101 5.39044 219.358 3.64706C217.611 1.90376 215.566 1.0401 213.192 1.0401H203.923C193.948 1.0401 184.432 2.98474 175.37 6.86691C166.301 10.7528 158.462 16.0057 151.846 22.621C145.233 29.2368 139.981 37.0741 136.094 46.1438C132.212 55.2053 130.27 64.7207 130.27 74.6949V176.655C130.27 184.25 132.922 190.687 138.233 195.998C143.544 201.309 149.983 203.961 157.576 203.961H213.192C220.786 203.961 227.224 201.309 232.537 195.998C232.537 195.997 232.537 195.997 232.537 195.997M177.355 48.1282L232.537 195.997M177.355 48.1282C170.02 55.4648 166.346 64.3273 166.346 74.6954V79.3274C166.346 83.3223 167.749 86.7346 170.548 89.5309L177.355 48.1282ZM232.537 195.997C237.848 190.685 240.5 184.248 240.5 176.653V121.039C240.5 113.444 237.849 107.008 232.537 101.696C227.224 96.3857 220.785 93.7325 213.192 93.7325H180.75C176.758 93.7325 173.347 92.3285 170.548 89.531L232.537 195.997ZM8.46654 195.998L8.46638 195.997C3.15176 190.687 0.502014 184.25 0.500519 176.655V74.6949C0.500519 64.7207 2.44365 55.2033 6.32578 46.1438L5.8662 45.9468L6.32581 46.1437C10.2096 37.0762 15.4646 29.2368 22.0799 22.621C28.6957 16.0057 36.5336 10.7528 45.6011 6.86693C54.6642 2.98474 64.1797 1.0401 74.1538 1.0401H83.4239C85.7966 1.0401 87.8446 1.90393 89.5873 3.64667L89.5874 3.64677C91.3319 5.3903 92.1944 7.4417 92.1944 9.81065V28.3513C92.1944 30.7242 91.332 32.7715 89.5875 34.5146L89.5873 34.5148C87.8441 36.258 85.7962 37.1213 83.4239 37.1213H74.1538C63.7836 37.1213 54.9212 40.795 47.5866 48.1281L47.9401 48.4817L47.5865 48.1281C40.2504 55.4648 36.5762 64.3273 36.5762 74.6954V79.3274C36.5762 83.3226 37.9823 86.7333 40.7777 89.5307L40.7778 89.5309C43.576 92.3285 46.9898 93.7325 50.9817 93.7325H83.4239C91.0176 93.7325 97.4557 96.3857 102.767 101.696C108.078 107.008 110.729 113.444 110.729 121.039V176.653C110.729 184.248 108.078 190.685 102.767 195.997C97.4558 201.309 91.0182 203.961 83.4239 203.961H27.8097C20.2153 203.961 13.7773 201.309 8.46654 195.998Z" stroke="white"/>
<defs>
<filter id="filter0_i_1_1447" x="0.000488281" y="0.540039" width="241" height="203.921" filterUnits="userSpaceOnUse" color-interpolation-filters="sRGB">
<feFlood flood-opacity="0" result="BackgroundImageFix"/>
<feBlend mode="normal" in="SourceGraphic" in2="BackgroundImageFix" result="shape"/>
<feColorMatrix in="SourceAlpha" type="matrix" values="0 0 0 0 0 0 0 0 0 0 0 0 0 0 0 0 0 0 127 0" result="hardAlpha"/>
<feOffset/>
<feGaussianBlur stdDeviation="2"/>
<feComposite in2="hardAlpha" operator="arithmetic" k2="-1" k3="1"/>
<feColorMatrix type="matrix" values="0 0 0 0 0 0 0 0 0 0 0 0 0 0 0 0 0 0 0.1 0"/>
<feBlend mode="normal" in2="shape" result="effect1_innerShadow_1_1447"/>
</filter>
<linearGradient id="paint0_linear_1_1447" x1="120.5" y1="0.5401" x2="120.5" y2="204.461" gradientUnits="userSpaceOnUse">
<stop stop-color="#CFD5DE" stop-opacity="0.3"/>
<stop offset="1" stop-color="#CFD5DE" stop-opacity="0"/>
</linearGradient>
</defs>
</svg>
