<svg width="523" height="156" viewBox="0 0 523 156" fill="none" xmlns="http://www.w3.org/2000/svg">
<path d="M514.293 155.207C514.683 155.598 515.317 155.598 515.707 155.207L522.071 148.843C522.462 148.453 522.462 147.819 522.071 147.429C521.681 147.038 521.047 147.038 520.657 147.429L515 153.086L509.343 147.429C508.953 147.038 508.319 147.038 507.929 147.429C507.538 147.819 507.538 148.453 507.929 148.843L514.293 155.207ZM2 1.5C2 0.947715 1.55228 0.5 1 0.5C0.447715 0.5 0 0.947715 0 1.5H2ZM0 4.78125C0 5.33353 0.447715 5.78125 1 5.78125C1.55228 5.78125 2 5.33353 2 4.78125H0ZM2 11.3438C2 10.7915 1.55228 10.3438 1 10.3438C0.447715 10.3438 0 10.7915 0 11.3438H2ZM0 17.9062C0 18.4585 0.447715 18.9062 1 18.9062C1.55228 18.9062 2 18.4585 2 17.9062H0ZM2 24.4688C2 23.9165 1.55228 23.4688 1 23.4688C0.447715 23.4688 0 23.9165 0 24.4688H2ZM0 31.0312C0 31.5835 0.447715 32.0312 1 32.0312C1.55228 32.0312 2 31.5835 2 31.0312H0ZM2 37.5938C2 37.0415 1.55228 36.5938 1 36.5938C0.447715 36.5938 0 37.0415 0 37.5938H2ZM0 44.1562C0 44.7085 0.447715 45.1562 1 45.1562C1.55228 45.1562 2 44.7085 2 44.1562H0ZM2 50.7188C2 50.1665 1.55228 49.7188 1 49.7188C0.447715 49.7188 0 50.1665 0 50.7188H2ZM0.211255 57.264C0.282691 57.8116 0.784555 58.1977 1.3322 58.1262C1.87985 58.0548 2.26589 57.5529 2.19445 57.0053L0.211255 57.264ZM3.74486 62.8039C3.5333 62.2937 2.94824 62.0516 2.43808 62.2632C1.92792 62.4747 1.68585 63.0598 1.89741 63.57L3.74486 62.8039ZM5.1655 69.2201C5.50202 69.6581 6.12982 69.7403 6.56774 69.4037C7.00566 69.0672 7.08786 68.4394 6.75133 68.0015L5.1655 69.2201ZM10.9985 72.2487C10.5606 71.9121 9.93279 71.9943 9.59626 72.4323C9.25974 72.8702 9.34194 73.498 9.77986 73.8345L10.9985 72.2487ZM15.43 77.1026C15.9402 77.3141 16.5253 77.0721 16.7368 76.5619C16.9484 76.0518 16.7063 75.4667 16.1962 75.2551L15.43 77.1026ZM21.9947 76.8055C21.4471 76.7341 20.9452 77.1202 20.8738 77.6678C20.8023 78.2154 21.1884 78.7173 21.736 78.7887L21.9947 76.8055ZM28.5303 79C29.0826 79 29.5303 78.5523 29.5303 78C29.5303 77.4477 29.0826 77 28.5303 77V79ZM35.5909 77C35.0386 77 34.5909 77.4477 34.5909 78C34.5909 78.5523 35.0386 79 35.5909 79V77ZM42.6515 79C43.2038 79 43.6515 78.5523 43.6515 78C43.6515 77.4477 43.2038 77 42.6515 77V79ZM49.7121 77C49.1598 77 48.7121 77.4477 48.7121 78C48.7121 78.5523 49.1598 79 49.7121 79V77ZM56.7727 79C57.325 79 57.7727 78.5523 57.7727 78C57.7727 77.4477 57.325 77 56.7727 77V79ZM63.8333 77C63.2811 77 62.8333 77.4477 62.8333 78C62.8333 78.5523 63.2811 79 63.8333 79V77ZM70.8939 79C71.4462 79 71.8939 78.5523 71.8939 78C71.8939 77.4477 71.4462 77 70.8939 77V79ZM77.9546 77C77.4023 77 76.9546 77.4477 76.9546 78C76.9546 78.5523 77.4023 79 77.9546 79V77ZM85.0152 79C85.5674 79 86.0152 78.5523 86.0152 78C86.0152 77.4477 85.5674 77 85.0152 77V79ZM92.0758 77C91.5235 77 91.0758 77.4477 91.0758 78C91.0758 78.5523 91.5235 79 92.0758 79V77ZM99.1364 79C99.6887 79 100.136 78.5523 100.136 78C100.136 77.4477 99.6887 77 99.1364 77V79ZM106.197 77C105.645 77 105.197 77.4477 105.197 78C105.197 78.5523 105.645 79 106.197 79V77ZM113.258 79C113.81 79 114.258 78.5523 114.258 78C114.258 77.4477 113.81 77 113.258 77V79ZM120.318 77C119.766 77 119.318 77.4477 119.318 78C119.318 78.5523 119.766 79 120.318 79V77ZM127.379 79C127.931 79 128.379 78.5523 128.379 78C128.379 77.4477 127.931 77 127.379 77V79ZM134.439 77C133.887 77 133.439 77.4477 133.439 78C133.439 78.5523 133.887 79 134.439 79V77ZM141.5 79C142.052 79 142.5 78.5523 142.5 78C142.5 77.4477 142.052 77 141.5 77V79ZM148.561 77C148.008 77 147.561 77.4477 147.561 78C147.561 78.5523 148.008 79 148.561 79V77ZM155.621 79C156.174 79 156.621 78.5523 156.621 78C156.621 77.4477 156.174 77 155.621 77V79ZM162.682 77C162.13 77 161.682 77.4477 161.682 78C161.682 78.5523 162.13 79 162.682 79V77ZM169.742 79C170.295 79 170.742 78.5523 170.742 78C170.742 77.4477 170.295 77 169.742 77V79ZM176.803 77C176.251 77 175.803 77.4477 175.803 78C175.803 78.5523 176.251 79 176.803 79V77ZM183.864 79C184.416 79 184.864 78.5523 184.864 78C184.864 77.4477 184.416 77 183.864 77V79ZM190.924 77C190.372 77 189.924 77.4477 189.924 78C189.924 78.5523 190.372 79 190.924 79V77ZM197.985 79C198.537 79 198.985 78.5523 198.985 78C198.985 77.4477 198.537 77 197.985 77V79ZM205.045 77C204.493 77 204.045 77.4477 204.045 78C204.045 78.5523 204.493 79 205.045 79V77ZM212.106 79C212.658 79 213.106 78.5523 213.106 78C213.106 77.4477 212.658 77 212.106 77V79ZM219.167 77C218.614 77 218.167 77.4477 218.167 78C218.167 78.5523 218.614 79 219.167 79V77ZM226.227 79C226.78 79 227.227 78.5523 227.227 78C227.227 77.4477 226.78 77 226.227 77V79ZM233.288 77C232.736 77 232.288 77.4477 232.288 78C232.288 78.5523 232.736 79 233.288 79V77ZM240.349 79C240.901 79 241.349 78.5523 241.349 78C241.349 77.4477 240.901 77 240.349 77V79ZM247.409 77C246.857 77 246.409 77.4477 246.409 78C246.409 78.5523 246.857 79 247.409 79V77ZM254.47 79C255.022 79 255.47 78.5523 255.47 78C255.47 77.4477 255.022 77 254.47 77V79ZM261.53 77C260.978 77 260.53 77.4477 260.53 78C260.53 78.5523 260.978 79 261.53 79V77ZM268.591 79C269.143 79 269.591 78.5523 269.591 78C269.591 77.4477 269.143 77 268.591 77V79ZM275.652 77C275.099 77 274.652 77.4477 274.652 78C274.652 78.5523 275.099 79 275.652 79V77ZM282.712 79C283.264 79 283.712 78.5523 283.712 78C283.712 77.4477 283.264 77 282.712 77V79ZM289.773 77C289.22 77 288.773 77.4477 288.773 78C288.773 78.5523 289.22 79 289.773 79V77ZM296.833 79C297.386 79 297.833 78.5523 297.833 78C297.833 77.4477 297.386 77 296.833 77V79ZM303.894 77C303.342 77 302.894 77.4477 302.894 78C302.894 78.5523 303.342 79 303.894 79V77ZM310.955 79C311.507 79 311.955 78.5523 311.955 78C311.955 77.4477 311.507 77 310.955 77V79ZM318.015 77C317.463 77 317.015 77.4477 317.015 78C317.015 78.5523 317.463 79 318.015 79V77ZM325.076 79C325.628 79 326.076 78.5523 326.076 78C326.076 77.4477 325.628 77 325.076 77V79ZM332.136 77C331.584 77 331.136 77.4477 331.136 78C331.136 78.5523 331.584 79 332.136 79V77ZM339.197 79C339.749 79 340.197 78.5523 340.197 78C340.197 77.4477 339.749 77 339.197 77V79ZM346.258 77C345.705 77 345.258 77.4477 345.258 78C345.258 78.5523 345.705 79 346.258 79V77ZM353.318 79C353.871 79 354.318 78.5523 354.318 78C354.318 77.4477 353.871 77 353.318 77V79ZM360.379 77C359.827 77 359.379 77.4477 359.379 78C359.379 78.5523 359.827 79 360.379 79V77ZM367.439 79C367.992 79 368.439 78.5523 368.439 78C368.439 77.4477 367.992 77 367.439 77V79ZM374.5 77C373.948 77 373.5 77.4477 373.5 78C373.5 78.5523 373.948 79 374.5 79V77ZM381.561 79C382.113 79 382.561 78.5523 382.561 78C382.561 77.4477 382.113 77 381.561 77V79ZM388.621 77C388.069 77 387.621 77.4477 387.621 78C387.621 78.5523 388.069 79 388.621 79V77ZM395.682 79C396.234 79 396.682 78.5523 396.682 78C396.682 77.4477 396.234 77 395.682 77V79ZM402.742 77C402.19 77 401.742 77.4477 401.742 78C401.742 78.5523 402.19 79 402.742 79V77ZM409.803 79C410.355 79 410.803 78.5523 410.803 78C410.803 77.4477 410.355 77 409.803 77V79ZM416.864 77C416.311 77 415.864 77.4477 415.864 78C415.864 78.5523 416.311 79 416.864 79V77ZM423.924 79C424.477 79 424.924 78.5523 424.924 78C424.924 77.4477 424.477 77 423.924 77V79ZM430.985 77C430.433 77 429.985 77.4477 429.985 78C429.985 78.5523 430.433 79 430.985 79V77ZM438.046 79C438.598 79 439.046 78.5523 439.046 78C439.046 77.4477 438.598 77 438.046 77V79ZM445.106 77C444.554 77 444.106 77.4477 444.106 78C444.106 78.5523 444.554 79 445.106 79V77ZM452.167 79C452.719 79 453.167 78.5523 453.167 78C453.167 77.4477 452.719 77 452.167 77V79ZM459.227 77C458.675 77 458.227 77.4477 458.227 78C458.227 78.5523 458.675 79 459.227 79V77ZM466.288 79C466.84 79 467.288 78.5523 467.288 78C467.288 77.4477 466.84 77 466.288 77V79ZM473.349 77C472.796 77 472.349 77.4477 472.349 78C472.349 78.5523 472.796 79 473.349 79V77ZM480.409 79C480.961 79 481.409 78.5523 481.409 78C481.409 77.4477 480.961 77 480.409 77V79ZM487.47 77C486.918 77 486.47 77.4477 486.47 78C486.47 78.5523 486.918 79 487.47 79V77ZM494.005 79.1945C494.553 79.2659 495.055 78.8798 495.126 78.3322C495.198 77.7846 494.812 77.2827 494.264 77.2113L494.005 79.1945ZM500.57 78.8974C500.06 78.6859 499.475 78.9279 499.263 79.4381C499.052 79.9482 499.294 80.5333 499.804 80.7449L500.57 78.8974ZM505.001 83.7513C505.439 84.0879 506.067 84.0057 506.404 83.5677C506.74 83.1298 506.658 82.502 506.22 82.1655L505.001 83.7513ZM510.835 86.7799C510.498 86.3419 509.87 86.2597 509.432 86.5963C508.994 86.9328 508.912 87.5606 509.249 87.9985L510.835 86.7799ZM512.255 93.1962C512.467 93.7063 513.052 93.9484 513.562 93.7368C514.072 93.5253 514.314 92.9402 514.103 92.43L512.255 93.1962ZM515.789 98.736C515.717 98.1884 515.215 97.8023 514.668 97.8738C514.12 97.9452 513.734 98.4471 513.806 98.9947L515.789 98.736ZM514 105.281C514 105.834 514.448 106.281 515 106.281C515.552 106.281 516 105.834 516 105.281H514ZM516 111.844C516 111.291 515.552 110.844 515 110.844C514.448 110.844 514 111.291 514 111.844H516ZM514 118.406C514 118.959 514.448 119.406 515 119.406C515.552 119.406 516 118.959 516 118.406H514ZM516 124.969C516 124.416 515.552 123.969 515 123.969C514.448 123.969 514 124.416 514 124.969H516ZM514 131.531C514 132.084 514.448 132.531 515 132.531C515.552 132.531 516 132.084 516 131.531H514ZM516 138.094C516 137.541 515.552 137.094 515 137.094C514.448 137.094 514 137.541 514 138.094H516ZM514 144.656C514 145.209 514.448 145.656 515 145.656C515.552 145.656 516 145.209 516 144.656H514ZM516 151.219C516 150.666 515.552 150.219 515 150.219C514.448 150.219 514 150.666 514 151.219H516ZM0 1.5V4.78125H2V1.5H0ZM0 11.3438V17.9062H2V11.3438H0ZM0 24.4688V31.0312H2V24.4688H0ZM0 37.5938V44.1562H2V37.5938H0ZM0 50.7188V54H2V50.7188H0ZM0 54C0 55.1058 0.0718526 56.1953 0.211255 57.264L2.19445 57.0053C2.06621 56.0221 2 55.019 2 54H0ZM1.89741 63.57C2.74045 65.6029 3.84376 67.5002 5.1655 69.2201L6.75133 68.0015C5.53487 66.4185 4.52003 64.6732 3.74486 62.8039L1.89741 63.57ZM9.77986 73.8345C11.4998 75.1562 13.3971 76.2596 15.43 77.1026L16.1962 75.2551C14.3268 74.48 12.5815 73.4651 10.9985 72.2487L9.77986 73.8345ZM21.736 78.7887C22.8047 78.9281 23.8942 79 25 79V77C23.981 77 22.9779 76.9338 21.9947 76.8055L21.736 78.7887ZM25 79H28.5303V77H25V79ZM35.5909 79H42.6515V77H35.5909V79ZM49.7121 79H56.7727V77H49.7121V79ZM63.8333 79H70.8939V77H63.8333V79ZM77.9546 79H85.0152V77H77.9546V79ZM92.0758 79H99.1364V77H92.0758V79ZM106.197 79H113.258V77H106.197V79ZM120.318 79H127.379V77H120.318V79ZM134.439 79H141.5V77H134.439V79ZM148.561 79H155.621V77H148.561V79ZM162.682 79H169.742V77H162.682V79ZM176.803 79H183.864V77H176.803V79ZM190.924 79H197.985V77H190.924V79ZM205.045 79H212.106V77H205.045V79ZM219.167 79H226.227V77H219.167V79ZM233.288 79H240.349V77H233.288V79ZM247.409 79H254.47V77H247.409V79ZM261.53 79H268.591V77H261.53V79ZM275.652 79H282.712V77H275.652V79ZM289.773 79H296.833V77H289.773V79ZM303.894 79H310.955V77H303.894V79ZM318.015 79H325.076V77H318.015V79ZM332.136 79H339.197V77H332.136V79ZM346.258 79H353.318V77H346.258V79ZM360.379 79H367.439V77H360.379V79ZM374.5 79H381.561V77H374.5V79ZM388.621 79H395.682V77H388.621V79ZM402.742 79H409.803V77H402.742V79ZM416.864 79H423.924V77H416.864V79ZM430.985 79H438.046V77H430.985V79ZM445.106 79H452.167V77H445.106V79ZM459.227 79H466.288V77H459.227V79ZM473.349 79H480.409V77H473.349V79ZM487.47 79H491V77H487.47V79ZM491 79C492.019 79 493.022 79.0662 494.005 79.1945L494.264 77.2113C493.195 77.0719 492.106 77 491 77V79ZM499.804 80.7449C501.673 81.52 503.419 82.5349 505.001 83.7513L506.22 82.1655C504.5 80.8438 502.603 79.7404 500.57 78.8974L499.804 80.7449ZM509.249 87.9985C510.465 89.5815 511.48 91.3269 512.255 93.1962L514.103 92.43C513.26 90.3971 512.156 88.4998 510.835 86.7799L509.249 87.9985ZM513.806 98.9947C513.934 99.9779 514 100.981 514 102H516C516 100.894 515.928 99.8047 515.789 98.736L513.806 98.9947ZM514 102V105.281H516V102H514ZM514 111.844V118.406H516V111.844H514ZM514 124.969V131.531H516V124.969H514ZM514 138.094V144.656H516V138.094H514ZM514 151.219V154.5H516V151.219H514Z" fill="#CFD5DE"/>
</svg>
