<svg width="523" height="156" viewBox="0 0 523 156" fill="none" xmlns="http://www.w3.org/2000/svg">
<path d="M7.29289 155.207C7.68342 155.598 8.31658 155.598 8.70711 155.207L15.0711 148.843C15.4616 148.453 15.4616 147.819 15.0711 147.429C14.6805 147.038 14.0474 147.038 13.6569 147.429L8 153.086L2.34315 147.429C1.95262 147.038 1.31946 147.038 0.928932 147.429C0.538408 147.819 0.538408 148.453 0.928932 148.843L7.29289 155.207ZM523 1.5C523 0.947715 522.552 0.5 522 0.5C521.448 0.5 521 0.947715 521 1.5H523ZM9 151.219C9 150.666 8.55228 150.219 8 150.219C7.44772 150.219 7 150.666 7 151.219H9ZM7 144.656C7 145.209 7.44772 145.656 8 145.656C8.55228 145.656 9 145.209 9 144.656H7ZM9 138.094C9 137.541 8.55228 137.094 8 137.094C7.44772 137.094 7 137.541 7 138.094H9ZM7 131.531C7 132.084 7.44772 132.531 8 132.531C8.55228 132.531 9 132.084 9 131.531H7ZM9 124.969C9 124.416 8.55228 123.969 8 123.969C7.44772 123.969 7 124.416 7 124.969H9ZM7 118.406C7 118.959 7.44772 119.406 8 119.406C8.55228 119.406 9 118.959 9 118.406H7ZM9 111.844C9 111.291 8.55228 110.844 8 110.844C7.44772 110.844 7 111.291 7 111.844H9ZM7 105.281C7 105.834 7.44772 106.281 8 106.281C8.55228 106.281 9 105.834 9 105.281H7ZM9.19445 98.9947C9.26589 98.4471 8.87985 97.9452 8.3322 97.8738C7.78456 97.8023 7.28269 98.1884 7.21126 98.736L9.19445 98.9947ZM8.89741 92.43C8.68585 92.9402 8.92792 93.5253 9.43808 93.7368C9.94824 93.9484 10.5333 93.7063 10.7449 93.1961L8.89741 92.43ZM13.7513 87.9985C14.0879 87.5606 14.0057 86.9328 13.5677 86.5963C13.1298 86.2597 12.502 86.3419 12.1655 86.7799L13.7513 87.9985ZM16.7799 82.1655C16.3419 82.502 16.2597 83.1298 16.5963 83.5677C16.9328 84.0057 17.5606 84.0879 17.9985 83.7513L16.7799 82.1655ZM23.1961 80.7449C23.7063 80.5333 23.9484 79.9482 23.7368 79.4381C23.5253 78.9279 22.9402 78.6859 22.43 78.8974L23.1961 80.7449ZM28.736 77.2113C28.1884 77.2827 27.8023 77.7846 27.8738 78.3322C27.9452 78.8798 28.4471 79.2659 28.9947 79.1945L28.736 77.2113ZM35.5303 79C36.0826 79 36.5303 78.5523 36.5303 78C36.5303 77.4477 36.0826 77 35.5303 77V79ZM42.5909 77C42.0386 77 41.5909 77.4477 41.5909 78C41.5909 78.5523 42.0386 79 42.5909 79V77ZM49.6515 79C50.2038 79 50.6515 78.5523 50.6515 78C50.6515 77.4477 50.2038 77 49.6515 77V79ZM56.7121 77C56.1598 77 55.7121 77.4477 55.7121 78C55.7121 78.5523 56.1598 79 56.7121 79V77ZM63.7727 79C64.325 79 64.7727 78.5523 64.7727 78C64.7727 77.4477 64.325 77 63.7727 77V79ZM70.8333 77C70.281 77 69.8333 77.4477 69.8333 78C69.8333 78.5523 70.281 79 70.8333 79V77ZM77.8939 79C78.4462 79 78.8939 78.5523 78.8939 78C78.8939 77.4477 78.4462 77 77.8939 77V79ZM84.9546 77C84.4023 77 83.9546 77.4477 83.9546 78C83.9546 78.5523 84.4023 79 84.9546 79V77ZM92.0152 79C92.5674 79 93.0152 78.5523 93.0152 78C93.0152 77.4477 92.5674 77 92.0152 77V79ZM99.0758 77C98.5235 77 98.0758 77.4477 98.0758 78C98.0758 78.5523 98.5235 79 99.0758 79V77ZM106.136 79C106.689 79 107.136 78.5523 107.136 78C107.136 77.4477 106.689 77 106.136 77V79ZM113.197 77C112.645 77 112.197 77.4477 112.197 78C112.197 78.5523 112.645 79 113.197 79V77ZM120.258 79C120.81 79 121.258 78.5523 121.258 78C121.258 77.4477 120.81 77 120.258 77V79ZM127.318 77C126.766 77 126.318 77.4477 126.318 78C126.318 78.5523 126.766 79 127.318 79V77ZM134.379 79C134.931 79 135.379 78.5523 135.379 78C135.379 77.4477 134.931 77 134.379 77V79ZM141.439 77C140.887 77 140.439 77.4477 140.439 78C140.439 78.5523 140.887 79 141.439 79V77ZM148.5 79C149.052 79 149.5 78.5523 149.5 78C149.5 77.4477 149.052 77 148.5 77V79ZM155.561 77C155.008 77 154.561 77.4477 154.561 78C154.561 78.5523 155.008 79 155.561 79V77ZM162.621 79C163.174 79 163.621 78.5523 163.621 78C163.621 77.4477 163.174 77 162.621 77V79ZM169.682 77C169.13 77 168.682 77.4477 168.682 78C168.682 78.5523 169.13 79 169.682 79V77ZM176.742 79C177.295 79 177.742 78.5523 177.742 78C177.742 77.4477 177.295 77 176.742 77V79ZM183.803 77C183.251 77 182.803 77.4477 182.803 78C182.803 78.5523 183.251 79 183.803 79V77ZM190.864 79C191.416 79 191.864 78.5523 191.864 78C191.864 77.4477 191.416 77 190.864 77V79ZM197.924 77C197.372 77 196.924 77.4477 196.924 78C196.924 78.5523 197.372 79 197.924 79V77ZM204.985 79C205.537 79 205.985 78.5523 205.985 78C205.985 77.4477 205.537 77 204.985 77V79ZM212.045 77C211.493 77 211.045 77.4477 211.045 78C211.045 78.5523 211.493 79 212.045 79V77ZM219.106 79C219.658 79 220.106 78.5523 220.106 78C220.106 77.4477 219.658 77 219.106 77V79ZM226.167 77C225.614 77 225.167 77.4477 225.167 78C225.167 78.5523 225.614 79 226.167 79V77ZM233.227 79C233.78 79 234.227 78.5523 234.227 78C234.227 77.4477 233.78 77 233.227 77V79ZM240.288 77C239.736 77 239.288 77.4477 239.288 78C239.288 78.5523 239.736 79 240.288 79V77ZM247.349 79C247.901 79 248.349 78.5523 248.349 78C248.349 77.4477 247.901 77 247.349 77V79ZM254.409 77C253.857 77 253.409 77.4477 253.409 78C253.409 78.5523 253.857 79 254.409 79V77ZM261.47 79C262.022 79 262.47 78.5523 262.47 78C262.47 77.4477 262.022 77 261.47 77V79ZM268.53 77C267.978 77 267.53 77.4477 267.53 78C267.53 78.5523 267.978 79 268.53 79V77ZM275.591 79C276.143 79 276.591 78.5523 276.591 78C276.591 77.4477 276.143 77 275.591 77V79ZM282.652 77C282.099 77 281.652 77.4477 281.652 78C281.652 78.5523 282.099 79 282.652 79V77ZM289.712 79C290.264 79 290.712 78.5523 290.712 78C290.712 77.4477 290.264 77 289.712 77V79ZM296.773 77C296.22 77 295.773 77.4477 295.773 78C295.773 78.5523 296.22 79 296.773 79V77ZM303.833 79C304.386 79 304.833 78.5523 304.833 78C304.833 77.4477 304.386 77 303.833 77V79ZM310.894 77C310.342 77 309.894 77.4477 309.894 78C309.894 78.5523 310.342 79 310.894 79V77ZM317.955 79C318.507 79 318.955 78.5523 318.955 78C318.955 77.4477 318.507 77 317.955 77V79ZM325.015 77C324.463 77 324.015 77.4477 324.015 78C324.015 78.5523 324.463 79 325.015 79V77ZM332.076 79C332.628 79 333.076 78.5523 333.076 78C333.076 77.4477 332.628 77 332.076 77V79ZM339.136 77C338.584 77 338.136 77.4477 338.136 78C338.136 78.5523 338.584 79 339.136 79V77ZM346.197 79C346.749 79 347.197 78.5523 347.197 78C347.197 77.4477 346.749 77 346.197 77V79ZM353.258 77C352.705 77 352.258 77.4477 352.258 78C352.258 78.5523 352.705 79 353.258 79V77ZM360.318 79C360.871 79 361.318 78.5523 361.318 78C361.318 77.4477 360.871 77 360.318 77V79ZM367.379 77C366.827 77 366.379 77.4477 366.379 78C366.379 78.5523 366.827 79 367.379 79V77ZM374.439 79C374.992 79 375.439 78.5523 375.439 78C375.439 77.4477 374.992 77 374.439 77V79ZM381.5 77C380.948 77 380.5 77.4477 380.5 78C380.5 78.5523 380.948 79 381.5 79V77ZM388.561 79C389.113 79 389.561 78.5523 389.561 78C389.561 77.4477 389.113 77 388.561 77V79ZM395.621 77C395.069 77 394.621 77.4477 394.621 78C394.621 78.5523 395.069 79 395.621 79V77ZM402.682 79C403.234 79 403.682 78.5523 403.682 78C403.682 77.4477 403.234 77 402.682 77V79ZM409.742 77C409.19 77 408.742 77.4477 408.742 78C408.742 78.5523 409.19 79 409.742 79V77ZM416.803 79C417.355 79 417.803 78.5523 417.803 78C417.803 77.4477 417.355 77 416.803 77V79ZM423.864 77C423.311 77 422.864 77.4477 422.864 78C422.864 78.5523 423.311 79 423.864 79V77ZM430.924 79C431.477 79 431.924 78.5523 431.924 78C431.924 77.4477 431.477 77 430.924 77V79ZM437.985 77C437.433 77 436.985 77.4477 436.985 78C436.985 78.5523 437.433 79 437.985 79V77ZM445.046 79C445.598 79 446.046 78.5523 446.046 78C446.046 77.4477 445.598 77 445.046 77V79ZM452.106 77C451.554 77 451.106 77.4477 451.106 78C451.106 78.5523 451.554 79 452.106 79V77ZM459.167 79C459.719 79 460.167 78.5523 460.167 78C460.167 77.4477 459.719 77 459.167 77V79ZM466.227 77C465.675 77 465.227 77.4477 465.227 78C465.227 78.5523 465.675 79 466.227 79V77ZM473.288 79C473.84 79 474.288 78.5523 474.288 78C474.288 77.4477 473.84 77 473.288 77V79ZM480.349 77C479.796 77 479.349 77.4477 479.349 78C479.349 78.5523 479.796 79 480.349 79V77ZM487.409 79C487.961 79 488.409 78.5523 488.409 78C488.409 77.4477 487.961 77 487.409 77V79ZM494.47 77C493.918 77 493.47 77.4477 493.47 78C493.47 78.5523 493.918 79 494.47 79V77ZM501.264 78.7887C501.812 78.7173 502.198 78.2154 502.126 77.6678C502.055 77.1202 501.553 76.7341 501.005 76.8055L501.264 78.7887ZM506.804 75.2551C506.294 75.4667 506.052 76.0518 506.263 76.5619C506.475 77.0721 507.06 77.3141 507.57 77.1026L506.804 75.2551ZM513.22 73.8345C513.658 73.498 513.74 72.8702 513.404 72.4323C513.067 71.9943 512.439 71.9121 512.001 72.2487L513.22 73.8345ZM516.249 68.0015C515.912 68.4394 515.994 69.0672 516.432 69.4037C516.87 69.7403 517.498 69.6581 517.835 69.2201L516.249 68.0015ZM521.103 63.57C521.314 63.0598 521.072 62.4747 520.562 62.2632C520.052 62.0516 519.467 62.2937 519.255 62.8038L521.103 63.57ZM520.806 57.0053C520.734 57.5529 521.12 58.0548 521.668 58.1262C522.215 58.1977 522.717 57.8116 522.789 57.264L520.806 57.0053ZM523 50.7188C523 50.1665 522.552 49.7188 522 49.7188C521.448 49.7188 521 50.1665 521 50.7188H523ZM521 44.1562C521 44.7085 521.448 45.1562 522 45.1562C522.552 45.1562 523 44.7085 523 44.1562H521ZM523 37.5938C523 37.0415 522.552 36.5938 522 36.5938C521.448 36.5938 521 37.0415 521 37.5938H523ZM521 31.0312C521 31.5835 521.448 32.0312 522 32.0312C522.552 32.0312 523 31.5835 523 31.0312H521ZM523 24.4688C523 23.9165 522.552 23.4688 522 23.4688C521.448 23.4688 521 23.9165 521 24.4688H523ZM521 17.9062C521 18.4585 521.448 18.9062 522 18.9062C522.552 18.9062 523 18.4585 523 17.9062H521ZM523 11.3438C523 10.7915 522.552 10.3438 522 10.3438C521.448 10.3438 521 10.7915 521 11.3438H523ZM521 4.78125C521 5.33353 521.448 5.78125 522 5.78125C522.552 5.78125 523 5.33353 523 4.78125H521ZM9 154.5V151.219H7V154.5H9ZM9 144.656V138.094H7V144.656H9ZM9 131.531V124.969H7V131.531H9ZM9 118.406V111.844H7V118.406H9ZM9 105.281V102H7V105.281H9ZM9 102C9 100.981 9.06621 99.9779 9.19445 98.9947L7.21126 98.736C7.07185 99.8047 7 100.894 7 102H9ZM10.7449 93.1961C11.52 91.3268 12.5349 89.5815 13.7513 87.9985L12.1655 86.7799C10.8438 88.4998 9.74045 90.3971 8.89741 92.43L10.7449 93.1961ZM17.9985 83.7513C19.5815 82.5349 21.3268 81.52 23.1961 80.7449L22.43 78.8974C20.3971 79.7404 18.4998 80.8438 16.7799 82.1655L17.9985 83.7513ZM28.9947 79.1945C29.9779 79.0662 30.981 79 32 79V77C30.8942 77 29.8047 77.0719 28.736 77.2113L28.9947 79.1945ZM32 79H35.5303V77H32V79ZM42.5909 79H49.6515V77H42.5909V79ZM56.7121 79H63.7727V77H56.7121V79ZM70.8333 79H77.8939V77H70.8333V79ZM84.9546 79H92.0152V77H84.9546V79ZM99.0758 79H106.136V77H99.0758V79ZM113.197 79H120.258V77H113.197V79ZM127.318 79H134.379V77H127.318V79ZM141.439 79H148.5V77H141.439V79ZM155.561 79H162.621V77H155.561V79ZM169.682 79H176.742V77H169.682V79ZM183.803 79H190.864V77H183.803V79ZM197.924 79H204.985V77H197.924V79ZM212.045 79H219.106V77H212.045V79ZM226.167 79H233.227V77H226.167V79ZM240.288 79H247.349V77H240.288V79ZM254.409 79H261.47V77H254.409V79ZM268.53 79H275.591V77H268.53V79ZM282.652 79H289.712V77H282.652V79ZM296.773 79H303.833V77H296.773V79ZM310.894 79H317.955V77H310.894V79ZM325.015 79H332.076V77H325.015V79ZM339.136 79H346.197V77H339.136V79ZM353.258 79H360.318V77H353.258V79ZM367.379 79H374.439V77H367.379V79ZM381.5 79H388.561V77H381.5V79ZM395.621 79H402.682V77H395.621V79ZM409.742 79H416.803V77H409.742V79ZM423.864 79H430.924V77H423.864V79ZM437.985 79H445.046V77H437.985V79ZM452.106 79H459.167V77H452.106V79ZM466.227 79H473.288V77H466.227V79ZM480.349 79H487.409V77H480.349V79ZM494.47 79H498V77H494.47V79ZM498 79C499.106 79 500.195 78.9281 501.264 78.7887L501.005 76.8055C500.022 76.9338 499.019 77 498 77V79ZM507.57 77.1026C509.603 76.2596 511.5 75.1562 513.22 73.8345L512.001 72.2487C510.419 73.4651 508.673 74.48 506.804 75.2551L507.57 77.1026ZM517.835 69.2201C519.156 67.5002 520.26 65.6029 521.103 63.57L519.255 62.8038C518.48 64.6731 517.465 66.4185 516.249 68.0015L517.835 69.2201ZM522.789 57.264C522.928 56.1953 523 55.1058 523 54H521C521 55.019 520.934 56.0221 520.806 57.0053L522.789 57.264ZM523 54V50.7188H521V54H523ZM523 44.1562V37.5938H521V44.1562H523ZM523 31.0312V24.4688H521V31.0312H523ZM523 17.9062V11.3438H521V17.9062H523ZM523 4.78125V1.5H521V4.78125H523Z" fill="#CFD5DE"/>
</svg>
